<svg version="1.1" xmlns="http://www.w3.org/2000/svg" xmlns:xlink="http://www.w3.org/1999/xlink" viewBox="0 0 35 35">
	<defs><style>.cls-1{fill:#2dbbae;}.cls-2{fill:#2fbcaf;}.cls-3{fill:#30bcb0;}</style></defs>
	<path class="st0" d="M18.15,0v16.85H35V0H18.15z M28.18,13.58h-1.82V5.97l-2.07,2.54l-1.51-1.23l3.58-4.39V2.87h1.82V13.58z"/>
	<path class="st0" d="M18.15,35H35V18.15H18.15V35z M22.09,23.29c0.9-1.09,2.08-1.74,3.47-1.92c2.07-0.26,3.79,0.44,5.15,2.01
		c0.27,0.32,0.47,0.68,0.62,1.07c0.01,0.02,0.02,0.04,0.02,0.06c0,0.01,0,0.02,0,0.06c-0.05,0-0.1,0-0.15,0c-0.66,0-1.32,0-1.97,0
		c-0.1,0-0.17-0.03-0.23-0.12c-0.54-0.76-1.29-1.19-2.21-1.31c-1.9-0.26-3.57,0.96-3.96,2.83c-0.42,2.03,0.84,3.96,2.96,4.29
		c1.01,0.16,1.95-0.05,2.76-0.69c0.36-0.28,0.64-0.63,0.85-1.02c0.02-0.03,0.03-0.07,0.06-0.13c-0.73,0-1.45,0-2.16,0
		c-0.72,0-1.43,0-2.16,0c0-0.6,0-1.19,0-1.77c0,0,0.01-0.01,0.01-0.01c0,0,0.01-0.01,0.01-0.01c2.19,0,4.39-0.01,6.58-0.01
		c0.05,0,0.1,0,0.17,0c0,0.07,0.01,0.14,0.01,0.2c-0.01,1.39-0.52,2.59-1.48,3.58c-0.88,0.9-1.95,1.47-3.2,1.65
		c-2.76,0.4-5.25-1.16-6.09-3.49C20.45,26.64,20.79,24.86,22.09,23.29z"/>
	<path class="st0" d="M0,35h16.85V18.15H0V35z M6.05,22.05c1.99-1.2,4.71-0.95,6.5,0.82c0.44,0.43,0.81,0.91,1.05,1.48
		c0.02,0.04,0.03,0.09,0.06,0.16c-0.07,0-0.12,0.01-0.16,0.01c-0.63,0-1.25,0-1.88,0c-0.1,0-0.17-0.03-0.24-0.11
		c-0.35-0.41-0.76-0.75-1.26-0.96c-0.41-0.17-0.83-0.29-1.27-0.32c-0.93-0.06-1.73,0.27-2.4,0.91c-0.84,0.82-1.25,1.83-1.15,3.02
		c0.11,1.34,1.13,2.9,2.84,3.22c0.86,0.16,1.67,0.02,2.38-0.51c0.25-0.19,0.48-0.41,0.72-0.62c0.08-0.07,0.15-0.11,0.26-0.11
		c0.64,0.01,1.27,0,1.91,0c0.05,0,0.1,0,0.18,0c-0.03,0.08-0.05,0.14-0.08,0.2c-0.48,0.99-1.21,1.74-2.17,2.26
		c-2.75,1.47-6.04,0.33-7.41-2.36c-0.43-0.85-0.64-1.75-0.58-2.7C3.48,24.52,4.4,23.05,6.05,22.05z"/>
	<path class="st0" d="M0,16.85h16.85V0H0V16.85z M5.54,2.86c0.13-0.03,5.73-0.04,5.97-0.01c0,0.62,0,1.22,0,1.85
		c-0.33,0.02-0.66,0-0.99,0.01c-0.32,0-0.65,0-0.99,0c0,2.97,0,5.92,0,8.88c-0.67,0-1.33,0-2,0c0-2.96,0-5.91,0-8.88
		c-0.67,0-1.33,0-1.99,0C5.54,4.08,5.54,3.47,5.54,2.86z"/>
</svg>
