<svg xmlns="http://www.w3.org/2000/svg" viewBox="0 0 300 300">
  <title>Ansible</title>
  <g id="Layer_2" data-name="Layer 2">
    <g id="Layer_1-2" data-name="Layer 1">
      <g id="Ansible">
        <path
          d="M150,0A150,150,0,0,1,300,150.25C300,233,232.71,300,149.66,300,66.93,300,0,232.65,0,149.57.05,67.11,67.33,0,150,0ZM125.84,160.74c.55.4.89.63,1.21.89q36.8,29.73,73.59,59.44a45.54,45.54,0,0,0,6.12,4.46,10.7,10.7,0,0,0,15.56-7.17c.64-2.9-.27-5.48-1.34-8.05q-23.17-55.78-46.36-111.58-6.28-15.09-12.53-30.19c-1.39-3.37-3.52-5.9-7.23-6.7-5.52-1.18-9.89,1.32-12.26,7L78.25,223.61c-.24.58-.42,1.18-.71,2h1.89c6.21,0,12.42,0,18.63,0a2.34,2.34,0,0,0,2.62-1.78q7.51-19.08,15.16-38.09C119.14,177.5,122.45,169.23,125.84,160.74Z"
        />
        <path
          d="M152.55,93.94c12.91,31.86,25.68,63.37,38.61,95.3-.81-.57-1.28-.86-1.72-1.21q-27.65-21.76-55.29-43.51a2,2,0,0,1-.76-2.8q9.2-22.77,18.25-45.61C151.89,95.5,152.15,94.9,152.55,93.94Z"
        />
      </g>
    </g>
  </g>
</svg>
