<svg xmlns="http://www.w3.org/2000/svg" viewBox="0 0 300 179.25">
  <defs>
    <style>
      .aws-1 {
        fill: #252f3e;
      }
      .aws-2 {
        fill: #fe9901;
      }
    </style>
  </defs>
  <title>Aws</title>
  <g id="Layer_2" data-name="Layer 2">
    <g id="Layer_1-2" data-name="Layer 1">
      <g id="Aws">
        <path
          class="aws-1"
          d="M154,21.78c-.45,1.86-.86,3.52-1.25,5.18q-7.06,29.46-14.11,58.93a23.66,23.66,0,0,1-.74,2.3,3.78,3.78,0,0,1-3.66,2.68c-2.55.09-5.1.1-7.66.11-1.26,0-2.52,0-3.78-.1a3.85,3.85,0,0,1-3.59-2.49c-.72-1.83-1.35-3.69-1.92-5.57Q106.07,46,94.9,9.17A30.45,30.45,0,0,1,94,5.43c-.32-1.73.57-2.9,2.28-2.91,3.74,0,7.48,0,11.22.07a3.69,3.69,0,0,1,3.68,2.64c.75,2.22,1.4,4.47,2,6.74q7.77,30.45,15.48,60.92c0,.07,0,.13.14.39.17-.69.32-1.21.44-1.74L144.26,7.62c.16-.68.39-1.35.6-2a4.06,4.06,0,0,1,3.87-3c1.39-.11,2.78-.13,4.17-.12,2.25,0,4.49,0,6.74.1a3.88,3.88,0,0,1,3.84,2.89c.6,1.92,1.06,3.89,1.52,5.85q7,29.41,13.88,58.84c.3,1.25.59,2.5.93,3.91.15-.45.26-.76.34-1.07Q188.58,40.4,197,7.77a20.05,20.05,0,0,1,1.11-3,3.72,3.72,0,0,1,3.47-2.18c1.94-.12,3.88-.11,5.83-.13,1.51,0,3,0,4.55,0,2.17,0,3.18,1.13,2.69,3.25-.57,2.45-1.29,4.87-2,7.27q-11.41,36.68-22.88,73.34c-.22.7-.5,1.37-.78,2.05a4.18,4.18,0,0,1-4,2.6c-3.64.07-7.28.06-10.92,0a4,4,0,0,1-4-3c-.59-1.95-1.05-3.94-1.53-5.93l-13.11-54.5C154.94,25.7,154.5,23.84,154,21.78Z"
        />
        <path
          class="aws-2"
          d="M147.4,179.25c-6.61-.11-13.57-.46-20.52-1.15a221.25,221.25,0,0,1-46.65-9.76,217,217,0,0,1-44.94-20.49A217.22,217.22,0,0,1,2.22,123.47a12.09,12.09,0,0,1-1.59-1.61,2.6,2.6,0,0,1-.17-3.17,2.67,2.67,0,0,1,3.06-.89,10.51,10.51,0,0,1,2,1,288.31,288.31,0,0,0,37.42,18,301.5,301.5,0,0,0,36.34,11.7c8.17,2.08,16.41,3.9,24.74,5.16,7.26,1.1,14.55,2,21.85,2.81a206.18,206.18,0,0,0,23.3,1.24c6.49,0,13-.1,19.47-.4,7.95-.35,15.86-1.22,23.75-2.32a290.51,290.51,0,0,0,53.18-12.51c7-2.39,13.89-5.18,20.81-7.82a6.12,6.12,0,0,1,4.35-.31,4,4,0,0,1,2,6.43,8.12,8.12,0,0,1-1.7,1.61,163.52,163.52,0,0,1-28.87,16.81,219.81,219.81,0,0,1-45.4,15q-11.17,2.41-22.54,3.72A224.73,224.73,0,0,1,147.4,179.25Z"
        />
        <path
          class="aws-1"
          d="M68,41.57c-.13-5.35.32-10.66-.9-15.9-1.46-6.22-5.32-9.84-11.51-11.08A45.38,45.38,0,0,0,35,15.4,92.79,92.79,0,0,0,23.7,19.16a19.43,19.43,0,0,1-2.59.81c-1.48.35-2.6-.28-2.67-1.76-.12-2.7-.07-5.41,0-8.1A3.72,3.72,0,0,1,20.94,7a69.17,69.17,0,0,1,6.41-2.86A65.1,65.1,0,0,1,54,.21a43.56,43.56,0,0,1,14.8,3.18c6.9,3,11.28,8.21,13.59,15.28a40.48,40.48,0,0,1,1.94,12.45c.06,10.76,0,21.53,0,32.3A34.16,34.16,0,0,0,88.77,81c1.37,2.34.93,4-1.31,5.5-2,1.39-4.1,2.77-6.18,4.12s-4,1.06-5.76-.81a36.6,36.6,0,0,1-5.73-8.87l-.7-1.41c-.48.53-.91,1-1.36,1.49A36.09,36.09,0,0,1,47.2,92.59c-6.62,1.18-13.21,1.1-19.53-1.45-8-3.24-12.84-9.23-14.6-17.65a30.35,30.35,0,0,1,.68-15.57A25.38,25.38,0,0,1,25.31,43.65,34.68,34.68,0,0,1,39.5,39a71.58,71.58,0,0,1,21.41,1.14C63.24,40.56,65.55,41.07,68,41.57ZM51.06,50.51a34.13,34.13,0,0,0-10.65,1.1c-4.13,1.22-7.44,3.5-9.23,7.55A17.89,17.89,0,0,0,30.25,70a11.55,11.55,0,0,0,9.14,9.67,23,23,0,0,0,9.41.1A25.38,25.38,0,0,0,60,75.43c3.49-2.61,6.18-5.77,7.24-10.13a48.82,48.82,0,0,0,.89-12.12c0-.18-.33-.47-.55-.52A77,77,0,0,0,51.06,50.51Z"
        />
        <path
          class="aws-1"
          d="M255.87,0a56.19,56.19,0,0,1,20.79,3.8A19,19,0,0,1,280.45,6a4.89,4.89,0,0,1,2.13,4.16c0,1.87,0,3.74,0,5.61-.07,2.22-1.3,3.14-3.41,2.48-1.37-.42-2.68-1-4-1.57a47.09,47.09,0,0,0-20.7-3.2A25.29,25.29,0,0,0,246,15.19a10.3,10.3,0,0,0-5.78,13.92,11.63,11.63,0,0,0,5.48,5.34,59.62,59.62,0,0,0,10.56,4.09c4.84,1.56,9.72,3,14.51,4.75a27.18,27.18,0,0,1,10.39,6.33A21.64,21.64,0,0,1,287.53,64a25,25,0,0,1-2.23,12.54,27,27,0,0,1-13.53,13.11,43.23,43.23,0,0,1-15,3.83A64.6,64.6,0,0,1,228,89a22.58,22.58,0,0,1-4-2.19,4.72,4.72,0,0,1-2.11-4.07c-.06-2,0-3.94,0-5.91.05-2.26,1.24-3.18,3.44-2.59a27,27,0,0,1,3.54,1.33,56.73,56.73,0,0,0,24.53,4.46,26.16,26.16,0,0,0,10.93-2.4,11.11,11.11,0,0,0,6.46-7.82,10.18,10.18,0,0,0-5-11.48,45.92,45.92,0,0,0-9.66-3.88c-5.24-1.66-10.51-3.22-15.69-5.06a25.69,25.69,0,0,1-11.58-7.73c-6.24-7.59-7.8-16.06-4-25.2,2.29-5.49,6.54-9.34,11.71-12.17A36.81,36.81,0,0,1,252.09,0C253.34,0,254.61,0,255.87,0Z"
        />
        <path
          class="aws-2"
          d="M270,123.35a204.42,204.42,0,0,0-20.54,1.6c-1.16.14-2.31.27-3.47.35a1.81,1.81,0,0,1-1.65-3.06,8.06,8.06,0,0,1,1.68-1.62,47.84,47.84,0,0,1,16.4-7,72.42,72.42,0,0,1,21.06-1.78,46.42,46.42,0,0,1,11.69,2c3.82,1.24,4.67,2.38,4.84,6.39a46.26,46.26,0,0,1-1.2,11.73,70.45,70.45,0,0,1-9.54,23.66,45.84,45.84,0,0,1-8.54,10A5.3,5.3,0,0,1,278,167c-1.44.2-2.34-.71-2-2.11a18.21,18.21,0,0,1,.9-2.57,190.86,190.86,0,0,0,7.55-21.71,40.89,40.89,0,0,0,1.53-8.78,21.27,21.27,0,0,0-.18-3.09,4.45,4.45,0,0,0-2.85-3.64,19.63,19.63,0,0,0-6.54-1.48C274.26,123.48,272.11,123.44,270,123.35Z"
        />
      </g>
    </g>
  </g>
</svg>
