<svg xmlns="http://www.w3.org/2000/svg" viewBox="0 0 300 215.49">
  <defs>
    <style>
      .docker-1 {
        fill: #2496ed;
      }
    </style>
  </defs>
  <title>Docker</title>
  <g id="Layer_2" data-name="Layer 2">
    <g id="Layer_1-2" data-name="Layer 1">
      <g id="Docker">
        <path
          class="docker-1"
          d="M0,110.66c.07-.32.15-.64.21-1A9.35,9.35,0,0,1,9.63,102H175.32c10.35,0,20.71.12,31.06,0a55.47,55.47,0,0,0,19.88-4c.72-.29,1.4-.65,2.11-1,.13-.06.25-.14.44-.24-.13-.25-.24-.48-.37-.69a40.87,40.87,0,0,1-5.68-26.12,55.18,55.18,0,0,1,9.93-26.11l1.6-2.29a48.12,48.12,0,0,1,17.1,14.1A43.74,43.74,0,0,1,260.11,76c1.42-.19,2.78-.39,4.14-.54,8.31-.92,16.52-.71,24.58,1.8a29.44,29.44,0,0,1,10.95,6.17.77.77,0,0,1,.2.66,36.82,36.82,0,0,1-10.11,16.5,44,44,0,0,1-26.27,12c-3,.34-6.06.33-9.09.43a.91.91,0,0,0-1,.69,219.84,219.84,0,0,1-14.87,31.08,144.56,144.56,0,0,1-22.71,29.55,129.51,129.51,0,0,1-32.29,23.44,153,153,0,0,1-40.71,14.06,188.39,188.39,0,0,1-29.56,3.42c-2.19.08-4.37.1-6.56.15a5.72,5.72,0,0,0-.68.12h-1.75a3.49,3.49,0,0,0-.54-.12c-1.87,0-3.74,0-5.61-.06a183.76,183.76,0,0,1-25.84-2.59,117.55,117.55,0,0,1-24.25-6.83,62.92,62.92,0,0,1-21.83-14.81A81,81,0,0,1,11,167.54a126.52,126.52,0,0,1-8-25.94A136.76,136.76,0,0,1,.12,117a2.81,2.81,0,0,0-.12-.48Z"
        />
        <path
          class="docker-1"
          d="M164.75,0c1.56.48,2.05,1.56,2,3.15,0,7.48,0,15,0,22.45,0,1.86-.85,2.71-2.71,2.71H138.25a2.31,2.31,0,0,1-2.63-2.64c0-7.5,0-15,0-22.52,0-1.59.48-2.67,2-3.15Z"
        />
        <path
          class="docker-1"
          d="M114.5,96.23H101.68A2.38,2.38,0,0,1,99,93.53V70.65a2.38,2.38,0,0,1,2.67-2.71h25.8a2.41,2.41,0,0,1,2.7,2.7q0,11.44,0,22.89a2.39,2.39,0,0,1-2.69,2.7Z"
        />
        <path
          class="docker-1"
          d="M151.19,96.23h-12.9a2.37,2.37,0,0,1-2.67-2.7V70.64a2.38,2.38,0,0,1,2.67-2.7H164.1a2.39,2.39,0,0,1,2.67,2.71V93.53a2.38,2.38,0,0,1-2.68,2.7Z"
        />
        <path
          class="docker-1"
          d="M151.21,62.28H138.38c-1.9,0-2.76-.86-2.76-2.75V36.72A2.4,2.4,0,0,1,138.35,34H164c1.88,0,2.77.89,2.77,2.76V59.5c0,1.93-.86,2.78-2.81,2.78Z"
        />
        <path
          class="docker-1"
          d="M77.51,96.23H64.68c-1.86,0-2.74-.87-2.74-2.7V70.64a2.38,2.38,0,0,1,2.68-2.7h25.8a2.38,2.38,0,0,1,2.67,2.71V93.53a2.38,2.38,0,0,1-2.68,2.7Z"
        />
        <path
          class="docker-1"
          d="M188.12,96.23H175.29c-1.85,0-2.74-.87-2.74-2.7V70.64a2.38,2.38,0,0,1,2.68-2.7H201a2.38,2.38,0,0,1,2.67,2.71q0,11.44,0,22.89A2.37,2.37,0,0,1,201,96.23Z"
        />
        <path
          class="docker-1"
          d="M114.54,62.28H101.79c-2,0-2.79-.85-2.79-2.8V36.75c0-1.88.88-2.75,2.78-2.75h25.58c1.9,0,2.81.9,2.81,2.81q0,11.32,0,22.66c0,1.93-.88,2.81-2.8,2.81Z"
        />
        <path
          class="docker-1"
          d="M77.54,62.28H64.72c-1.9,0-2.78-.87-2.78-2.74V36.73A2.41,2.41,0,0,1,64.67,34H90.39a2.38,2.38,0,0,1,2.7,2.68V59.56c0,1.85-.87,2.72-2.72,2.72Z"
        />
        <path
          class="docker-1"
          d="M41,96.23H28.2c-1.86,0-2.76-.87-2.76-2.7V70.65c0-1.83.91-2.71,2.76-2.71H53.85c1.88,0,2.74.88,2.74,2.78q0,11.37,0,22.74c0,1.9-.85,2.77-2.74,2.77Z"
        />
      </g>
    </g>
  </g>
</svg>
