<svg xmlns="http://www.w3.org/2000/svg" viewBox="0 0 300 111.87">
  <defs>
    <style>
      .golang-1 {
        fill: #2dbbae;
      }
      .golang-2 {
        fill: #2fbcaf;
      }
      .golang-3 {
        fill: #30bcb0;
      }
    </style>
  </defs>
  <title>GoLang</title>
  <g id="Layer_2" data-name="Layer 2">
    <g id="Layer_1-2" data-name="Layer 1">
      <g id="GoLang">
        <path
          class="golang-1"
          d="M185.83,76.94c-2.56,3.7-4.94,7.62-7.77,11.18-10.36,13-23.74,20.88-40.34,23-9.22,1.19-18.31.68-27-2.91-16.47-6.83-27.17-18.66-30.25-36.53-2.75-15.92,1.22-30.36,10.56-43.4a66,66,0,0,1,26.7-22.37A67.33,67.33,0,0,1,140.69.16a48.75,48.75,0,0,1,25.21,4.5A46.58,46.58,0,0,1,189.18,29c.47,1.08.17,1.72-1.16,2.1-1.8.53-3.64,1-5.46,1.44-6.49,1.7-13,3.37-19.44,5.15a3.46,3.46,0,0,1-4.16-1.3c-3.46-4.44-8.15-6.87-13.58-8-6.45-1.33-12.41.12-18,3.34-8.4,4.84-14.16,11.73-16.07,21.44-1.41,7.19-1,14.16,3.28,20.43,5.2,7.65,12.67,10.67,21.71,10,8.82-.61,15.46-5,20.57-12,.71-1,1.4-2,2.25-3.15H131.87c-.47,0-.93,0-1.39,0-2.26-.15-3.31-1.57-2.51-3.7,1-2.66,2.18-5.26,3.37-7.85s2.65-5.33,3.88-8a4.86,4.86,0,0,1,5-3.07c14.86.06,29.72,0,44.59.06a1.73,1.73,0,0,0,2-1.34c5.73-15.24,15.38-27.21,29.74-35.13,7.39-4.09,15.46-6.2,23.77-7.37C248.37.9,256.5.89,264.43,3.28,278.77,7.61,289.59,16.22,296,30a48.14,48.14,0,0,1,4,18.31,55.24,55.24,0,0,1-3.56,23.07c-4.85,12.32-13.23,21.79-24.05,29.17A65.48,65.48,0,0,1,246,111c-14.75,2.47-28.58.12-41.09-8.32a45.89,45.89,0,0,1-18.78-24.79c-.1-.32-.21-.64-.33-1C185.75,76.82,185.66,76.78,185.83,76.94Zm53.5,7.22a23.18,23.18,0,0,0,2.51-.12,33.26,33.26,0,0,0,24.27-15.78,27.3,27.3,0,0,0,4.07-20.12c-2.69-13.77-14.08-21.87-28-19.62-11.84,1.92-20.66,8.19-25.36,19.56-2.42,5.86-3.48,11.88-1.75,18.16C218.08,77.05,227.73,84.19,239.33,84.16Z"
        />
        <path
          class="golang-2"
          d="M0,46.88c1.17-1.47,2.31-3,3.52-4.39a1.7,1.7,0,0,1,1-.46,8.88,8.88,0,0,1,1.63-.12h64.1c.34,0,.68,0,1,0,.8,0,1.18.39.86,1.22,0,.12-.08.24-.12.36-1.52,4.25-.43,3.64-5,3.66q-32.67.11-65.36.17c-.48,0-1,0-1.43-.08Z"
        />
        <path
          class="golang-3"
          d="M21.8,33.73c1.48-1.81,2.69-3.39,4-4.85a2.34,2.34,0,0,1,1.53-.39H78.47a10.42,10.42,0,0,1,1.51.25c-1.22,1.76-2.23,3.33-3.37,4.8a2.12,2.12,0,0,1-1.49.47q-25.88,0-51.74-.07A14.8,14.8,0,0,1,21.8,33.73Z"
        />
        <path
          class="golang-2"
          d="M35.23,60.74c1-2,1.64-3.76,3.07-5.09a2,2,0,0,1,1.19-.25c9.44,0,18.89,0,28.33,0,1,0,1.38.4,1.29,1.36s-.21,1.75-.22,2.63c0,1.21-.6,1.59-1.74,1.58-5,0-10.07,0-15.1-.06S42,60.79,36.94,60.74Z"
        />
      </g>
    </g>
  </g>
</svg>
