<svg xmlns="http://www.w3.org/2000/svg" viewBox="0 0 300 416.65">
  <defs>
    <style>
      .jenkins-1 {
        fill: #231f20;
      }
      .jenkins-2 {
        fill: #939191;
      }
      .jenkins-3 {
        fill: #726f70;
      }
      .jenkins-4 {
        fill: #989696;
      }
      .jenkins-5 {
        fill: #efd5b6;
      }
      .jenkins-6 {
        fill: #335061;
      }
      .jenkins-7 {
        fill: #d23833;
      }
      .jenkins-8 {
        fill: #49718a;
      }
      .jenkins-9 {
        fill: #335060;
      }
      .jenkins-10 {
        fill: #fdfdfd;
      }
      .jenkins-11 {
        fill: #f6e3cc;
      }
      .jenkins-12 {
        fill: #6c6a6c;
      }
      .jenkins-13 {
        fill: #dad8d7;
      }
      .jenkins-14 {
        fill: #ed3d3a;
      }
      .jenkins-15 {
        fill: #80aec2;
      }
      .jenkins-16 {
        fill: #dad7d6;
      }
      .jenkins-17 {
        fill: #f4e2cb;
      }
      .jenkins-18 {
        fill: #334f60;
      }
      .jenkins-19 {
        fill: #d13833;
      }
      .jenkins-20 {
        fill: #80aec1;
      }
      .jenkins-21 {
        fill: #d9d6d5;
      }
      .jenkins-22 {
        fill: #ea3c39;
      }
      .jenkins-23 {
        fill: #f6f5f5;
      }
      .jenkins-24 {
        fill: #f2dfc8;
      }
      .jenkins-25 {
        fill: #487088;
      }
      .jenkins-26 {
        fill: #f8f8f8;
      }
      .jenkins-27 {
        fill: #d7d4d4;
      }
      .jenkins-28 {
        fill: #d6d3d2;
      }
      .jenkins-29 {
        fill: #e83c39;
      }
      .jenkins-30 {
        fill: #d2cfce;
      }
      .jenkins-31 {
        fill: #487189;
      }
      .jenkins-32 {
        fill: #6d6b6d;
      }
      .jenkins-33 {
        fill: #476e86;
      }
      .jenkins-34 {
        fill: #eedbc5;
      }
      .jenkins-35 {
        fill: #eeeded;
      }
      .jenkins-36 {
        fill: #476f87;
      }
      .jenkins-37 {
        fill: #e5c7ab;
      }
      .jenkins-38 {
        fill: #dc3a37;
      }
      .jenkins-39 {
        fill: #d8d5d4;
      }
      .jenkins-40 {
        fill: #272223;
      }
      .jenkins-41 {
        fill: #262222;
      }
      .jenkins-42 {
        fill: #272323;
      }
      .jenkins-43 {
        fill: #292425;
      }
      .jenkins-44 {
        fill: #282424;
      }
      .jenkins-45 {
        fill: #292424;
      }
      .jenkins-46 {
        fill: #2b2626;
      }
      .jenkins-47 {
        fill: #322c2b;
      }
      .jenkins-48 {
        fill: #f5e2cb;
      }
      .jenkins-49 {
        fill: #f0ddc7;
      }
      .jenkins-50 {
        fill: #f5e1ca;
      }
      .jenkins-51 {
        fill: #f5e1c9;
      }
      .jenkins-52 {
        fill: #f5e2ca;
      }
    </style>
  </defs>
  <title>Jenkins</title>
  <g id="Layer_2" data-name="Layer 2">
    <g id="Layer_1-2" data-name="Layer 1">
      <g id="Jenkins">
        <path
          class="jenkins-1"
          d="M0,182.52c3.15-11.29,5.83-22.73,9.53-33.83,7.85-23.57,21.38-43.6,39.59-60.45,3.67-3.4,6-6.68,6.52-12.2.84-9.46,3.3-18.79,12.56-24.23a3.79,3.79,0,0,0,1.71-1.67c7.68-22.4,28.25-29.63,46.7-38.63,26.09-12.71,53.9-15.66,81.16-5C227,18,245.47,40.07,250,71.57A55.09,55.09,0,0,0,263.85,102c40.67,46.56,47.55,116.59,18,173.31-.73,1.39-1.49,2.77-2.19,4.07,15,13.9,20.74,41.5,11.39,58.21a20.84,20.84,0,0,1-12,9.19c-9.78,2.33-19.94,4.13-29-3.94-4.25-3.8-16.57,2.3-21.26,5.73-9.79,7.14-5.81,15.5-4.24,23.8,3.26,17.22,2.93,18-14.42,24.24,5.45,16.77-8.42,16.55-18.27,20.09H188.6l-3.14-1.39-3.36,1.39H144.71c-18.6-2.54-20.08-18.2-24.32-31.74-.08-.26-.11-.53-.17-.8-2.13-9.59-3.92-19.53-17.81-16.53-.91.19-2.07-.54-3.06-.95-10-4.09-19.66-9.11-29.94-12.07-13.15-3.8-17.56-11.79-15.89-24.66,1-7.48-2.32-13-7.93-18.31A138.17,138.17,0,0,1,10,256.16C5.92,244.33,3.29,232,0,219.92ZM113.83,26.45,125,18.84c-15.55-.41-40.42,15.92-46.59,30L87.83,46c9.37,1.74,15.06-2.86,19.26-10.69C108.82,32.07,111.55,29.38,113.83,26.45ZM237.35,328.84c-1.13-7.68-2-15.42-3.49-23-1.11-5.69-4.88-7.25-10.94-4.7q2.43,15.43,4.85,30.95c.15,2.2.3,4.4.44,6.5C236.64,339.32,239.32,336,237.35,328.84ZM203.06,280l2.05-15.71c.58-6.65,1.16-13.29,1.66-19.13-9.09-6.88-17.51-9.18-26-2.24,7.05,14.15,13.83,27.79,20.61,41.42l1.39-.48C202.85,282.57,203,281.29,203.06,280Zm19.68-68.18c-3.2-.85-6.79-3-9.51-2.24-4.53,1.32-8.46,4.63-12.73,6.95-4.82,2.63-5.11,5.1-.13,7.88.27.15-.2,1.64-.32,2.5l-2.24,8.74,25.95,3.27C227.74,229.21,226.05,220.49,222.74,211.82Zm-7.87,95.66c-.51-10-6.68-5.83-11.65-4.67v45.84l16.14-3.74C217.79,331.85,216.33,319.67,214.87,307.48Zm-44.15-79.43,8-2.56a152.1,152.1,0,0,0-29.5-13.81c-6.87-2.42-10.89,0-10.71,7.17.23,9,2.14,18,3.32,26.92,3.6,10.87,4.49,11.71,14.73,6.8,7.22-3.45,13.8-8.38,20.23-13.22,1.71-1.29,1.84-4.67,2.19-5.65ZM97.63,55.78c-1.51-1.2-3.14-3.56-4.52-3.42-11,1.13-20.36,6.06-25.77,15.74C65,72.38,65.63,78.37,64.91,83.57c.25,3.75-.77,8.55,1.17,10.91,1.49,1.81,6.71.53,10.27.69.8,0,1.56.45,2.36.54,9.85,1.19,14.67,7.75,18.05,16.68a13.53,13.53,0,0,0,1.06-6.3c-.14-9.6-.36-19.2-.41-28.8C97.37,70.12,97.55,63,97.63,55.78ZM242.25,297.94c-1,1.61-3.08,3.35-2.89,4.8,1.45,10.86,3.34,21.67,5.14,32.83h26.73l.23,1.12L256.81,341c24.46,4.66,35.08-6.14,30-28.37-.53-2.33-1.35-4.6-2-6.89-1.3-4.36-1.53-9.6-4.2-12.81s-8.44-6.84-11.68-6C259.66,289.44,251.07,294.13,242.25,297.94Zm-13.12-91c.1,10.41.12,20.81.35,31.21.05,2.06,1.25,4.08,1.38,6.16.19,3,1,6.71-.36,9.09-7.07,12.8-14.71,25.29-22.17,37.9,5.2,0,9.73.87,13.72-.23,4.32-1.2,10.61-3.34,11.77-6.59,7.24-20.24,13.28-40.9,19.72-61.42-.65-3-.31-7-2.15-8.89-7.68-7.74-16-14.84-25.32-23.26-2.57,2.58-4.87,4.88-6.78,6.81C223.4,201.6,226.26,204.29,229.13,207ZM10,216.52c3.31,33,16.27,61.51,39.74,85.33.54-4.12.86-8.2-.24-11.87q-8.22-27.51-17.15-54.83c-2.4-7.29-.14-11.69,6.24-15.37,14.53-8.37,28.72-17.33,43.25-25.7,5.95-3.43,7.25-7.16,3.72-13.17a48.61,48.61,0,0,1-5.76-13.29c-1.08-4.6-3-6.85-7.29-9.33-6-3.5-12.63-8.45-15.42-14.44-4-8.54-4.69-18.59-6.79-28L56.19,96.5l-2.45-.66C20.66,129.28,5.89,169.44,10,216.52Zm178.55,85c-25.14-2.61-49.9-.32-76.67,5.11,6.77,30.54,13.23,60,20,89.47.57,2.5,2.69,6.32,4.53,6.6,12.46,1.89,25,3,37.59,4.37l28.92-2.44c-2.17-35-4.22-68.06-6.31-101.69ZM65,340.31c16,9.06,32.1,17.69,51.46,19.17l-6-47c.85-4.93-1.28-6.93-6.2-6.71-4.3.19-8.61,0-12.92-.08l7.58-7.82c-.71-1.89-1.62-4.25-2.88-7.56l12.66,5.12V258.26l3.06-.06q.36,6.9.7,13.79c-.07,6.37-.58,12.78,0,19.09.22,2.33,3,4.44,4.58,6.65l62.63-6c-7.81-3.85-15.21-7.47-22.58-11.15-10.37-5.17-10.81-6.4-7.45-15-4.13-5.16-8.09-8.84-10.41-13.36s-3.31-9.68-4.14-14.7c-1.06-6.37-4-10.32-10.13-13-7.84-3.46-15-8.36-22.52-12.64a38.66,38.66,0,0,1-3.29-4.56c-4.19-7.9-9.83-7.94-16.63-3.48C69.84,212,57,220,44.57,228.57c-1.66,1.13-3,5.26-2.21,7.08,12.93,31.11,17.41,63.83,19.52,97.09C62,335.32,63.91,337.79,65,340.31ZM104.1,68.69C100.18,82.33,98,96,102.58,110c1.43,4.35,1.92,8.27-4.18,10.08s-8.93-.41-10.39-5.89c-1.28-7.19-5.74-10.93-12.87-11s-14.74,6.88-16.45,14.6c-1.83,8.24.94,15.47,5.16,22.33,7.59,11.05,12.14,12.2,23.62,6.58,1.24-.61,3.6,1,5.44,1.65-3.93,4.87-7.8,9.77-5,16.65,3.74,9.2,7.08,18.6,11.42,27.52,4.09,8.41,11.7,12.27,21,12.79,10.29,5.93,19.31-3.09,29.62-2C129.8,185,125,179.06,121.8,167.72c5.33,5.48,10.17,11.41,15.23,17.14,29.86,33.87,71.52,18.93,88.32-6.16,21.55-32.17,24.21-67.69,19-104.43-2.17-15.46-12.6-21.36-28.2-18.31-.43-6.33,3.37-8.65,15.44-9.58l-5.84-6.89c-5.88-8.39-12.43-16-22.58-19.39C163.52.48,135.63,10.19,106.13,42.44a14.34,14.34,0,0,0-3.37,8.66C102.63,57,103.59,62.83,104.1,68.69Zm148.53,33.89c-1.46,27.34-5,52.26-17.56,75.16-1.25,2.27.26,7.56,2.3,9.83a122.18,122.18,0,0,0,16.85,15.18c8.16,6.21,9.47,13.77,6.43,23-3.3,10-6.18,20.14-9.41,30.17-3.3,10.27-6.8,20.48-10.31,31,8.7-2.92,16.46-5.23,24-8.19,2.92-1.16,6.26-3.22,7.69-5.82,17.87-32.6,22.89-67.23,14.9-103.53C282.05,144.63,271,122.67,252.63,102.58Zm-99.4,165.28,1.84,3.11,38.63,17c.53-.58,1.07-1.15,1.61-1.72-6.39-12.79-12.77-25.58-20.18-40.43Zm54,14.7,1.29.57c5.75-9.33,11.66-18.58,17.15-28.07,1.12-1.95,1.71-6.34.79-6.95a28.72,28.72,0,0,0-11.39-4.53c-1.2-.18-4.08,3.82-4.4,6.16C209.18,260.63,208.32,271.61,207.23,282.56Zm-1.47,104.35c12.52.55,13.52-.25,12.17-11.09-.88-7.08-2.49-14.07-3.84-21.44l-8.33,1.16ZM133.33,212.6l-20.83-3.13-1.08,2.41,20.24,9.57C132.46,217.18,132.89,214.94,133.33,212.6Zm63.92-2.46-23.6,2.48C183.94,219,189.32,218.63,197.25,210.14Zm-12.31,24.23,2.88.66c1.28-2.92,3.38-5.82,3.45-8.76,0-1.22-4.3-2.54-6.64-3.82l-1.71,1.82Q183.93,229.33,184.94,234.37Z"
        />
        <path class="jenkins-2" d="M151.21,416.65h0Z" />
        <path class="jenkins-3" d="M182.1,416.65l3.36-1.39a8.06,8.06,0,0,0-.11,1.39Z" />
        <path class="jenkins-4" d="M185.35,416.65a8.06,8.06,0,0,1,.11-1.39l3.14,1.39Z" />
        <path
          class="jenkins-5"
          d="M216.19,56c15.6-3.05,26,2.85,28.2,18.31,5.17,36.74,2.51,72.26-19,104.43-16.8,25.09-58.46,40-88.32,6.16-5.06-5.73-9.9-11.66-15.23-17.14,3.18,11.34,8,17.29,28.14,35.57-10.31-1.06-19.33,8-29.62,2-3.28-3.86-6.75-7.57-9.81-11.6-9.58-12.63-11.63-27.87-14.66-42.77-.21-1-1.93-1.74-2.94-2.59-1.84-.61-4.2-2.26-5.44-1.65-11.48,5.62-16,4.47-23.62-6.58l2.82-24.29,3.88.75c.29,5.92.56,11.36.82,16.8h2.11a65.82,65.82,0,0,1,.88-7.72c.53-2.35,1.62-4.56,3.14-8.67l8.14,10.36L88,126.05,81.3,112.61,88,114.17c1.46,5.48,4.39,7.67,10.39,5.89s5.61-5.73,4.18-10.08c-4.62-14-2.4-27.65,1.52-41.29,5.5-8.49,10-17.92,16.7-25.29C141,21.25,168,19.31,195.74,20.38c2.48.1,5-.18,7.47-.28,10.15,3.41,16.7,11,22.58,19.39-9.21,1.65-14.19,7.46-12.62,15C213.32,55.16,215.15,55.48,216.19,56Zm18.13,33.57c3.42,4.74,1.72,6.62-3.63,6.9a74.14,74.14,0,0,0-8.52,1.42c4.56,9.29,13.69,8.43,21.58-1.37-3.16-4.93-6.43-10-9.71-15.16-6.75-.64-9.72,2.41-10.65,12.88Zm-63.51,5.16c4.19,4.47,1.27,6.09-2.9,6.22s-8.38-.69-12.6-1.09c-.21,7,3.43,9.47,12.34,9.08,7.36-.33,12.62-4.27,12.09-9.16a6.56,6.56,0,0,0-1.11-3c-3.69-5.17-7.48-10.27-11.24-15.4-2.51.31-5.64-.19-7.37,1.13-2.39,1.85-5.48,5.43-5,7.6.5,2.44,4.33,5,7.22,5.91C164.71,96.76,167.92,95.21,170.81,94.69ZM146.38,50.52l8.05-2.77c-9-3.76-14.9-1.15-20.32,4.63-4.86,5.18-9.77,10.13-5.54,18l2.86,5.87c5.51-13.12,13.8-20.07,28.09-17.28C158.27,49.36,152.23,50.1,146.38,50.52Zm42,85.32c-.67,3.24-2.28,6.67-1.66,9.65.37,1.79,4.15,4,6.49,4.08,12.66.66,23.91-4.07,33.83-11.34,4.62-3.38,7.21-9.53,3.19-14.9-10-13.35-20.65-26.21-31.26-39.54.91,3.87.94,8.7,3.1,12.22,5.88,9.61,12.49,18.79,19.15,27.89,3.14,4.29,4.86,9.3-.1,11.78-7.81,3.9-16.47,6.33-25,8.34-1.84.43-4.71-3.53-7.1-5.48.64-.48,1.51-.83,1.9-1.47,1.81-3,3.49-6.06,5.22-9.1l-3.31-1.78Zm24.16,38.48c-19.49-1.58-38.51,3.11-51.4-14.51,5.68,9.79,10,20.57,23,21.29C193.39,181.62,203.05,182.75,212.51,174.32ZM204.83,156l-39.17-3.75c11.64,11.88,25.42,13,40.44,12.46C205.55,160.9,205.16,158.27,204.83,156Zm5.6,8.59c11.23-1.3,18.64-7.4,24.74-19-7.47,3.08-12.84,6.32-18.63,7.43C209,154.45,208.16,158.1,210.43,164.57Zm-51.58-9.48-.72-2.14c-2.54.75-6.93,1.05-7.26,2.36-.79,3.15.32,6.78.67,10.22l1.91.28Z"
        />
        <path
          class="jenkins-6"
          d="M102.39,211.79c7.48,4.28,14.68,9.18,22.52,12.64,6.17,2.73,9.07,6.68,10.13,13,.83,5,1.86,10.25,4.14,14.7s6.28,8.2,10.41,13.36c-3.36,8.6-2.92,9.83,7.45,15,7.37,3.68,14.77,7.3,22.58,11.15l-62.63,6c3.91-10.45,2.36-32.09-2.48-35.62-.69,3.27-1.39,6.58-2.1,9.88q-.34-6.89-.7-13.79l-3.06.06v37.19L96,290.33c1.26,3.31,2.17,5.67,2.88,7.56l-7.58,7.82c1.38,1.62,2.51,4.25,4.18,4.66,4.87,1.18,10,1.48,14.94,2.13l6,47C97.08,358,81,349.37,65,340.31c7.39-15.18,2.38-30.88.85-46.05-1.9-18.91-6.87-37.5-10-56.32-.4-2.34,1.53-6.63,3.53-7.56C73.52,223.82,88,217.91,102.39,211.79Z"
        />
        <path
          class="jenkins-7"
          d="M50.33,115.86c2.1,9.4,2.83,19.45,6.79,28,2.79,6,9.4,10.94,15.42,14.44,4.26,2.48,6.21,4.73,7.29,9.33a48.61,48.61,0,0,0,5.76,13.29c3.53,6,2.23,9.74-3.72,13.17-14.53,8.37-28.72,17.33-43.25,25.7-6.38,3.68-8.64,8.08-6.24,15.37q9,27.28,17.15,54.83c1.1,3.67.78,7.75.24,11.87C26.3,278,13.34,249.52,10,216.52c1.53-8.92,2.9-17.89,4.64-26.77C20.09,162,30.82,136.81,50.33,115.86Z"
        />
        <path
          class="jenkins-7"
          d="M252.63,102.58c18.35,20.09,29.42,42.05,34.85,66.77,8,36.3,3,70.93-14.9,103.53-1.43,2.6-4.77,4.66-7.69,5.82-7.5,3-15.26,5.27-24,8.19,3.51-10.5,7-20.71,10.31-31,3.23-10,6.11-20.17,9.41-30.17,3-9.22,1.73-16.78-6.43-23a122.18,122.18,0,0,1-16.85-15.18c-2-2.27-3.55-7.56-2.3-9.83C247.65,154.84,251.17,129.92,252.63,102.58Z"
        />
        <path
          class="jenkins-8"
          d="M102.39,211.79c-14.39,6.12-28.87,12-43,18.59-2,.93-3.93,5.22-3.53,7.56,3.15,18.82,8.12,37.41,10,56.32,1.53,15.17,6.54,30.87-.85,46.05-1.07-2.52-2.94-5-3.1-7.57-2.11-33.26-6.59-66-19.52-97.09-.75-1.82.55-6,2.21-7.08C57,220,69.84,212,82.47,203.75c6.8-4.46,12.44-4.42,16.63,3.48A38.66,38.66,0,0,0,102.39,211.79Z"
        />
        <path
          class="jenkins-9"
          d="M253.54,223.1c-6.44,20.52-12.48,41.18-19.72,61.42-1.16,3.25-7.45,5.39-11.77,6.59-4,1.1-8.52.23-13.72.23,7.46-12.61,15.1-25.1,22.17-37.9,1.32-2.38.55-6.05.36-9.09-.13-2.08-1.33-4.1-1.38-6.16-.23-10.4-.25-20.8-.35-31.21Z"
        />
        <path
          class="jenkins-10"
          d="M242.25,297.94c8.82-3.81,17.41-8.5,26.6-11,3.24-.88,9,2.76,11.68,6s2.9,8.45,4.2,12.81c-.06,1.33-.18,2.67-.18,4-.08,15.27-2.36,17.58-17.3,17.51-5.12,0-10.3.4-15.32-.29-2.27-.32-5.69-2.56-6.09-4.46C244.14,314.43,243.36,306.15,242.25,297.94Z"
        />
        <path
          class="jenkins-11"
          d="M203.21,20.1c-2.49.1-5,.38-7.47.28-27.7-1.07-54.7.87-74.94,23-6.73,7.37-11.2,16.8-16.7,25.29-.51-5.86-1.47-11.74-1.34-17.59a14.34,14.34,0,0,1,3.37-8.66C135.63,10.19,163.52.48,203.21,20.1Z"
        />
        <path
          class="jenkins-12"
          d="M97.63,55.78c-.08,7.17-.26,14.34-.22,21.51,0,9.6.27,19.2.41,28.8a13.53,13.53,0,0,1-1.06,6.3c-3.38-8.93-8.2-15.49-18.05-16.68-.8-.09-1.56-.51-2.36-.54-3.56-.16-8.78,1.12-10.27-.69-1.94-2.36-.92-7.16-1.17-10.91C70.32,67.84,81.14,58.48,97.63,55.78Z"
        />
        <path
          class="jenkins-7"
          d="M170.72,228.05l8.22,5.65c-.35,1-.48,4.36-2.19,5.65-6.43,4.84-13,9.77-20.23,13.22-10.24,4.91-11.13,4.07-14.73-6.8,0-5.23.51-10.5-.08-15.66-.82-7.13,1.23-9.66,8.31-10.3C158.49,219,165.72,220.5,170.72,228.05Z"
        />
        <path
          class="jenkins-13"
          d="M174,407c5.35-2.44,11.08-4.32,15.91-7.54,2.52-1.69,5-5.8,4.89-8.69-1.2-27.19-2.94-54.36-4.63-81.53a54.6,54.6,0,0,0-1.58-7.79l8,1.42c2.09,33.63,4.14,66.7,6.31,101.69Z"
        />
        <path
          class="jenkins-14"
          d="M50.33,115.86c-19.51,21-30.24,46.15-35.66,73.89-1.74,8.88-3.11,17.85-4.64,26.77C5.89,169.44,20.66,129.28,53.74,95.84l2.45.66Z"
        />
        <path
          class="jenkins-15"
          d="M153.23,267.86l21.9-22c7.41,14.85,13.79,27.64,20.18,40.43-.54.57-1.08,1.14-1.61,1.72l-38.63-17Z"
        />
        <path
          class="jenkins-16"
          d="M242.25,297.94c1.11,8.21,1.89,16.49,3.59,24.57.4,1.9,3.82,4.14,6.09,4.46,5,.69,10.2.26,15.32.29,14.94.07,17.22-2.24,17.3-17.51,0-1.34.12-2.68.18-4,.69,2.29,1.51,4.56,2,6.89,5.12,22.23-5.5,33-30,28.37l14.65-4.31-.23-1.12H244.5c-1.8-11.16-3.69-22-5.14-32.83C239.17,301.29,241.23,299.55,242.25,297.94Z"
        />
        <path
          class="jenkins-17"
          d="M92.91,148.36c1,.85,2.73,1.57,2.94,2.59,3,14.9,5.08,30.14,14.66,42.77,3.06,4,6.53,7.74,9.81,11.6-9.28-.52-16.89-4.38-21-12.79C95,183.61,91.66,174.21,87.92,165,85.11,158.13,89,153.23,92.91,148.36Z"
        />
        <path
          class="jenkins-18"
          d="M214.87,307.48c1.46,12.19,2.92,24.37,4.49,37.43l-16.14,3.74v-35C209.66,314.41,214.35,314.45,214.87,307.48Z"
        />
        <path
          class="jenkins-19"
          d="M222.74,211.82c3.31,8.67,5,17.39,1,27.1l-25.95-3.27,2.24-8.74c.7,1.08,1.4,2.16,2.11,3.24,2.35-1.58,6.75-3.19,6.73-4.75-.08-8.91,5.12-10.75,12.35-11C221.77,214.4,222.24,212.72,222.74,211.82Z"
        />
        <path
          class="jenkins-20"
          d="M207.23,282.56c1.09-10.95,2-21.93,3.44-32.82.32-2.34,3.2-6.34,4.4-6.16a28.72,28.72,0,0,1,11.39,4.53c.92.61.33,5-.79,6.95-5.49,9.49-11.4,18.74-17.15,28.07Z"
        />
        <path
          class="jenkins-21"
          d="M205.76,386.91V355.54l8.33-1.16c1.35,7.37,3,14.36,3.84,21.44C219.28,386.66,218.28,387.46,205.76,386.91Z"
        />
        <path
          class="jenkins-22"
          d="M170.72,228.05c-5-7.55-12.23-9-20.7-8.24-7.08.64-9.13,3.17-8.31,10.3.59,5.16.09,10.43.08,15.66-1.18-9-3.09-17.92-3.32-26.92-.18-7.14,3.84-9.59,10.71-7.17a152.1,152.1,0,0,1,29.5,13.81Z"
        />
        <path
          class="jenkins-23"
          d="M205.11,264.29q-1,7.86-2.05,15.71c-4.43-8.88-9-17.72-13.23-26.68-2.59-5.42.26-9,5.39-8.69,4.86.26,10.32,1.88,9.65,9.2C204.56,257.28,205,260.8,205.11,264.29Z"
        />
        <path
          class="jenkins-24"
          d="M88,114.17l-6.71-1.56c-5.67-2.52-11.13-4.1-14.63,3.23l-2.82,24.29c-4.22-6.86-7-14.09-5.16-22.33,1.71-7.72,9.26-14.65,16.45-14.6S86.73,107,88,114.17Z"
        />
        <path
          class="jenkins-25"
          d="M253.54,223.1,229.13,207c-2.87-2.69-5.73-5.38-9.84-9.22,1.91-1.93,4.21-4.23,6.78-6.81,9.3,8.42,17.64,15.52,25.32,23.26C253.23,216.06,252.89,220.08,253.54,223.1Z"
        />
        <path
          class="jenkins-26"
          d="M227.77,332.05q-2.43-15.49-4.85-30.95c6.06-2.55,9.83-1,10.94,4.7,1.49,7.62,2.36,15.36,3.49,23Z"
        />
        <path
          class="jenkins-27"
          d="M205.11,264.29c-.1-3.49-.55-7-.24-10.46.67-7.32-4.79-8.94-9.65-9.2-5.13-.27-8,3.27-5.39,8.69,4.27,9,8.8,17.8,13.23,26.68-.11,1.29-.21,2.57-.31,3.86l-1.39.48c-6.78-13.63-13.56-27.27-20.61-41.42,8.51-6.94,16.93-4.64,26,2.24C206.27,251,205.69,257.64,205.11,264.29Z"
        />
        <path
          class="jenkins-28"
          d="M87.83,46l-9.42,2.9c6.17-14.12,31-30.45,46.59-30l-11.17,7.61C102.83,29.86,94.58,36.91,87.83,46Z"
        />
        <path
          class="jenkins-29"
          d="M222.74,211.82c-.5.9-1,2.58-1.5,2.59-7.23.24-12.43,2.08-12.35,11,0,1.56-4.38,3.17-6.73,4.75-.71-1.08-1.41-2.16-2.11-3.24.12-.86.59-2.35.32-2.5-5-2.78-4.69-5.25.13-7.88,4.27-2.32,8.2-5.63,12.73-6.95C216,208.79,219.54,211,222.74,211.82Z"
        />
        <path
          class="jenkins-30"
          d="M97.63,55.78c-16.49,2.7-27.31,12.06-32.72,27.79.72-5.2,0-11.19,2.43-15.47,5.41-9.68,14.76-14.61,25.77-15.74C94.49,52.22,96.12,54.58,97.63,55.78Z"
        />
        <path
          class="jenkins-31"
          d="M112.41,272c.71-3.3,1.41-6.61,2.1-9.88,4.84,3.53,6.39,25.17,2.48,35.62-1.6-2.21-4.36-4.32-4.58-6.65C111.83,284.77,112.34,278.36,112.41,272Z"
        />
        <path
          class="jenkins-32"
          d="M87.83,46c6.75-9.07,15-16.12,26-19.53-2.28,2.93-5,5.62-6.74,8.84C102.89,43.12,97.2,47.72,87.83,46Z"
        />
        <path
          class="jenkins-33"
          d="M214.87,307.48c-.52,7-5.21,6.93-11.65,6.21V302.81C208.19,301.65,214.36,297.51,214.87,307.48Z"
        />
        <path
          class="jenkins-34"
          d="M216.19,56c-1-.48-2.87-.8-3-1.48-1.57-7.53,3.41-13.34,12.62-15l5.84,6.89C219.56,47.31,215.76,49.63,216.19,56Z"
        />
        <path class="jenkins-35" d="M133.33,212.6c-.44,2.34-.87,4.58-1.67,8.85l-20.24-9.57,1.08-2.41Z" />
        <path
          class="jenkins-36"
          d="M110.41,312.5c-5-.65-10.07-.95-14.94-2.13-1.67-.41-2.8-3-4.18-4.66,4.31,0,8.62.27,12.92.08C109.13,305.57,111.26,307.57,110.41,312.5Z"
        />
        <path class="jenkins-37" d="M197.25,210.14c-7.93,8.49-13.31,8.89-23.6,2.48Z" />
        <path
          class="jenkins-38"
          d="M184.94,234.37q-1-5-2-10.1l1.71-1.82c2.34,1.28,6.67,2.6,6.64,3.82-.07,2.94-2.17,5.84-3.45,8.76Z"
        />
        <path
          class="jenkins-39"
          d="M227.77,332.05l9.58-3.21c2,7.2-.71,10.48-9.14,9.71C228.07,336.45,227.92,334.25,227.77,332.05Z"
        />
        <path
          class="jenkins-40"
          d="M189,138.54c2.39,2,5.26,5.91,7.1,5.48,8.55-2,17.21-4.44,25-8.34,5-2.48,3.24-7.49.1-11.78C214.53,114.8,207.92,105.62,202,96c-2.16-3.52-2.19-8.35-3.1-12.22,10.61,13.33,21.27,26.19,31.26,39.54,4,5.37,1.43,11.52-3.19,14.9-9.92,7.27-21.17,12-33.83,11.34-2.34-.12-6.12-2.29-6.49-4.08-.62-3,1-6.41,1.66-9.65C188.56,136.74,188.76,137.64,189,138.54Z"
        />
        <path
          class="jenkins-41"
          d="M212.51,174.32c-9.46,8.43-19.12,7.3-28.43,6.78-13-.72-17.29-11.5-23-21.29C174,177.43,193,172.74,212.51,174.32Z"
        />
        <path class="jenkins-42" d="M204.83,156c.33,2.29.72,4.92,1.27,8.71-15,.54-28.8-.58-40.44-12.46Z" />
        <path
          class="jenkins-43"
          d="M146.38,50.52c5.85-.42,11.89-1.16,13.14,8.46-14.29-2.79-22.58,4.16-28.09,17.28l-2.86-5.87C131.44,61,137.59,54.59,146.38,50.52Z"
        />
        <path
          class="jenkins-44"
          d="M167.39,81.36c3.76,5.13,7.55,10.23,11.24,15.4a6.56,6.56,0,0,1,1.11,3c.53,4.89-4.73,8.83-12.09,9.16-8.91.39-12.55-2.11-12.34-9.08,4.22.4,8.42,1.21,12.6,1.09s7.09-1.75,2.9-6.22Z"
        />
        <path
          class="jenkins-45"
          d="M210.43,164.57c-2.27-6.47-1.39-10.12,6.11-11.55,5.79-1.11,11.16-4.35,18.63-7.43C229.07,157.17,221.66,163.27,210.43,164.57Z"
        />
        <path
          class="jenkins-46"
          d="M234,81.32c3.28,5.11,6.55,10.23,9.71,15.16-7.89,9.8-17,10.66-21.58,1.37a74.14,74.14,0,0,1,8.52-1.42c5.35-.28,7.05-2.16,3.63-6.9C234.23,86.79,234.13,84.05,234,81.32Z"
        />
        <path
          class="jenkins-47"
          d="M66.67,115.84c3.5-7.33,9-5.75,14.63-3.23L88,126.05l-2.32,1.32L77.5,117c-1.52,4.11-2.61,6.32-3.14,8.67a65.82,65.82,0,0,0-.88,7.72H71.37c-.26-5.44-.53-10.88-.82-16.8Z"
        />
        <path
          class="jenkins-48"
          d="M167.39,81.36l3.42,13.33c-2.89.52-6.1,2.07-8.6,1.31-2.89-.88-6.72-3.47-7.22-5.91-.45-2.17,2.64-5.75,5-7.6C161.75,81.17,164.88,81.67,167.39,81.36Z"
        />
        <path
          class="jenkins-49"
          d="M146.38,50.52c-8.79,4.07-14.94,10.5-17.81,19.87-4.23-7.88.68-12.83,5.54-18,5.42-5.78,11.37-8.39,20.32-4.63Z"
        />
        <path
          class="jenkins-50"
          d="M234,81.32c.09,2.73.19,5.47.28,8.21L223.39,94.2C224.32,83.73,227.29,80.68,234,81.32Z"
        />
        <path
          class="jenkins-51"
          d="M158.85,155.09l-5.4,10.72-1.91-.28c-.35-3.44-1.46-7.07-.67-10.22.33-1.31,4.72-1.61,7.26-2.36Z"
        />
        <path
          class="jenkins-52"
          d="M189,138.54c-.21-.9-.41-1.8-.62-2.7l4.43-9.65,3.31,1.78c-1.73,3-3.41,6.11-5.22,9.1C190.48,137.71,189.61,138.06,189,138.54Z"
        />
      </g>
    </g>
  </g>
</svg>
