<svg xmlns="http://www.w3.org/2000/svg" viewBox="0 0 300 668.51">
  <defs>
    <style>
      .mongo-1 {
        fill: #206500;
      }
      .mongo-2 {
        fill: #267200;
      }
      .mongo-3 {
        fill: #226d01;
      }
      .mongo-4 {
        fill: #1c5c00;
      }
      .mongo-5 {
        fill: #2f7900;
      }
      .mongo-6 {
        fill: #3e4102;
      }
      .mongo-7 {
        fill: #4a4705;
      }
      .mongo-8 {
        fill: #5d5910;
      }
      .mongo-9 {
        fill: #888231;
      }
    </style>
  </defs>
  <title>Mongo</title>
  <g id="Layer_2" data-name="Layer 2">
    <g id="Layer_1-2" data-name="Layer 1">
      <g id="Mongo">
        <path
          class="mongo-1"
          d="M299.18,296.85c.25,2.43.49,4.87.73,7.3-.42.76-1.2,1.52-1.2,2.27,0,4.8.29,9.6.37,14.4.07,4.08,0,8.17,0,12.25,0,4.29.1,8.58,0,12.86-.08,2.8-.43,5.59-.76,8.37-.4,3.37-.89,6.72-1.34,10.08l-1.73-.08a50.78,50.78,0,0,1-.22-5.36c.13-2,.7-3.92.87-5.9.49-5.63.65-11.29,1.38-16.89.36-2.76.1-4.13-3-3.91a50.54,50.54,0,0,1-6,0c-2.95-.13-5.49.14-7,3.35-.42.89-2.45,1.41-3.75,1.43-7.77.13-15.55-.13-23.3.2-1.89.08-3.69,1.87-5.56,2.83-1.32.66-2.66,1.71-4,1.77-4.94.22-9.92-.13-14.86.2a7.89,7.89,0,0,0-4.9,2.52c-2.45,2.84-3.42,3.07-5.57-.14-1.51-2.26-2.5-2.13-4.22-.09a7.09,7.09,0,0,1-4.46,2.31c-4.67.3-9.38-.09-14.05.22-1.61.11-3.13,1.49-4.68,2.31s-3,2.22-4.51,2.29c-5.88.28-11.78.1-17.68.12-5.26,0-5.45.3-5.58,5.37a71.05,71.05,0,0,1-.85,11.12c-.36,1.91-2.67,3.48-2.93,5.37a186.68,186.68,0,0,0-1.72,19.47c-.17,5.25.38,10.52.72,15.78.75,11.79-.79,23.42-2.5,35-.1.7-1,1.28-1.53,1.92.26-5.31.61-10.62.77-15.94.33-10.92.81-21.85.77-32.78-.06-17.74-.48-35.49-.74-53.23q-.42-29.82-.81-59.65-.39-63.66-.82-127.31c-.13-17.65-.5-35.3-.78-52.95-.25-15.51-.49-31-.82-46.53-.16-7.07-.42-14.14-.84-21.19-.34-5.57-1.16-11.12-1.48-16.69-.23-4.22,0-8.47,0-12.71,5.94,11,11.22,22.52,18.05,33,5.12,7.86,11.88,14.77,18.51,21.52,27.28,27.76,50.4,58.52,68.43,93.06A426,426,0,0,1,291,247.63c3.12,12.38,5,25.08,7.35,37.65a18.05,18.05,0,0,1,0,3.6q-.25,5.92-.52,11.84l1.18.06C299.05,299.47,299.12,298.16,299.18,296.85Z"
        />
        <path
          class="mongo-2"
          d="M155.21,284q.4,29.82.81,59.65c.26,17.74.68,35.49.74,53.23,0,10.93-.44,21.86-.77,32.78-.16,5.32-.51,10.63-.77,15.94-.27,2.5-.65,5-.77,7.48q-1.27,25.2-2.46,50.4c-.53.88-1.44,1.72-1.52,2.64-.22,2.33-.07,4.69-.06,7.05,0,1.33,0,2.65,0,4-2.8.2-2.27-1.81-2.44-3.51-.3-3.11-.76-6.21-1.15-9.31l-1.22,0c-.26.54-.79,1.09-.74,1.6.48,5,.95,10,1.75,15,.13.75,2,1.22,3,1.82,0,2.15-.07,4.29-.1,6.43-2.08.22-3.34-.34-3.21-2.81a5.06,5.06,0,0,0-.93-3c-.44-.64-1.46-.88-2.22-1.29a21.32,21.32,0,0,0-1.08,2.51,7.43,7.43,0,0,0,0,1.9c-3,.45-3.51-1-2.33-2.91,1.42-2.32,1.27-4.08-.48-6.14-.9-1-1.16-2.64-1.65-4-2-5.47-2.11-11.7-6.9-16-.59-.54,0-2.46.15-3.74.1-1.06.63-2.93.37-3-3.25-1.41-2.64-4.49-3.48-7-1.42-4.28-2.75-8.77-5.21-12.46-1.69-2.54-2.27-4.11-.68-6.68.42-.68-.15-2.2-.62-3.17-.84-1.77-2.09-3.35-2.91-5.13-.92-2-1.45-4.22-2.34-6.27-1.57-3.59-4.84-7.27-4.53-10.65.37-3.95.7-7-2.39-9.7-.26-.23-.26-.74-.38-1.12-1.32-4.43-2.61-8.87-4-13.28a3.31,3.31,0,0,0-1.33-1.85c-2.18-1.15-2.27-2.42-1.15-4.55a6,6,0,0,0,0-4.41c-1.88-4.66-5.17-9-5.84-13.81-.64-4.57-7-7.8-3.08-13.27.22-.31-.32-1.22-.6-1.81-1.18-2.51-2.07-5.23-3.66-7.44-2.92-4.05-1.68-10.1-6.55-13.19-.34-.22.42-1.9.39-2.88a26.26,26.26,0,0,0-.57-5.4c-.35-1.38-1.52-2.54-1.87-3.92-1.93-7.6-7.59-14.12-6.56-22.58,0-.32-.44-.66-.58-1-.83-2.2-1.54-4.44-2.46-6.59-2-4.83-4.26-9.6-6.26-14.45a4.93,4.93,0,0,1-.28-3.57c1.08-2.11,1.58-3.61-1.05-4.9-.72-.36-1-1.66-1.4-2.58-1.32-3.13-2.55-6.3-3.87-9.43s-2.62-5.91-3.85-8.9a2.4,2.4,0,0,1,0-1.95c2.56-3,.6-5.71-.56-8.42-2.27-5.32-3.9-11.12-7.16-15.76-2.6-3.72-2.77-7.25-2.89-11.21a13.25,13.25,0,0,0-.73-3.84c-1.85-5.39-3.89-10.72-5.68-16.13-1.24-3.8-2.15-7.71-3.28-11.54C33,197.13,31,197.35,29,198c-2.57.84-1.2,2.2-.76,3.75s.09,3.13.09,4.71c-5.67-9.1-3.65-23.71,2-27.13.64-2.34,1.08-4,1.57-5.7.91-3.14,1.84-6.26,2.77-9.39.74-1.23,1.57-2.41,2.22-3.68,2.24-4.4,4.41-8.83,6.61-13.25l1.26.36c-.15-.66-.3-1.31-.44-2,2.72-5.28,5.42-10.57,8.17-15.83,2.32-4.43,4.69-8.84,7-13.25L81.85,83.75c1.74,1.76,2,3.51.32,5.57s-3,4.85-5,6.7c-2.55,2.36-1.1,3.71.36,5.62l6.91-12.16c.23,3.06,0,4.84.53,6.35,1.79,5,4.06,9.93,5.77,15,2.44,7.21,4.49,14.54,6.8,21.78,3,9.34,6.11,18.63,9.1,28,2,6.15,3.71,12.38,5.75,18.51,2.13,6.38,4.58,12.65,6.7,19,1.08,3.25,1.53,6.72,2.66,10,2.16,6.18,4.69,12.23,6.87,18.4,1.19,3.36,1.78,6.93,3,10.29,2,5.68,4.57,11.2,6.52,16.91,2.57,7.51,4.74,15.16,7.16,22.72,1,3.27,2.33,6.45,3.42,9.69.72,2.16,1.29,4.36,1.93,6.54l1.07-.08a30.81,30.81,0,0,1,1.11-4.85A21.37,21.37,0,0,1,155.21,284Z"
        />
        <path
          class="mongo-3"
          d="M34.61,164.27c-.93,3.13-1.86,6.25-2.77,9.39-.49,1.67-.93,3.36-1.57,5.7-5.64,3.42-7.66,18-2,27.13,0-1.58.33-3.25-.09-4.71s-1.81-2.91.76-3.75c2.08-.68,4-.9,4.79,1.76,1.13,3.83,2,7.74,3.28,11.54,1.79,5.41,3.83,10.74,5.68,16.13a13.25,13.25,0,0,1,.73,3.84c.12,4,.29,7.49,2.89,11.21,3.26,4.64,4.89,10.44,7.16,15.76,1.16,2.71,3.12,5.39.56,8.42a2.4,2.4,0,0,0,0,1.95c1.23,3,2.59,5.92,3.85,8.9s2.55,6.3,3.87,9.43c.38.92.68,2.22,1.4,2.58,2.63,1.29,2.13,2.79,1.05,4.9a4.93,4.93,0,0,0,.28,3.57c2,4.85,4.21,9.62,6.26,14.45.92,2.15,1.63,4.39,2.46,6.59.14.37.61.71.58,1-1,8.46,4.63,15,6.56,22.58.35,1.38,1.52,2.54,1.87,3.92a26.26,26.26,0,0,1,.57,5.4c0,1-.73,2.66-.39,2.88C87.29,358,86.05,364,89,368.06c1.59,2.21,2.48,4.93,3.66,7.44.28.59.82,1.5.6,1.81-3.89,5.47,2.44,8.7,3.08,13.27.67,4.77,4,9.15,5.84,13.81a6,6,0,0,1,0,4.41c-1.12,2.13-1,3.4,1.15,4.55a3.31,3.31,0,0,1,1.33,1.85c1.39,4.41,2.68,8.85,4,13.28.12.38.12.89.38,1.12,3.09,2.74,2.76,5.75,2.39,9.7-.31,3.38,3,7.06,4.53,10.65.89,2.05,1.42,4.25,2.34,6.27.82,1.78,2.07,3.36,2.91,5.13.47,1,1,2.49.62,3.17-1.59,2.57-1,4.14.68,6.68,2.46,3.69,3.79,8.18,5.21,12.46.84,2.54.23,5.62,3.48,7,.26.11-.27,2-.37,3-.12,1.28-.74,3.2-.15,3.74,4.79,4.34,4.94,10.57,6.9,16,.49,1.37.75,3,1.65,4,1.75,2.06,1.9,3.82.48,6.14-1.18,1.91-.71,3.36,2.33,2.91a7.43,7.43,0,0,1,0-1.9,21.32,21.32,0,0,1,1.08-2.51c.76.41,1.78.65,2.22,1.29a5.06,5.06,0,0,1,.93,3c-.13,2.47,1.13,3,3.21,2.81-.49,1.09-1,2.19-1.48,3.29-2.43-1.22-2.93.61-3.2,2.24-.39,2.31.78,3.47,3.16,3.31-.9,7.66-1.47,15.36-2.79,22.94-1.27,7.3-3.19,14.5-5.14,21.66-.34,1.24-2.27,2-3.46,3.05l-6.22-5.64a24.93,24.93,0,0,0-3.09-4q-5.51-4.77-11.31-9.2c-2.28-1.74-4.79-3.15-7.2-4.71-8.19-8.37-16.72-16.45-24.51-25.19a344.35,344.35,0,0,1-56.9-87A303,303,0,0,1,3.88,371.88a294.06,294.06,0,0,1-3-69.55c2.81-35.83,8.87-71,20.39-105.16C25,186,29.7,175.23,34,164.28ZM23.05,200c-2.88,3.54-2.64,5.21,1,6.29C23.7,204.16,23.38,202.14,23.05,200ZM144,539.56l-1.46.72,2.87,4.11,1.07-.67ZM128.08,574c.1-.22.31-.49.25-.66s-.41-.2-.63-.3c-.09.22-.31.5-.25.66S127.86,573.87,128.08,574Z"
        />
        <path
          class="mongo-4"
          d="M152,503.51q1.22-25.2,2.46-50.4c.12-2.5.5-5,.77-7.48.53-.64,1.43-1.22,1.53-1.92,1.71-11.61,3.25-23.24,2.5-35-.34-5.26-.89-10.53-.72-15.78a186.68,186.68,0,0,1,1.72-19.47c.26-1.89,2.57-3.46,2.93-5.37a71.05,71.05,0,0,0,.85-11.12c.13-5.07.32-5.36,5.58-5.37,5.9,0,11.8.16,17.68-.12,1.54-.07,3-1.5,4.51-2.29s3.07-2.2,4.68-2.31c4.67-.31,9.38.08,14.05-.22a7.09,7.09,0,0,0,4.46-2.31c1.72-2,2.71-2.17,4.22.09,2.15,3.21,3.12,3,5.57.14a7.89,7.89,0,0,1,4.9-2.52c4.94-.33,9.92,0,14.86-.2,1.37-.06,2.71-1.11,4-1.77,1.87-1,3.67-2.75,5.56-2.83,7.75-.33,15.53-.07,23.3-.2,1.3,0,3.33-.54,3.75-1.43,1.54-3.21,4.08-3.48,7-3.35a50.54,50.54,0,0,0,6,0c3.12-.22,3.38,1.15,3,3.91-.73,5.6-.89,11.26-1.38,16.89-.17,2-.74,3.92-.87,5.9a50.78,50.78,0,0,0,.22,5.36l1.73.08c.45-3.36.94-6.71,1.34-10.08.33-2.78.68-5.57.76-8.37.13-4.28,0-8.57,0-12.86,0-4.08.06-8.17,0-12.25-.08-4.8-.34-9.6-.37-14.4,0-.75.78-1.51,1.2-2.27l.09,6.18v35.06l-.26,7.82q-.3,3.57-.59,7.15c-.08.83-.16,1.66-.23,2.5-.19,1.33-.39,2.67-.58,4l-.1,1.58-.66,4.24c0,.73-.07,1.45-.1,2.18-.25,1.6-.51,3.19-.76,4.79-.07.56-.15,1.13-.22,1.69l-.57,2.39c0,.53-.07,1.06-.1,1.6l-.72,4-.24.85-.49,2.56a.38.38,0,0,1-.12.6l-.75,3.25c-3,11.27-5.67,22.64-9.1,33.78a208.69,208.69,0,0,1-9.25,24.11c-4.71,10.44-9.65,20.82-15.25,30.8-4.92,8.78-11,16.91-16.35,25.43-12.36,19.59-27.94,36.42-44.91,52-7,6.39-14.69,12-22.07,17.93-2.42-1.32-5.23-2.24-7.18-4.07-2.42-2.25-4.13-5.27-6.15-8-1.16-3.11-2.45-6.17-3.45-9.32-4.77-15-6.48-30.51-7-46.18Zm48.69-134.24a60.3,60.3,0,0,0-7.61.1c-1.07.14-2,1.4-3,2.15.9.84,1.77,2.35,2.7,2.4,5.21.24,10.44.24,15.64,0,1,0,1.86-1.51,2.79-2.32-1-.78-1.86-2.09-2.91-2.23A62.2,62.2,0,0,0,200.68,369.27Zm61.87-3.58c2.35-1.51,5.52-2.7,5.46-3.68-.19-3.08-3.26-2.62-5.37-2.31s-3.9,1.39-5.84,2.13Zm30,25.58c1.17-3.57,1.54-7-1.92-10C287.78,385.58,293.41,387.77,292.57,391.27Zm-3.68,7.42,1.44-.29c-.25-1-.49-2.09-.81-3.11,0,0-.89.2-1.37.31C288.4,396.63,288.65,397.66,288.89,398.69Zm0-10.44c.09-.22.31-.49.25-.65s-.41-.21-.64-.3c-.09.22-.31.49-.25.65S288.65,388.16,288.88,388.25Z"
        />
        <path
          class="mongo-5"
          d="M155.21,284a21.37,21.37,0,0,0-2.34,3.66,30.81,30.81,0,0,0-1.11,4.85l-1.07.08c-.64-2.18-1.21-4.38-1.93-6.54-1.09-3.24-2.38-6.42-3.42-9.69-2.42-7.56-4.59-15.21-7.16-22.72-2-5.71-4.48-11.23-6.52-16.91-1.21-3.36-1.8-6.93-3-10.29-2.18-6.17-4.71-12.22-6.87-18.4-1.13-3.24-1.58-6.71-2.66-10-2.12-6.38-4.57-12.65-6.7-19-2-6.13-3.78-12.36-5.75-18.51-3-9.33-6.11-18.62-9.1-28-2.31-7.24-4.36-14.57-6.8-21.78-1.71-5.07-4-10-5.77-15-.53-1.51-.3-3.29-.53-6.35l-6.91,12.16c-1.46-1.91-2.91-3.26-.36-5.62,2-1.85,3.2-4.54,5-6.7s1.42-3.81-.32-5.57A310,310,0,0,1,130.32,33.8c10.53-8.63,16.76-19.61,17.55-33.8l2.61,6.65c0,4.24-.24,8.49,0,12.71.32,5.57,1.14,11.12,1.48,16.69.42,7.05.68,14.12.84,21.19.33,15.51.57,31,.82,46.53.28,17.65.65,35.3.78,53Q154.9,220.38,155.21,284Z"
        />
        <path
          class="mongo-6"
          d="M152.8,513.13c.52,15.67,2.23,31.16,7,46.18,1,3.15,2.29,6.21,3.45,9.32-1.07,3-2.24,6-3.18,9.13-1.12,3.65-1.77,7.47-3.1,11-2,5.48-4.57,10.78-6.68,16.24-.48,1.23.09,2.83-.2,4.19s-.7,3.53-1.65,3.93c-2.46,1-2.2,2.79-2,4.58.37,3.29,1.23,6.54,1.35,9.83.13,3.65-.34,7.32-.55,11-1.64-15.71-3-31.47-8.19-46.54-.73-2.13-1.64-4.2-2.46-6.3,1.19-1,3.12-1.8,3.46-3,1.95-7.16,3.87-14.36,5.14-21.66,1.32-7.58,1.89-15.28,2.79-22.94,0-1.85,0-3.7,0-5.55.49-1.1,1-2.2,1.48-3.29,0-2.14.07-4.28.1-6.43l.78-5.63c0-1.33,0-2.65,0-4Z"
        />
        <path
          class="mongo-7"
          d="M147.25,638.56c.21-3.67.68-7.34.55-11-.12-3.29-1-6.54-1.35-9.83-.21-1.79-.47-3.56,2-4.58.95-.4,1.36-2.52,1.65-3.93s-.28-3,.2-4.19c2.11-5.46,4.64-10.76,6.68-16.24,1.33-3.57,2-7.39,3.1-11,.94-3.08,2.11-6.09,3.18-9.13,2,2.68,3.73,5.7,6.15,8,1.95,1.83,4.76,2.75,7.18,4.07-7.61,9-10.29,19.66-11,31.07-.18,2.79-.54,5.57-.81,8.36-.77.8-1.85,1.47-2.25,2.43-.81,1.9-1.12,4-1.84,5.92-1.76,4.69-3.81,9.28-5.41,14-1.2,3.57-.79,8.32-3,10.75-3.13,3.37-2.39,6.71-2.63,10.26-.61-.64-1.72-1.26-1.75-1.92C147.56,653.88,147.43,646.22,147.25,638.56Z"
        />
        <path
          class="mongo-8"
          d="M149.6,663.46c.24-3.55-.5-6.89,2.63-10.26,2.25-2.43,1.84-7.18,3-10.75,1.6-4.74,3.65-9.33,5.41-14,.72-1.93,1-4,1.84-5.92.4-1,1.48-1.63,2.25-2.43q0,11.63-.08,23.26c-.74.57-1.86,1-2.15,1.72-1.64,4.29-3.09,8.65-4.58,13-.72,2.08-1.37,4.19-2.23,6.79l-1.9.16-.19-.07-2.22-.74-.18-.05-1.69-.6Z"
        />
        <path
          class="mongo-9"
          d="M153.83,665l1.9-.16c.86-2.6,1.51-4.71,2.23-6.79,1.49-4.34,2.94-8.7,4.58-13,.29-.74,1.41-1.15,2.15-1.72v25.17Z"
        />
        <path
          class="mongo-5"
          d="M34.61,164.27H34q11.89-23.06,23.82-46.07c.33-.64,1.11-1,1.68-1.55-2.35,4.41-4.72,8.82-7,13.25-2.75,5.26-5.45,10.55-8.17,15.83l-.82,1.6c-2.2,4.42-4.37,8.85-6.61,13.25C36.18,161.86,35.35,163,34.61,164.27Z"
        />
        <path
          class="mongo-2"
          d="M108.78,562.14c2.41,1.56,4.92,3,7.2,4.71q5.79,4.42,11.31,9.2a24.93,24.93,0,0,1,3.09,4c-1.14-.47-2.51-.69-3.38-1.46C120.87,573.2,114.84,567.65,108.78,562.14Z"
        />
        <path class="mongo-1" d="M300,345.39v0Z" />
        <path
          class="mongo-4"
          d="M299.18,296.85c-.06,1.31-.13,2.62-.19,3.93l-1.18-.06q.26-5.93.52-11.84a.3.3,0,0,1,.08.51c.16,1.15.32,2.3.49,3.45,0,.55,0,1.11.07,1.66s.1,1.08.16,1.61A.54.54,0,0,1,299.18,296.85Z"
        />
        <path class="mongo-1" d="M299.15,360.36q.28-3.58.59-7.15Q299.44,356.78,299.15,360.36Z" />
        <path
          class="mongo-1"
          d="M296.72,379.66c.25-1.6.51-3.19.76-4.79C297.23,376.47,297,378.06,296.72,379.66Z"
        />
        <path class="mongo-1" d="M297.58,372.69l.66-4.24Z" />
        <path
          class="mongo-1"
          d="M298.34,366.87c.19-1.34.39-2.68.58-4C298.73,364.19,298.53,365.53,298.34,366.87Z"
        />
        <path class="mongo-1" d="M295.11,389.35l.72-4Z" />
        <path class="mongo-1" d="M293.51,396.61l.75-3.25Z" />
        <path
          class="mongo-1"
          d="M298.9,292.84c-.17-1.15-.33-2.3-.49-3.45C298.57,290.54,298.73,291.69,298.9,292.84Z"
        />
        <path class="mongo-1" d="M294.38,392.76l.49-2.56Z" />
        <path class="mongo-1" d="M295.93,383.74l.57-2.39Z" />
        <path class="mongo-9" d="M151.42,664.19l2.22.74Z" />
        <path
          class="mongo-1"
          d="M299.13,296.11c-.06-.53-.11-1.07-.16-1.61C299,295,299.07,295.58,299.13,296.11Z"
        />
        <path class="mongo-9" d="M149.55,663.54l1.69.6Z" />
        <path
          class="mongo-3"
          d="M150.39,517.18l-.78,5.63c-1.05-.6-2.89-1.07-3-1.82-.8-5-1.27-10-1.75-15-.05-.51.48-1.06.74-1.6l1.22,0c.39,3.1.85,6.2,1.15,9.31C148.12,515.37,147.59,517.38,150.39,517.18Z"
        />
        <path class="mongo-1" d="M152.8,513.13l-2.39.07c0-2.36-.16-4.72.06-7.05.08-.92,1-1.76,1.52-2.64Z" />
        <path class="mongo-3" d="M43.44,147.34l.82-1.6c.14.65.29,1.3.44,2Z" />
        <path
          class="mongo-2"
          d="M148,532.53c0,1.85,0,3.7,0,5.55-2.38.16-3.55-1-3.16-3.31C145.1,533.14,145.6,531.31,148,532.53Z"
        />
        <path class="mongo-2" d="M23.05,200c.33,2.15.65,4.17,1,6.29C20.41,205.2,20.17,203.53,23.05,200Z" />
        <path class="mongo-2" d="M144,539.56l2.48,4.16-1.07.67-2.87-4.11Z" />
        <path
          class="mongo-2"
          d="M128.08,574c-.22-.1-.57-.14-.63-.3s.16-.44.25-.66c.22.1.57.15.63.3S128.18,573.75,128.08,574Z"
        />
        <path
          class="mongo-1"
          d="M200.68,369.27a62.2,62.2,0,0,1,7.61.11c1.05.14,2,1.45,2.91,2.23-.93.81-1.82,2.28-2.79,2.32-5.2.23-10.43.23-15.64,0-.93-.05-1.8-1.56-2.7-2.4,1-.75,1.93-2,3-2.15A60.3,60.3,0,0,1,200.68,369.27Z"
        />
        <path
          class="mongo-1"
          d="M262.55,365.69l-5.75-3.86c1.94-.74,3.83-1.83,5.84-2.13s5.18-.77,5.37,2.31C268.07,363,264.9,364.18,262.55,365.69Z"
        />
        <path
          class="mongo-1"
          d="M292.57,391.27c.84-3.5-4.79-5.69-1.92-10C294.11,384.29,293.74,387.7,292.57,391.27Z"
        />
        <path
          class="mongo-1"
          d="M288.89,398.69c-.24-1-.49-2.06-.74-3.09.48-.11,1.36-.35,1.37-.31.32,1,.56,2.07.81,3.11Z"
        />
        <path
          class="mongo-1"
          d="M288.87,388.25c-.22-.09-.56-.14-.63-.3s.16-.43.25-.65c.23.09.57.14.64.3S289,388,288.87,388.25Z"
        />
      </g>
    </g>
  </g>
</svg>
