<svg xmlns="http://www.w3.org/2000/svg" viewBox="0 0 300 243.18">
  <defs>
    <style>
      .newRelic-1 {
        fill: #38808c;
      }
      .newRelic-2 {
        fill: #9ad2cc;
      }
      .newRelic-3 {
        fill: #222120;
      }
    </style>
  </defs>
  <title>New Relic</title>
  <g id="Layer_2" data-name="Layer 2">
    <g id="Layer_1-2" data-name="Layer 1">
      <g id="New_Relic" data-name="New Relic">
        <path
          class="newRelic-1"
          d="M166.18,0c28.73.32,57.45,6.9,83.34,23.38,22.31,14.2,38.65,33.33,46.31,59,7.95,26.66,4.21,52.23-8.44,76.63-13,25.11-32.75,43.86-56.83,58.22a183.34,183.34,0,0,1-70.05,24.14c-30.63,4.16-60.46,1.29-89.12-10.63-24.31-10.12-44.37-25.53-58-48.48A94.06,94.06,0,0,1,.19,127.53C1.61,104,10.53,83.29,24.85,64.84c20.38-26.25,47.06-43.61,78.2-54.43C122.94,3.49,143.47.14,166.18,0ZM270,123.16A105.39,105.39,0,1,0,164.56,228.57,105.12,105.12,0,0,0,270,123.16Z"
        />
        <path
          class="newRelic-2"
          d="M270,123.16A105.39,105.39,0,1,1,164.8,17.52,105.14,105.14,0,0,1,270,123.16Zm-45-3.42a81,81,0,1,0-161.95-.07c-.1,44.93,36.49,81.07,81,81.19S225.51,164.08,225,119.74Z"
        />
        <path
          class="newRelic-3"
          d="M95.2,71.66a60.88,60.88,0,0,1,6.2.08c.66.07,1.46.94,1.8,1.63,3.87,7.92,7.66,15.87,11.48,23.81a6.5,6.5,0,0,0,.76.87V71.81h6.07V111.1c-.32.05-.56.13-.8.14-5.76.21-5.77.21-8.23-5q-5.64-11.93-11.25-23.87v28.71h-6Z"
        />
        <path
          class="newRelic-3"
          d="M90.81,122.86c5.29,0,10.55-.42,15.71.12,5.42.57,8.82,4.85,9,10,.24,6-2.52,10-8.1,11.54-.31.09-.61.2-.72.24l11.15,17.29c-2.76,0-4.91.14-7-.07-.68-.07-1.44-.94-1.88-1.62-2.78-4.33-5.42-8.76-8.26-13.05-.69-1-2-1.69-3-2.51l-.61.45V162H90.81Zm6.46,4.93v12.58c3.71-.45,7.79,1.14,10.39-2.68a6.19,6.19,0,0,0,.2-7.09C105.26,126.84,101.1,128.06,97.27,127.79Z"
        />
        <path
          class="newRelic-3"
          d="M178.18,111.32c-1.77-6.74-3.49-13.3-5.41-20.6-1.92,7.27-3.66,13.84-5.42,20.49H161.4l-7.84-28.48,6.23-.92c1.51,6.83,3,13.52,4.57,20.69.32-.93.54-1.49.7-2.07,1.46-5.45,3-10.89,4.34-16.37.36-1.44,1-1.79,2.4-1.78,4.26,0,4.26,0,5.28,4.07,1.32,5.29,2.65,10.59,4.15,16.59,1.57-7.25,3-13.79,4.43-20.47H192c-.14.65-.24,1.28-.41,1.88-2.24,8.08-4.57,16.13-6.7,24.24-.56,2.13-1.42,3.16-3.71,2.75A18,18,0,0,0,178.18,111.32Z"
        />
        <path
          class="newRelic-3"
          d="M143.67,149.37H126.44c-.14,3.24.32,6.18,3.28,7.7,3.84,2,7.42.72,10.93-1.85l2.26,3.45c-5.78,6.7-18,5.11-21.79-2.85A19.78,19.78,0,0,1,120.7,140a11.58,11.58,0,0,1,12.23-7.54c5.9.66,9.2,3.88,10.18,10.13C143.44,144.73,143.47,146.88,143.67,149.37Zm-6.81-4.8c.15-4.51-1.83-7.3-5.06-7.32-3.45,0-5.47,2.78-5.19,7.32Z"
        />
        <path
          class="newRelic-3"
          d="M150.45,98.42H133.54c-.08,3.18.33,6,3.07,7.62,4,2.27,7.68.89,11.22-1.66l2.42,3.69c-4.66,3.83-9.78,4.91-15.26,3-5.75-2-8-6.84-8.31-12.47a25.68,25.68,0,0,1,.94-8.59,11.53,11.53,0,0,1,12.62-8.35c5.76.59,9.41,4.27,10.17,10.48A54.34,54.34,0,0,1,150.45,98.42ZM144,93.71c0-4.82-2-7.5-5.36-7.33s-5.23,3.06-4.9,7.33Z"
        />
        <path
          class="newRelic-3"
          d="M195.69,135.67c-1,1.35-2,2.6-3,3.91-.76-.47-1.37-.9-2-1.25-3.32-1.81-6.66-.6-7.79,3a22.51,22.51,0,0,0-.25,12.55c.94,3.58,4.26,5,7.67,3.53a32.18,32.18,0,0,0,3.39-2.08l2.75,3.58c-7,7.15-18,4.43-20.67-5a20.51,20.51,0,0,1,.77-13.92C180,132.1,189.63,129.83,195.69,135.67Z"
        />
        <path
          class="newRelic-3"
          d="M159.14,161.69c-5.78,2.61-10.07,0-10.14-6-.1-7.9,0-15.81,0-23.71V121.32l6-1.33c.16,2.24.43,4.28.44,6.31.06,9.49,0,19,.08,28.46,0,1.53-.17,3.09,2.11,3.63C158.31,158.57,158.63,160.55,159.14,161.69Z"
        />
        <path class="newRelic-3" d="M169.29,162h-6.1v-28.4l6.1-1.11Z" />
        <path
          class="newRelic-3"
          d="M166.32,120.42a4.39,4.39,0,0,1,4.11,4.44,4.23,4.23,0,0,1-4.26,4,4.1,4.1,0,0,1-4.09-4.1A4.38,4.38,0,0,1,166.32,120.42Z"
        />
        <path
          class="newRelic-3"
          d="M206.09,158.41a4.18,4.18,0,0,1-4.21,4.28,4.24,4.24,0,0,1,0-8.48A4.14,4.14,0,0,1,206.09,158.41Zm-2.75,2.49c1.94-.09,2-1.73,1.63-2.77a4.66,4.66,0,0,0-2.5-2.8c-.91-.25-2.56.6-3.23,1.46-1.14,1.49-.64,3.16.82,4.37a2.19,2.19,0,0,0,3.35-.32Z"
        />
        <path
          class="newRelic-3"
          d="M203.41,160.84l-1.76-1.37-.57,1.23-.39,0v-4.51c1.69,0,3.68-.53,2.41,2.47-.26.61.15,1.51.24,2.28Z"
        />
      </g>
    </g>
  </g>
</svg>
