<svg xmlns="http://www.w3.org/2000/svg" viewBox="0 0 300 183.78">
  <defs>
    <style>
      .node-1 {
        fill: #333;
      }
      .node-2 {
        fill: #669f64;
      }
      .node-3 {
        fill: #666;
      }
      .node-4 {
        fill: #78b361;
      }
      .node-5 {
        fill: #71a662;
      }
      .node-6 {
        fill: #679f65;
      }
      .node-7 {
        fill: #3e863d;
      }
      .node-8 {
        fill: #70bc51;
      }
      .node-9 {
        fill: #639a59;
      }
      .node-10 {
        fill: #6aa05e;
      }
      .node-11 {
        fill: #68a25b;
      }
      .node-12 {
        fill: #4e8d49;
      }
      .node-13 {
        fill: #428741;
      }
      .node-14 {
        fill: #40863f;
      }
      .node-15 {
        fill: #56924f;
      }
      .node-16 {
        fill: #72a662;
      }
      .node-17 {
        fill: #5f9856;
      }
      .node-18 {
        fill: #579350;
      }
      .node-19 {
        fill: #6ca26a;
      }
      .node-20 {
        fill: #5faa4d;
      }
      .node-21 {
        fill: #6ca36a;
      }
    </style>
  </defs>
  <title>Node</title>
  <g id="Layer_2" data-name="Layer 2">
    <g id="Layer_1-2" data-name="Layer 1">
      <g id="Node">
        <path
          class="node-1"
          d="M202.33,0c5.67,3.17,11.32,6.35,17,9.5a3.9,3.9,0,0,1,2.2,3.74q0,40.94,0,81.86a3.85,3.85,0,0,1-2.11,3.64q-14.11,8.12-28.2,16.28a3.6,3.6,0,0,1-3.84,0L159,98.63a3.58,3.58,0,0,1-1.92-3.33q0-16.39,0-32.8A3.57,3.57,0,0,1,159,59.18L187.4,42.79a3.56,3.56,0,0,1,3.84,0l6.4,3.7c1.61.92,2.39.48,2.39-1.36q0-21.45,0-42.89A2.22,2.22,0,0,1,201.19,0Zm-2.41,78.88c0-1.79,0-3.58,0-5.37a1.21,1.21,0,0,0-.66-1.18c-3.15-1.8-6.28-3.64-9.44-5.41a1.51,1.51,0,0,0-1.25,0c-3.14,1.76-6.25,3.58-9.37,5.37a1.29,1.29,0,0,0-.73,1.24c0,3.58,0,7.16,0,10.74a1.62,1.62,0,0,0,.67,1.15c3.11,1.85,6.27,3.64,9.41,5.46a1.1,1.1,0,0,0,1.27,0q4.66-2.72,9.36-5.39a1.25,1.25,0,0,0,.71-1.24C199.9,82.46,199.92,80.67,199.92,78.88Z"
        />
        <path
          class="node-1"
          d="M0,60.55a5.18,5.18,0,0,1,2.55-2.67q13.61-7.77,27.16-15.64a4.41,4.41,0,0,1,4.93,0q13.81,8,27.72,16a3.82,3.82,0,0,1,2.08,3.58q0,20.15-.07,40.28c0,1.25,0,2.49-.05,3.74a1.73,1.73,0,0,1-2.74,1.59c-2.68-1.52-5.35-3.06-8-4.59s-5.42-3.17-8.19-4.66a4.35,4.35,0,0,1-2.49-4.26c.06-6.51,0-13,0-19.53a3.82,3.82,0,0,0-2.13-3.7c-2.22-1.23-4.42-2.52-6.61-3.81a3.58,3.58,0,0,0-3.91,0c-2.29,1.34-4.59,2.66-6.9,4A3.49,3.49,0,0,0,21.48,74c0,6.73,0,13.46,0,20.18a3.83,3.83,0,0,1-2.09,3.65c-5.51,3.13-11,6.29-16.49,9.44a1.74,1.74,0,0,1-2.77-.84q0-7.89,0-15.77A3.2,3.2,0,0,0,0,90Z"
        />
        <path
          class="node-1"
          d="M300,71a6,6,0,0,1-2.82,2.63c-5.17,3-10.31,6-15.45,9-.19.11-.37.23-.57.33a1.73,1.73,0,0,1-2.67-1.57c0-2.55,0-5.1,0-7.65a2.22,2.22,0,0,0-1.26-2.16q-4.22-2.37-8.38-4.82a2,2,0,0,0-2.2,0q-4.25,2.47-8.52,4.9A2,2,0,0,0,257,73.52q0,4.92,0,9.85a2.15,2.15,0,0,0,1.3,2q14,8,28,16c.14.08.29.15.43.24a1.76,1.76,0,0,1,0,3.19q-8.55,4.77-17.1,9.5a3.43,3.43,0,0,1-3.56,0L237.66,98.14a3.71,3.71,0,0,1-1.89-3.53c0-7.75,0-15.51,0-23.27,0-3,0-6,0-9a3.9,3.9,0,0,1,2.15-3.71Q252,50.53,266,42.41a3.73,3.73,0,0,1,4.06,0q14,8.15,28,16.26A4.86,4.86,0,0,1,300,60.88Z"
        />
        <path
          class="node-2"
          d="M147.31,183.78c-3.22-1.2-5.94-3.31-8.92-4.94-.79-.42-1.55-.89-2.3-1.38a2.1,2.1,0,0,1-.48-.61,3.17,3.17,0,0,1,.56-.4c1.3-.61,2.59-1.23,3.92-1.76a1.56,1.56,0,0,1,1.17.15c2.1,1.2,4.17,2.43,6.23,3.69a1.41,1.41,0,0,0,1.64,0q13.11-7.61,26.26-15.16a1.43,1.43,0,0,0,.81-1.43q0-15.13,0-30.27a1.58,1.58,0,0,0-.91-1.55q-13.08-7.5-26.13-15.07a1.52,1.52,0,0,0-1.72,0q-13,7.56-26.12,15.07a1.57,1.57,0,0,0-.91,1.54q0,15.14,0,30.28a1.41,1.41,0,0,0,.8,1.43c2.25,1.25,4.45,2.58,6.7,3.83a8.55,8.55,0,0,0,2.19.84,3.53,3.53,0,0,0,4.57-3.61V134.31c0-1.12.21-1.32,1.34-1.32h2.77a.87.87,0,0,1,1,.94c0,.19,0,.38,0,.57q0,15.1,0,30.2a11.78,11.78,0,0,1-.35,2.89c-.89,3.53-3.52,5.46-7.34,5.6a13.17,13.17,0,0,1-6.88-1.89c-2.27-1.26-4.52-2.57-6.77-3.89a5.66,5.66,0,0,1-2.93-5.19q0-15.47,0-30.93a5.75,5.75,0,0,1,3.09-5.26q13.32-7.66,26.61-15.36a5.82,5.82,0,0,1,6.18,0q13.38,7.71,26.75,15.45a5.67,5.67,0,0,1,3,5.23v31a5.5,5.5,0,0,1-2.88,5.05q-13.53,7.86-27.1,15.65a15.11,15.11,0,0,1-1.86.76Z"
        />
        <path class="node-3" d="M0,90a3.2,3.2,0,0,1,.16.68q0,7.89,0,15.77l-.07,0-.08,0Z" />
        <path
          class="node-4"
          d="M112.48,114.44l-1.31.46c-.52-1-1-2-1.56-2.94q-2.52-4.63-5.06-9.26-3.6-6.58-7.21-13.17a5.24,5.24,0,0,0,.16-1q0-19,0-38.1a4.89,4.89,0,0,0-.33-1.2c3.85-2.24,7.71-4.47,11.55-6.73a4.23,4.23,0,0,1,2.73-.54,1,1,0,0,1,.21.09l1,2.18a4.94,4.94,0,0,0-.15.84Q112.48,79.79,112.48,114.44Z"
        />
        <path
          class="node-5"
          d="M112.48,114.44q0-34.66,0-69.32a4.94,4.94,0,0,1,.15-.84l1.3,1.95a.9.9,0,0,0,0,.16c1.94,3.34,3.81,6.72,5.86,10a12,12,0,0,1,2,6.68c0,14.92,0,29.83,0,44.75a4,4,0,0,0,.32,1.08L116,112.45C114.84,113.12,113.66,113.78,112.48,114.44Z"
        />
        <path
          class="node-6"
          d="M155.79,132.07a21.53,21.53,0,0,1,8.1,1.55c3.4,1.55,4.88,4.36,5.23,7.92a.84.84,0,0,1-.89,1c-1.11,0-2.23.06-3.33,0a1.19,1.19,0,0,1-.86-.67c-.64-3.06-2.63-4.48-5.61-4.74a19.85,19.85,0,0,0-6.7.26c-1.42.36-2.66,1-3,2.61s.08,2.48,1.57,2.91a44.26,44.26,0,0,0,5.23,1.13c3.2.53,6.46.77,9.55,1.84,2.27.79,4.2,2,4.82,4.54,1,4.08-.24,8.17-4.75,10.24A21.2,21.2,0,0,1,155,162.19a18.76,18.76,0,0,1-7.85-1.81,8.55,8.55,0,0,1-4.81-7.81c0-.9.24-1.17,1.14-1.18s1.95,0,2.93,0c.55,0,1,.2,1,.78.35,3.17,2.33,4.62,5.28,5a23.48,23.48,0,0,0,8.88-.27c2.09-.54,3.15-1.78,3.17-3.59a2.19,2.19,0,0,0-1.69-2.54,38.48,38.48,0,0,0-4.88-1.16c-2.85-.49-5.72-.85-8.58-1.32a8.94,8.94,0,0,1-2-.66,7.5,7.5,0,0,1-2.41-12,10.83,10.83,0,0,1,6.31-3.09C152.92,132.29,154.36,132.22,155.79,132.07Z"
        />
        <path
          class="node-7"
          d="M97.34,89.53q3.61,6.59,7.21,13.17,2.53,4.64,5.06,9.26c.53,1,1,2,1.56,2.94a9,9,0,0,1-2.38-.59q-14.12-8.06-28.16-16.22a9.2,9.2,0,0,1-1.21-1c.76-1.33,1.53-2.66,2.28-4,.62-1.1,1.22-2.22,1.82-3.33.86-1.39,1.75-2.76,2.58-4.17,1.54-2.62,3.05-5.27,4.57-7.9A1.78,1.78,0,0,1,91,78l3,5.53Z"
        />
        <path
          class="node-8"
          d="M97.34,89.53l-3.33-6L91,78a1.78,1.78,0,0,0-.32-.35c-.11-.22-.22-.43-.32-.65-.92-1.7-1.84-3.41-2.76-5.1-.65-1.18-1.31-2.35-2-3.52a1.41,1.41,0,0,0-.08-.31c-1.29-2.33-2.58-4.65-3.86-7-.4-.72-.75-1.47-1.13-2.21Q86,55.7,91.42,52.55c1.79-1,3.61-2,5.41-3.07l.18-.13a.34.34,0,0,1,.15-.07,4.89,4.89,0,0,1,.33,1.2q0,19.05,0,38.1A5.24,5.24,0,0,1,97.34,89.53Z"
        />
        <path
          class="node-9"
          d="M122.09,108.9a4,4,0,0,1-.32-1.08c0-14.92,0-29.83,0-44.75a12,12,0,0,0-2-6.68c-2-3.28-3.92-6.66-5.86-10a.9.9,0,0,1,0-.16,4.2,4.2,0,0,1,.8.63c1.81,2.41,3.6,4.84,5.4,7.27q5.46,7.38,10.92,14.76c1.05,1.42,2.16,2.81,3.24,4.22a5.66,5.66,0,0,1-.32.9c-.53,1.06-1.09,2.1-1.64,3.14-.18-.08-.42-.12-.53-.26-.34-.43-.63-.91-.93-1.37-.55-1.63-2.87-5.29-3.51-5.46a3.33,3.33,0,0,0-.07.54q0,17.12,0,34.25c0,.27.23.54.35.82l-5,2.9C122.5,108.69,122.29,108.79,122.09,108.9Z"
        />
        <path
          class="node-10"
          d="M134.3,73.11c-1.08-1.41-2.19-2.8-3.24-4.22q-5.48-7.38-10.92-14.76c-1.8-2.43-3.59-4.86-5.4-7.27a4.2,4.2,0,0,0-.8-.63l-1.3-1.95-1-2.18a9.59,9.59,0,0,1,1.18.52c3.75,2.17,7.49,4.36,11.23,6.54l.49.26a6.72,6.72,0,0,0,.58,1.37q5.25,7.17,10.56,14.29a25.21,25.21,0,0,0,2,2.14c-.33.62-.64,1.25-1,1.86C135.91,70.43,135.1,71.77,134.3,73.11Z"
        />
        <path
          class="node-11"
          d="M90.35,77c.1.22.21.43.32.65-1.52,2.63-3,5.28-4.57,7.9-.83,1.41-1.72,2.78-2.58,4.17-1.07-.56-2.12-1.14-3.2-1.68-.5-.25-1-.42-1.56-.62a3.43,3.43,0,0,1-.07-.56q0-7.25,0-14.51a3.45,3.45,0,0,1,.07-.55c.22.08.46.14.67.24,3.26,1.6,6.52,3.21,9.79,4.79A3.77,3.77,0,0,0,90.35,77Z"
        />
        <path
          class="node-2"
          d="M274.12,78.37c0,.95,0,1.9,0,2.84a1.4,1.4,0,0,1-.52,1c-1.66,1-3.35,2-5.07,2.91a1.43,1.43,0,0,1-1.18,0q-2.54-1.36-5-2.88a1.44,1.44,0,0,1-.56-1c0-1.93,0-3.85,0-5.77a1.07,1.07,0,0,1,.64-1.09c1.6-.9,3.2-1.82,4.78-2.77a1.31,1.31,0,0,1,1.5,0Q271,73,273.44,74.29a1.19,1.19,0,0,1,.69,1.24C274.09,76.48,274.12,77.42,274.12,78.37Z"
        />
        <path
          class="node-12"
          d="M130.88,75.52c.3.46.59.94.93,1.37.11.14.35.18.53.26a1.91,1.91,0,0,0,.32.24q4.72,2.34,9.47,4.65a2.57,2.57,0,0,0,.62.16l0,13a3.5,3.5,0,0,1-.59-.63q-4.15-7.12-8.3-14.28a9.26,9.26,0,0,0-.71-.94l-.24.11c0,.26,0,.52,0,.77q0,10.69,0,21.38a6.32,6.32,0,0,0,.17,1l-2.28,1.31a10,10,0,0,1-.16-1.19q0-13,0-26.06A4.48,4.48,0,0,1,130.88,75.52Z"
        />
        <path
          class="node-13"
          d="M142.75,82.2a2.57,2.57,0,0,1-.62-.16q-4.74-2.31-9.47-4.65a1.91,1.91,0,0,1-.32-.24c.55-1,1.11-2.08,1.64-3.14a5.66,5.66,0,0,0,.32-.9c.8-1.34,1.61-2.68,2.4-4,.35-.61.66-1.24,1-1.86.67-1.22,1.36-2.44,2-3.68s1.39-2.66,2.08-4a3.33,3.33,0,0,1,1,2.72c0,3.58,0,7.16,0,10.74C142.78,76.07,142.76,79.14,142.75,82.2Z"
        />
        <path
          class="node-14"
          d="M133,102.59a6.32,6.32,0,0,1-.17-1q0-10.68,0-21.38c0-.25,0-.51,0-.77l.24-.11a9.26,9.26,0,0,1,.71.94q4.15,7.14,8.3,14.28a3.5,3.5,0,0,0,.59.63,2.82,2.82,0,0,1-1.47,2.62C138.53,99.47,135.76,101,133,102.59Z"
        />
        <path
          class="node-15"
          d="M130.88,75.52a4.48,4.48,0,0,0-.32,1.13q0,13,0,26.06a10,10,0,0,0,.16,1.19l-3.06,1.77c-.12-.28-.35-.55-.35-.82q0-17.13,0-34.25a3.33,3.33,0,0,1,.07-.54C128,70.23,130.33,73.89,130.88,75.52Z"
        />
        <path
          class="node-16"
          d="M141.78,59.55c-.69,1.33-1.37,2.67-2.08,4s-1.34,2.46-2,3.68a25.21,25.21,0,0,1-2-2.14Q130.38,58,125.13,50.79a6.72,6.72,0,0,1-.58-1.37c3,1.73,6.06,3.45,9.08,5.19q3.63,2.07,7.23,4.18A6.63,6.63,0,0,1,141.78,59.55Z"
        />
        <path
          class="node-17"
          d="M90.35,77a3.77,3.77,0,0,1-1.13-.17C86,75.24,82.69,73.63,79.43,72c-.21-.1-.45-.16-.67-.24V65.44a7.35,7.35,0,0,1,.91.28c1.5.74,3,1.51,4.49,2.23a9.84,9.84,0,0,0,1.46.42c.66,1.17,1.32,2.34,2,3.52C88.51,73.58,89.43,75.29,90.35,77Z"
        />
        <path
          class="node-18"
          d="M85.62,68.37A9.84,9.84,0,0,1,84.16,68c-1.51-.72-3-1.49-4.49-2.23a7.35,7.35,0,0,0-.91-.28c0-1.35-.09-2.71,0-4a3,3,0,0,1,1.79-2.53c.38.74.73,1.49,1.13,2.21,1.28,2.34,2.57,4.66,3.86,7A1.41,1.41,0,0,1,85.62,68.37Z"
        />
        <path
          class="node-19"
          d="M190.51,134.64a5.24,5.24,0,1,1,5.26-5.27A5.2,5.2,0,0,1,190.51,134.64Zm-4.33-5.2a4.36,4.36,0,0,0,4.34,4.34,4.37,4.37,0,0,0-.05-8.74A4.36,4.36,0,0,0,186.18,129.44Z"
        />
        <path
          class="node-20"
          d="M78.76,87.41c.52.2,1.06.37,1.56.62,1.08.54,2.13,1.12,3.2,1.68-.6,1.11-1.2,2.23-1.82,3.33-.75,1.34-1.52,2.67-2.28,4a4.53,4.53,0,0,1-.65-1.52C78.71,92.82,78.75,90.11,78.76,87.41Z"
        />
        <path class="node-4" d="M97,49.35l-.18.13Z" />
        <path
          class="node-21"
          d="M189.77,132.32h-1.21v-5.78c1,0,2-.06,3,0a1.16,1.16,0,0,1,1.07,1.06,1.52,1.52,0,0,1-.75,1.8c.6.57.7.92.85,2.9H191.6a13.27,13.27,0,0,0-.58-2.17c-.08-.18-.75-.09-1.25-.14Zm-.08-3.06a8.41,8.41,0,0,0,1.59-.65,1,1,0,0,0,0-.84,8.46,8.46,0,0,0-1.58-.41Z"
        />
      </g>
    </g>
  </g>
</svg>
