<svg xmlns="http://www.w3.org/2000/svg" viewBox="0 0 300 266.82">
  <defs>
    <style>
      .react-1 {
        fill: #03d8fe;
      }
    </style>
  </defs>
  <title>React</title>
  <g id="Layer_2" data-name="Layer 2">
    <g id="Layer_1-2" data-name="Layer 1">
      <g id="React">
        <path
          class="react-1"
          d="M150.28,32.82c2.19-1.93,4.29-3.77,6.37-5.63A141.51,141.51,0,0,1,181.8,9a76.75,76.75,0,0,1,19.76-7.89,37,37,0,0,1,16-.43c7.65,1.51,13,6.06,16.89,12.6s5.65,13.65,6.65,21.1a116.84,116.84,0,0,1,.39,22.12,136.41,136.41,0,0,1-3.24,21.71c-.36,1.6-.7,3.2-1.1,5.05,1.22.45,2.33.93,3.48,1.27,15.05,4.51,29.26,10.8,41.91,20.25a47.28,47.28,0,0,1,14.82,17.36c4.05,8.44,3.27,16.66-1.26,24.62-3.87,6.81-9.49,12-15.7,16.68-11.05,8.25-23.49,13.74-36.47,18.12l-6.15,2.08c.79,3.86,1.63,7.47,2.24,11.11.66,4,1.3,8,1.59,12,.4,5.38.64,10.79.62,16.18a67.4,67.4,0,0,1-4.34,23.95c-2.93,7.73-7.56,14-15.22,17.7a24.29,24.29,0,0,1-9,2.19c-8.82.55-17-1.63-24.95-5.21a115.77,115.77,0,0,1-26.1-16.64c-3.61-3-7-6.16-10.56-9.24-.46-.4-1-.75-1.55-1.21-2.24,2-4.43,3.86-6.6,5.78A129.31,129.31,0,0,1,114.71,260c-6.45,3.11-13.14,5.62-20.24,6.45-7.41.88-14.76.34-21.15-4.24a31.71,31.71,0,0,1-11.16-15,60,60,0,0,1-3.9-20c0-2.17-.57-4.36-.38-6.49.5-6,.39-12,1.58-17.92s2.11-12.18,3.19-18.5c-2.65-.89-5.47-1.79-8.26-2.77-11.55-4.06-22.63-9.05-32.68-16.16C15,160.61,8.92,155.14,4.51,148A27.56,27.56,0,0,1,.22,129.65a25.82,25.82,0,0,1,3.1-9.34,50.29,50.29,0,0,1,12.57-14.52c11.56-9.43,24.92-15.35,38.94-20L63,83.15c-.56-2.87-1-5.59-1.63-8.28-1.16-5.14-1.81-10.35-2.46-15.58a122.32,122.32,0,0,1-.43-21.81c.51-9.27,2.65-18.19,8-26A24.9,24.9,0,0,1,83.46.64C90.54-.59,97.25.8,103.87,2.9a94.24,94.24,0,0,1,28.31,15.15c5.87,4.45,11.4,9.33,17.09,14C149.57,32.32,149.9,32.54,150.28,32.82ZM176.87,86c-4.56-.27-9.11-.68-13.67-.77-12.38-.23-24.75-.16-37.13.51a5.71,5.71,0,0,0-5,2.83,385,385,0,0,0-24.12,41.9,6,6,0,0,0,0,6.07c5,9.87,10.34,19.57,16.09,29,3.17,5.2,6.61,10.23,9.85,15.22,4.12.24,7.94.62,11.77.68,13.94.19,27.88.34,41.81-.6a9,9,0,0,0,1.24-.32,399.72,399.72,0,0,0,27.13-47.22C196.23,116,180.7,89.69,176.87,86ZM66.59,96a5.28,5.28,0,0,0-.75-.1c-2.07.62-4.15,1.19-6.2,1.89C49,101.36,38.54,105.53,29.17,112c-5.25,3.61-10.09,7.6-13.58,13.07-3.08,4.84-3.71,9.86-.82,14.86a41.82,41.82,0,0,0,6.17,8.15,68.36,68.36,0,0,0,16.48,12.1,149.77,149.77,0,0,0,19.49,8.73c3,1.15,6.21,1.92,9.38,2.89.36-.8.62-1.24.77-1.72A298,298,0,0,1,79,138.57c2.28-5.19,2.31-5.18,0-10.35A283.34,283.34,0,0,1,67.71,99.11C67.37,98.05,67,97,66.59,96ZM141.5,225.24c-1.75-2.05-3.12-3.73-4.57-5.35a249,249,0,0,1-19.36-24.34,5.94,5.94,0,0,0-4.62-2.67c-4.22-.42-8.45-.76-12.65-1.31-5.11-.67-10.2-1.5-15.29-2.32-3.13-.5-6.25-1.11-9.73-1.74-.71,3.81-1.21,7.37-2.08,10.84A98.33,98.33,0,0,0,71,215.22a71.35,71.35,0,0,0,1.12,20.14,35.14,35.14,0,0,0,4.39,11.83c1.94,3.05,4.5,5.44,8.17,6.28a24.86,24.86,0,0,0,10.76-.16,70.16,70.16,0,0,0,20.8-8.56,134.88,134.88,0,0,0,16.47-11.66C135.67,230.68,138.42,228,141.5,225.24Zm18.07-.3a127.92,127.92,0,0,0,17.29,14.68c9.42,6.66,19.24,12.52,31,14.21,5.32.76,10.07-.08,13.87-4.3A24.35,24.35,0,0,0,226,242c2.65-6.62,3.27-13.63,3.64-20.65.15-2.67-.36-5.37-.38-8.06-.06-7-1.35-13.78-2.65-20.59-.36-1.89-.9-3.75-1.41-5.85A306.23,306.23,0,0,1,184.74,193,303.82,303.82,0,0,1,159.57,224.94ZM141.1,42c-3.85-3.27-7.52-6.47-11.28-9.58a104.31,104.31,0,0,0-23-14.62c-5.93-2.72-12.08-4.73-18.76-4.64-5.67.08-9.59,2.7-12.26,7.55-3.7,6.72-4.46,14.12-4.88,21.54-.47,8.2.57,16.34,1.86,24.43.69,4.34,1.78,8.62,2.76,13.23a365.82,365.82,0,0,1,39.88-6.09c4.25-5.48,8.23-10.78,12.39-15.94S136.47,47.54,141.1,42Zm83.55,38.17c.54-2.66,1-5.28,1.62-7.87,1.74-7.48,2.31-15.11,2.8-22.74a73.67,73.67,0,0,0-1.25-17,34.33,34.33,0,0,0-5.54-14.32,11.64,11.64,0,0,0-6.95-4.9,24.31,24.31,0,0,0-10.73.31c-8.2,1.8-15.54,5.61-22.44,10.18-5.35,3.54-10.36,7.6-15.41,11.58-2.58,2-4.91,4.42-7.55,6.84a332.07,332.07,0,0,1,25.32,31.6A320.48,320.48,0,0,1,224.65,80.18ZM219.08,133c2.72,6.31,5.53,12.5,8.06,18.8s4.81,12.82,7.16,19.1a4,4,0,0,0,.65,0c1.37-.42,2.76-.81,4.12-1.27,11.77-4,23.13-8.83,33.24-16.22,4.9-3.57,9.35-7.59,12.52-12.84,2.62-4.34,3.21-8.73.74-13.47-2.72-5.22-6.83-9-11.38-12.55C267,109,259,105,250.63,101.61a110.46,110.46,0,0,0-17-5.72A307.34,307.34,0,0,1,219.08,133Zm2.75,41.42a241.39,241.39,0,0,0-10.12-26.09c-3.09,5.48-5.87,10.49-8.72,15.47s-5.83,10-9,15.4A280,280,0,0,0,221.83,174.44ZM88.63,149.1c-2.25,3.84-9,22.32-9.43,25.87,12.35,3,23.21,4.51,26.56,3.78ZM168.26,194a237.69,237.69,0,0,1-35.9,0,265.42,265.42,0,0,0,18.21,21.81A251.41,251.41,0,0,0,168.26,194Zm53-101.36a249.49,249.49,0,0,0-27-4.8c5.49,9.75,10.85,19.27,16.22,28.79a7,7,0,0,0,.77,1,.42.42,0,0,0,.25.12,3.24,3.24,0,0,0,.51-.13c1.52-3.89,3.14-7.88,4.63-11.92S219.59,97.33,221.25,92.63ZM132.44,72.77c6.34-.23,12-.48,17.73-.62s11.32.92,17.08.34c-2.92-5.24-14.84-19.23-17.46-20.52A229.88,229.88,0,0,0,132.44,72.77ZM106,87.82c-4.65.65-9,1.15-13.36,1.9S84,91.44,79.4,92.36c.68,4.69,2.61,8.8,4.08,13s3.31,8.53,5,12.78C94.33,108,100.07,98,106,87.82Z"
        />
        <path
          class="react-1"
          d="M150.26,159.76c-14.82.65-27-12.35-27-26.24a27,27,0,0,1,26.53-27.14c15.42-.13,27,12.93,27,26.67C176.87,147,164.84,160.36,150.26,159.76Z"
        />
      </g>
    </g>
  </g>
</svg>
