<svg xmlns="http://www.w3.org/2000/svg" viewBox="0 0 300 284.89">
<defs>
    <style>
      .redux-1 {
        fill: #764ABC;
      }
    </style>
  </defs>
  <title>Redux</title>
  <g id="Layer_2" data-name="Layer 2">
    <g id="Layer_1-2" data-name="Layer 1">
      <g id="Redux">
        <path
        class="redux-1"
          d="M226.67,93.67c-.41-.13-.7-.21-1-.31-5.58-1.92-11.2-3.66-16.91-5.14-1-.24-1-.25-1.1-1.26-.29-2.15-.5-4.31-.9-6.44a103.12,103.12,0,0,0-7.06-22.69,88.91,88.91,0,0,0-11-18.8,58.25,58.25,0,0,0-15.41-14.24,44.31,44.31,0,0,0-16.27-6.14,41.11,41.11,0,0,0-9.4-.54A72.81,72.81,0,0,0,131,21.19a69.91,69.91,0,0,0-20,9.58,49.84,49.84,0,0,0-11,10.7A101.58,101.58,0,0,0,81.63,81.26a102.41,102.41,0,0,0-2,11.55c-.36,3.42-.64,6.87-.78,10.32-.15,4.06-.21,8.13-.13,12.19.07,3.23.39,6.46.66,9.69a124.33,124.33,0,0,0,2.77,17.35,142.14,142.14,0,0,0,14.91,38.49c.43.77.93,1.51,1.3,2.31a1.43,1.43,0,0,0,1.75.89,15.55,15.55,0,0,1,2.55-.18,21.26,21.26,0,1,1-21,25.56A20.85,20.85,0,0,1,83.89,195a1.43,1.43,0,0,0,0-1.6,182.63,182.63,0,0,1-13.32-28.13,164.89,164.89,0,0,1-7.35-25.88c-.81-4.14-1.47-8.3-1.94-12.48-.29-2.58-.49-5.17-.63-7.77-.16-3.17-.33-6.35-.29-9.52,0-3.57.25-7.15.48-10.71a128.76,128.76,0,0,1,2.58-18,148.92,148.92,0,0,1,5.27-18.77,106.08,106.08,0,0,1,6.84-15.7,91.79,91.79,0,0,1,30.4-33.58,77.52,77.52,0,0,1,25.9-11.07A63.44,63.44,0,0,1,142.93.17c2-.1,4.1-.2,6.14-.16a63.47,63.47,0,0,1,16.25,2.5A73,73,0,0,1,195,19.59a88.92,88.92,0,0,1,17.17,22.17A115,115,0,0,1,224,74.17c.94,4.4,1.62,8.83,2.16,13.28.23,1.88.37,3.77.55,5.66A4,4,0,0,1,226.67,93.67Z"
        />
        <path
        class="redux-1"
          d="M170,273.23c5.83-4.45,11.57-8.81,16.9-13.58,2,.78,3.89,1.56,5.81,2.26a97.57,97.57,0,0,0,18.52,4.74,81.61,81.61,0,0,0,15.61,1,61.87,61.87,0,0,0,22.45-4.78A53.47,53.47,0,0,0,271.63,245a55.86,55.86,0,0,0,8.73-16.85,48.92,48.92,0,0,0,2-10.6,58.76,58.76,0,0,0-4.32-26,99.09,99.09,0,0,0-21.41-33.24,119.75,119.75,0,0,0-22-17.75,147.86,147.86,0,0,0-35.79-16.67,141.34,141.34,0,0,0-19.24-4.5c-3.86-.62-7.74-1.09-11.64-1.37-4.06-.3-8.12-.55-12.18-.48-1.9,0-3.79.17-5.68.22a1.72,1.72,0,0,0-1.66,1.11,20.78,20.78,0,0,1-14.69,11.52,21.27,21.27,0,0,1-23.08-10.6,20.88,20.88,0,0,1-2.6-9.92,21.22,21.22,0,0,1,39.34-11.37,2.78,2.78,0,0,1,.28.47c.27.75.84.86,1.54.81,1.1-.08,2.2-.13,3.3-.12,3.82,0,7.65,0,11.46.21,3.48.17,6.95.51,10.41.85A158.3,158.3,0,0,1,198.22,105a150.6,150.6,0,0,1,56.72,27.77,147,147,0,0,1,20.25,19.51,111.52,111.52,0,0,1,11.67,16.08,94.8,94.8,0,0,1,11.2,28.25A90.79,90.79,0,0,1,299.65,207a75.25,75.25,0,0,1,.3,10.07c-.36,9.48-2.22,18.61-6.58,27.11a63.59,63.59,0,0,1-12.89,16.93,85.11,85.11,0,0,1-39.24,21.17,95,95,0,0,1-26.36,2.54,109.58,109.58,0,0,1-28.15-5A135.36,135.36,0,0,1,171.5,274C171,273.76,170.58,273.52,170,273.23Z"
        />
        <path
        class="redux-1"
          d="M44.22,133.8c.17.74.33,1.35.46,2,1.23,5.46,2.6,10.87,4.28,16.21.32,1,.31,1-.58,1.74a93.37,93.37,0,0,0-24.93,29.95,62.55,62.55,0,0,0-6.35,18.85,55.27,55.27,0,0,0-.65,6.93,50.91,50.91,0,0,0,.27,7.41,53.08,53.08,0,0,0,3.45,13.92,59.71,59.71,0,0,0,10.1,17,48.29,48.29,0,0,0,15.55,11.9,60.7,60.7,0,0,0,17.7,5.45,71,71,0,0,0,9.2.92c3.27.06,6.55.22,9.81.08a100.55,100.55,0,0,0,25.9-4.58,120.35,120.35,0,0,0,20.75-8.75,183.38,183.38,0,0,0,23.24-14.49,126.79,126.79,0,0,0,31.06-32.41,121.86,121.86,0,0,0,6.78-11.65c.44-.86.43-.86-.2-1.57a21.25,21.25,0,1,1,19.54,6.58c-1.71.32-1.38,0-2.19,1.65a151.87,151.87,0,0,1-30.84,42.11A145.79,145.79,0,0,1,146,265.45a160,160,0,0,1-43.24,16q-4.78,1-9.63,1.8c-2.53.39-5.09.59-7.64.82a92.66,92.66,0,0,1-12.47.14c-2.74-.12-5.48-.4-8.2-.75a87.1,87.1,0,0,1-13-2.7,78.61,78.61,0,0,1-27.95-14.15A59.45,59.45,0,0,1,6,242.48a80.14,80.14,0,0,1-5-18.06A81.58,81.58,0,0,1,.14,207a84,84,0,0,1,6.3-27.47,96.58,96.58,0,0,1,17-27,125,125,0,0,1,19.85-18.05C43.57,134.23,43.85,134.05,44.22,133.8Z"
        />
      </g>
    </g>
  </g>
</svg>