<svg xmlns="http://www.w3.org/2000/svg" xmlns:xlink="http://www.w3.org/1999/xlink" width="239" height="239" viewBox="0 0 239 239">
  <defs>
    <filter id="Ellipse_9" x="0" y="0" width="239" height="239" filterUnits="userSpaceOnUse">
      <feOffset dy="3" input="SourceAlpha"/>
      <feGaussianBlur stdDeviation="7.5" result="blur"/>
      <feFlood flood-opacity="0.29"/>
      <feComposite operator="in" in2="blur"/>
      <feComposite in="SourceGraphic"/>
    </filter>
    <filter id="Path_266" x="160" y="17.344" width="59" height="70" filterUnits="userSpaceOnUse">
      <feOffset dy="3" input="SourceAlpha"/>
      <feGaussianBlur stdDeviation="3" result="blur-2"/>
      <feFlood flood-opacity="0.161"/>
      <feComposite operator="in" in2="blur-2"/>
      <feComposite in="SourceGraphic"/>
    </filter>
    <filter id="Rectangle_18" x="171.3" y="67.859" width="36" height="31.5" filterUnits="userSpaceOnUse">
      <feOffset dy="3" input="SourceAlpha"/>
      <feGaussianBlur stdDeviation="3" result="blur-3"/>
      <feFlood flood-opacity="0.161"/>
      <feComposite operator="in" in2="blur-3"/>
      <feComposite in="SourceGraphic"/>
    </filter>
  </defs>
  <g id="Group_49" data-name="Group 49" transform="translate(22.5 19.5)">
    <g transform="matrix(1, 0, 0, 1, -22.5, -19.5)" filter="url(#Ellipse_9)">
      <circle id="Ellipse_9-2" data-name="Ellipse 9" cx="97" cy="97" r="97" transform="translate(22.5 19.5)" fill="#d9d9d9"/>
    </g>
    <g transform="matrix(1, 0, 0, 1, -22.5, -19.5)" filter="url(#Path_266)">
      <path id="Path_266-2" data-name="Path 266" d="M1311.106-615.517c0-11.891-11.442-17.554-11.442-28.313.279-18.687,17.575-18.687,18.141-18.687s17.859,0,17.859,18.687c0,10.759-11.721,16.705-11.721,28.313Z" transform="translate(-1128.16 688.36)" fill="#0019b7" stroke="#8e71ff" stroke-miterlimit="10" stroke-width="5"/>
    </g>
    <g id="Group_34" data-name="Group 34">
      <path id="Path_267" data-name="Path 267" d="M1283.2-662.142v25.893l-2.512,5.388-3.544,1.678-4.363.376,1.358-1.488.689-3.6-.689-2.537-3.005-1.953-7.011-.093-3.005-.38-3.592-2.6h-4.421v-4.056h-16.044l-2.986,2-.921,3.731,2.924,4.465-8.971-3.543-2.139-4.653v-22.671a97.034,97.034,0,0,0-74.309,94.324,97,97,0,0,0,97,97,97,97,0,0,0,97-97A97.032,97.032,0,0,0,1283.2-662.142Z" transform="translate(-1150.664 668.861)" fill="none"/>
      <path id="Path_268" data-name="Path 268" d="M1275.3-664.861a96.609,96.609,0,0,0-16.192-3.325l-.178,3.325Z" transform="translate(-1150.664 668.861)" fill="none"/>
      <path id="Path_269" data-name="Path 269" d="M1224.973-643.514l2.139,4.653,8.971,3.543-2.924-4.465.921-3.731,2.986-2h16.044v4.056h4.421l3.592,2.6,3.005.38,7.011.093,3.005,1.953.689,2.537-.689,3.6-1.358,1.488,4.363-.376,3.544-1.678,2.512-5.388v-25.893q-3.875-1.527-7.909-2.719h-16.37l.178-3.325a97.965,97.965,0,0,0-11.44-.675,97.227,97.227,0,0,0-22.691,2.676v22.671Z" transform="translate(-1150.664 668.861)" fill="#0019b7"/>
    </g>
    <path id="Path_270" data-name="Path 270" d="M1307.961-643.376c0-5.906,5.625-9.985,9.984-9.985" transform="translate(-1150.664 668.861)" fill="#0019b7" stroke="#8e71ff" stroke-linecap="round" stroke-miterlimit="10" stroke-width="4"/>
    <g transform="matrix(1, 0, 0, 1, -22.5, -19.5)" filter="url(#Rectangle_18)">
      <path id="Rectangle_18-2" data-name="Rectangle 18" d="M0,0H18a0,0,0,0,1,0,0V10.5a3,3,0,0,1-3,3H3a3,3,0,0,1-3-3V0A0,0,0,0,1,0,0Z" transform="translate(180.3 73.86)" fill="#0019b7"/>
    </g>
    <g id="Group_36" data-name="Group 36" transform="translate(81.413 1.309)">
      <g id="Group_35" data-name="Group 35">
        <path id="Path_271" data-name="Path 271" d="M1247.1-660.541h-1a.946.946,0,0,1-1-1v-3a2.951,2.951,0,0,0-3.005-3.005,2.951,2.951,0,0,0-3.005,3.005v3a.947.947,0,0,1-1,1,.946.946,0,0,0-1-1h-4.007a.946.946,0,0,0-1,1v11.018a.945.945,0,0,0,1,1h4.007a.945.945,0,0,0,1-1h9.015a2.952,2.952,0,0,0,3.005-3.005v-5.008A2.951,2.951,0,0,0,1247.1-660.541Zm-11.018,10.016h-2v-9.014h2Zm12.019-2a.945.945,0,0,1-1,1h-9.015v-7.011a2.951,2.951,0,0,0,3-3.005v-3a.947.947,0,0,1,1-1,.946.946,0,0,1,1,1v3a2.951,2.951,0,0,0,3.005,3.005h1a.946.946,0,0,1,1,1Z" transform="translate(-1232.077 667.552)" fill="#8e71ff"/>
      </g>
    </g>
    <g id="Group_38" data-name="Group 38" transform="translate(111.461 7.318)">
      <g id="Group_37" data-name="Group 37">
        <path id="Path_272" data-name="Path 272" d="M1279.152-661.543h-4.006a.947.947,0,0,0-1,1h-9.014a2.951,2.951,0,0,0-3.005,3.005v5.008a2.952,2.952,0,0,0,3.005,3.005h1a.946.946,0,0,1,1,1v3a2.951,2.951,0,0,0,3,3.005,2.952,2.952,0,0,0,3.005-3.005v-3a.945.945,0,0,1,1-1,.946.946,0,0,0,1,1h4.006a.946.946,0,0,0,1-1v-11.018A.947.947,0,0,0,1279.152-661.543Zm-5.008,10.016a2.951,2.951,0,0,0-3.005,3.005v3a.946.946,0,0,1-1,1,.947.947,0,0,1-1-1v-3a2.951,2.951,0,0,0-3.005-3.005h-1a.946.946,0,0,1-1-1v-5.008a.947.947,0,0,1,1-1h9.014Zm4.007,1h-2v-9.014h2Z" transform="translate(-1262.125 661.543)" fill="#8e71ff"/>
      </g>
    </g>
    <g id="Group_40" data-name="Group 40" transform="translate(110.459 23.344)">
      <g id="Group_39" data-name="Group 39">
        <rect id="Rectangle_19" data-name="Rectangle 19" width="4.006" height="2.003" fill="#8e71ff"/>
      </g>
    </g>
    <g id="Group_42" data-name="Group 42" transform="translate(76.037 73.371)">
      <path id="Path_273" data-name="Path 273" d="M1238.883-552.112a22.567,22.567,0,0,1-7.606-6.446l.306-.221A22.371,22.371,0,0,0,1238.883-552.112Z" transform="translate(-1226.701 595.49)" fill="#0019b7"/>
      <path id="Path_274" data-name="Path 274" d="M1228.715-562.9a22.97,22.97,0,0,1-2.009-9.885l.943.038a22.229,22.229,0,0,0,1.586,9.625Z" transform="translate(-1226.701 595.49)" fill="#0019b7"/>
      <path id="Path_275" data-name="Path 275" d="M1227.384-577.85a23.354,23.354,0,0,1,4.6-9.124l1.149.979a22.037,22.037,0,0,0-4.656,8.44Z" transform="translate(-1226.701 595.49)" fill="#0019b7"/>
      <path id="Path_276" data-name="Path 276" d="M1235.7-590.577a23.533,23.533,0,0,1,9.368-4.368l.406,2.035a21.655,21.655,0,0,0-8.76,3.694Z" transform="translate(-1226.701 595.49)" fill="#0019b7"/>
      <path id="Path_277" data-name="Path 277" d="M1250.266-595.49a23.682,23.682,0,0,1,10.19,2.393l-1.2,2.354a21.2,21.2,0,0,0-9.048-2.483Z" transform="translate(-1226.701 595.49)" fill="#0019b7"/>
      <path id="Path_278" data-name="Path 278" d="M1264.935-590.27a23.924,23.924,0,0,1,6.6,8.283l-2.912,1.345a20.926,20.926,0,0,0-5.5-7.448Z" transform="translate(-1226.701 595.49)" fill="#0019b7"/>
      <path id="Path_279" data-name="Path 279" d="M1273.324-576.936a24.277,24.277,0,0,1,.624,6.284l-3.614-.178a20.734,20.734,0,0,0-.33-5.392Z" transform="translate(-1226.701 595.49)" fill="#0019b7"/>
      <g id="Group_41" data-name="Group 41" transform="translate(40.149 18.611)">
        <path id="Path_280" data-name="Path 280" d="M1266.85-576.879l5.421,4.037,6.669-1.1-9.528,12.861Z" transform="translate(-1266.85 576.879)" fill="#0019b7"/>
      </g>
    </g>
    <path id="Path_281" data-name="Path 281" d="M1183.164-616.361l5-3,5,1,3,4v2l4,3,1,4-3,5h-25l-4-2-1-4,1-4,3-1,2-2,3-3Z" transform="translate(-1150.664 668.861)" fill="#0019b7"/>
    <rect id="Rectangle_20" data-name="Rectangle 20" width="14" height="15" transform="translate(49 73)" fill="#0019b7"/>
    <rect id="Rectangle_21" data-name="Rectangle 21" width="17" height="14" transform="translate(46 30)" fill="#0019b7"/>
    <rect id="Rectangle_22" data-name="Rectangle 22" width="15" height="11" transform="translate(7 73)" fill="#0019b7"/>
    <rect id="Rectangle_23" data-name="Rectangle 23" width="19" height="4" transform="translate(5 84)" fill="#0019b7"/>
    <path id="Path_282" data-name="Path 282" d="M1291.59-575.6v27.628l-3.455.93-2.419,2.7-.465,2.91,1.413,3.416,4.926,1.767h28.731l19.442-19.674L1339.3-575.6h-9.379l-17.784,18.326-7.442,2.512,2.14-8.093,13.116-12.744Z" transform="translate(-1150.664 668.861)" fill="#0019b7"/>
    <path id="Path_283" data-name="Path 283" d="M1309.774-566.587l3.837-3.837,1.333,1.158-3.793,3.794Z" transform="translate(-1150.664 668.861)" fill="#8e71ff"/>
    <rect id="Rectangle_24" data-name="Rectangle 24" width="1.761" height="4.308" transform="translate(140.046 110.618)" fill="#8e71ff"/>
    <path id="Path_284" data-name="Path 284" d="M1326.643-543.927l-3.779,3.779,1.28,1.211,4.035-4.035Z" transform="translate(-1150.664 668.861)" fill="#8e71ff"/>
    <path id="Path_285" data-name="Path 285" d="M1332.879-588.016l4.744,4.273-1.209,2.424-4.279,3.953-5.349-4.6Z" transform="translate(-1150.664 668.861)" fill="#0019b7"/>
    <rect id="Rectangle_25" data-name="Rectangle 25" width="33.773" height="32.372" transform="translate(94 144.984)" fill="#0019b7"/>
    <path id="Path_286" data-name="Path 286" d="M1209.88-527.861h9.674v21.226l-.761,3.921-3.871,1.853-2.345-1-2.7-2.5Z" transform="translate(-1150.664 668.861)" fill="#0019b7"/>
    <circle id="Ellipse_10" data-name="Ellipse 10" cx="3.75" cy="3.75" r="3.75" transform="translate(13.089 109.885)" fill="#0019b7"/>
    <circle id="Ellipse_11" data-name="Ellipse 11" cx="1.271" cy="1.271" r="1.271" transform="translate(19.439 122.246)" fill="#0019b7"/>
    <circle id="Ellipse_12" data-name="Ellipse 12" cx="2.507" cy="2.507" r="2.507" transform="translate(13.364 129.719)" fill="#0019b7"/>
    <path id="Path_287" data-name="Path 287" d="M1245.577-635.017l-.558,3.419,1.884,4.535,4.116,3.279-.488,2.233-2.163,1.256,5.744,3.279,5.837-2.93-2.86-2.023-.14-1.814,3.767-2.4,2.41-7.155-12.666-.557Z" transform="translate(-1150.664 668.861)" fill="#0019b7"/>
    <g id="Group_43" data-name="Group 43">
      <path id="Path_288" data-name="Path 288" d="M1336.455-582.69a.925.925,0,0,0,0-1.306l-2.737-2.737a.924.924,0,0,0-1.307,0l-1.745,1.745,4.044,4.043Z" transform="translate(-1150.664 668.861)" fill="none"/>
      <path id="Path_289" data-name="Path 289" d="M1306.556-558.515l1.681,1.681,2.523-.891-3.313-3.313Z" transform="translate(-1150.664 668.861)" fill="none"/>
      <path id="Path_290" data-name="Path 290" d="M1336.536-536.962v-6.617l-6.617,6.617Z" transform="translate(-1150.664 668.861)" fill="none"/>
      <path id="Path_291" data-name="Path 291" d="M1313.8-528.958a.879.879,0,0,1-.813-.543.879.879,0,0,1,.191-.96l5.068-5.068h-26.911a6.633,6.633,0,0,1-4.656-1.9,6.638,6.638,0,0,1-1.994-4.269.9.9,0,0,1-.021-.189v-37.4a6.935,6.935,0,0,1,6.926-6.927.881.881,0,0,1,.881.881v8.712h27.336l6.129-6.129,2.862-2.861,2.368-2.368a2.666,2.666,0,0,1,1.9-.786,2.667,2.667,0,0,1,1.9.786l2.737,2.737a2.667,2.667,0,0,1,.786,1.9,2.666,2.666,0,0,1-.786,1.9l-2.367,2.367h0l-2.456,2.457h6.766a.88.88,0,0,1,.881.88v17.934l2.638-2.638a.874.874,0,0,1,.856-.217,98.127,98.127,0,0,0,.647-11.2,97,97,0,0,0-97-97,97,97,0,0,0-97,97,97,97,0,0,0,97,97,97,97,0,0,0,87.013-54.1Z" transform="translate(-1150.664 668.861)" fill="none"/>
      <rect id="Rectangle_26" data-name="Rectangle 26" width="2.285" height="5.718" transform="matrix(0.707, -0.707, 0.707, 0.707, 177.141, 86.734)" fill="none"/>
      <path id="Path_292" data-name="Path 292" d="M1327.41-542.2h0c-.021.021-.044.041-.067.06a.877.877,0,0,1-.556.2.879.879,0,0,1-.556-.2c-.023-.019-.045-.039-.067-.06a.881.881,0,0,1,0-1.246l12.6-12.6v-18.814h-7.647l-18.123,18.122a.714.714,0,0,1-.071.064l-.015.011c-.021.016-.041.031-.062.044l-.02.012-.062.035-.024.011c-.021.009-.041.018-.062.025l-.013.006-5.371,1.9h17.5a.88.88,0,0,1,.88.88.88.88,0,0,1-.88.881H1300.4a.88.88,0,0,1-.88-.881.88.88,0,0,1,.88-.88h2.929a.918.918,0,0,1,.035-.134l1.17-3.314,1.716-4.861.007-.018c.007-.017.014-.035.022-.052l.016-.034c.008-.017.018-.033.027-.05l.019-.031a.562.562,0,0,1,.036-.05l.018-.025a.814.814,0,0,1,.062-.069l4.123-4.123a.88.88,0,0,1,1.245,0,.88.88,0,0,1,0,1.245l-3.5,3.5,4.044,4.044,17.757-17.758h0l.474-.474-4.043-4.044-5.764,5.764h0l-6.372,6.372a.88.88,0,0,1-1.245,0,.881.881,0,0,1,0-1.246l4.868-4.868h-25.575v17.023h0a.881.881,0,0,1-.881.881.881.881,0,0,1-.88-.881h0v-26.541a5.174,5.174,0,0,0-4.285,5.09v32.794c.106-.118.214-.234.329-.346a6.876,6.876,0,0,1,3.956-1.914v-5.561a.88.88,0,0,1,.88-.88.88.88,0,0,1,.881.88v6.386a.88.88,0,0,1-.881.88c-.087,0-.174,0-.26.007l-.063.005c-.066,0-.131.008-.2.015-.019,0-.038,0-.057.006-.067.008-.135.016-.2.026l-.037.007c-.074.011-.148.024-.22.039l-.014,0a5.185,5.185,0,0,0-3.6,2.818l0,.009c-.033.068-.065.138-.095.208l-.02.049c-.023.057-.046.114-.068.172-.011.03-.022.061-.032.091s-.031.088-.045.132-.027.089-.04.133l-.027.093c-.015.057-.03.114-.043.172l-.013.057c-.015.068-.029.136-.041.2l-.005.026c-.013.077-.025.155-.035.233v0c-.021.164-.034.33-.039.5a4.881,4.881,0,0,0,4.9,4.752h28.672l3.569-3.57a.881.881,0,0,1,1.119-.1.962.962,0,0,1,.127.1.881.881,0,0,1,0,1.246l-8.9,8.9h19.6q1.039-2.219,1.971-4.5a.693.693,0,0,1-.079.016h-9.624a.881.881,0,0,1-.814-.543.881.881,0,0,1,.191-.96l9.624-9.624a.882.882,0,0,1,.96-.191.88.88,0,0,1,.544.814v8.46q1.281-3.352,2.318-6.821a.867.867,0,0,1-.219-.564.871.871,0,0,1,.629-.83c.253-.9.49-1.8.717-2.7h-.465a.882.882,0,0,1-.881-.881.882.882,0,0,1,.881-.881h.9c.266-1.151.505-2.313.73-3.479v-4.29Z" transform="translate(-1150.664 668.861)" fill="none"/>
      <path id="Path_293" data-name="Path 293" d="M1337.754-546.519a.882.882,0,0,0-.96.191l-9.624,9.624a.881.881,0,0,0-.191.96.881.881,0,0,0,.814.543h9.624a.693.693,0,0,0,.079-.016q.413-1.008.8-2.028v-8.46A.88.88,0,0,0,1337.754-546.519Zm-1.218,9.557h-6.617l6.617-6.617Z" transform="translate(-1150.664 668.861)" fill="#8e71ff"/>
      <path id="Path_294" data-name="Path 294" d="M1340.4-549.045a.882.882,0,0,0,.881.881h.465c.147-.586.294-1.172.43-1.762h-.9A.882.882,0,0,0,1340.4-549.045Z" transform="translate(-1150.664 668.861)" fill="#8e71ff"/>
      <path id="Path_295" data-name="Path 295" d="M1343.161-560.444l-2.638,2.638V-575.74a.88.88,0,0,0-.881-.88h-6.766l2.456-2.457h0l2.367-2.367a2.666,2.666,0,0,0,.786-1.9,2.667,2.667,0,0,0-.786-1.9l-2.737-2.737a2.667,2.667,0,0,0-1.9-.786,2.666,2.666,0,0,0-1.9.786l-2.368,2.368-2.862,2.861-6.129,6.129h-27.336v-8.712a.881.881,0,0,0-.881-.881,6.935,6.935,0,0,0-6.926,6.927v37.4a.9.9,0,0,0,.021.189,6.638,6.638,0,0,0,1.994,4.269,6.633,6.633,0,0,0,4.656,1.9h26.911l-5.068,5.068a.879.879,0,0,0-.191.96.879.879,0,0,0,.813.543h20.877q.432-.876.848-1.761h-19.6l8.9-8.9a.881.881,0,0,0,0-1.246.962.962,0,0,0-.127-.1.881.881,0,0,0-1.119.1l-3.569,3.57h-28.672a4.881,4.881,0,0,1-4.9-4.752c.005-.167.018-.333.039-.5v0c.01-.078.022-.156.035-.233l.005-.026c.012-.069.026-.137.041-.2l.013-.057c.013-.058.028-.115.043-.172l.027-.093c.013-.044.026-.089.04-.133s.029-.088.045-.132.021-.061.032-.091c.022-.058.045-.115.068-.172l.02-.049c.03-.07.062-.14.095-.208l0-.009a5.185,5.185,0,0,1,3.6-2.818l.014,0c.072-.015.146-.028.22-.039l.037-.007c.067-.01.135-.018.2-.026.019,0,.038-.005.057-.006.066-.007.131-.011.2-.015l.063-.005c.086,0,.173-.007.26-.007a.88.88,0,0,0,.881-.88v-6.386a.88.88,0,0,0-.881-.88.88.88,0,0,0-.88.88v5.561a6.876,6.876,0,0,0-3.956,1.914c-.115.112-.223.228-.329.346v-32.794a5.174,5.174,0,0,1,4.285-5.09v26.541h0a.881.881,0,0,0,.88.881.881.881,0,0,0,.881-.881h0v-17.023h25.575l-4.868,4.868a.881.881,0,0,0,0,1.246.88.88,0,0,0,1.245,0l6.372-6.372h0l5.764-5.764,4.043,4.044-.474.474h0L1312.37-558.6l-4.044-4.044,3.5-3.5a.88.88,0,0,0,0-1.245.88.88,0,0,0-1.245,0l-4.123,4.123a.814.814,0,0,0-.062.069l-.018.025a.562.562,0,0,0-.036.05l-.019.031c-.009.017-.019.033-.027.05l-.016.034c-.008.017-.015.035-.022.052l-.007.018-1.716,4.861-1.17,3.314a.918.918,0,0,0-.035.134H1300.4a.88.88,0,0,0-.88.88.88.88,0,0,0,.88.881h24.389a.88.88,0,0,0,.88-.881.88.88,0,0,0-.88-.88h-17.5l5.371-1.9.013-.006c.021-.007.041-.016.062-.025l.024-.011.062-.035.02-.012c.021-.013.041-.028.062-.044l.015-.011a.714.714,0,0,0,.071-.064l18.123-18.122h7.647v18.814l-12.6,12.6a.881.881,0,0,0,0,1.246c.022.021.044.041.067.06a.879.879,0,0,0,.556.2.877.877,0,0,0,.556-.2c.023-.019.046-.039.067-.06h0L1342.9-557.7v4.29q.69-3.583,1.114-7.256A.874.874,0,0,0,1343.161-560.444Zm-34.925,3.609-1.68-1.68.89-2.523,3.313,3.313Zm24.175-29.9a.924.924,0,0,1,1.307,0l2.737,2.737a.925.925,0,0,1,0,1.306l-1.745,1.745-4.044-4.043Zm-4.606,4.606,1.615-1.616,4.044,4.044-1.616,1.616Z" transform="translate(-1150.664 668.861)" fill="#8e71ff"/>
      <path id="Path_296" data-name="Path 296" d="M1340.4-544.63a.867.867,0,0,0,.219.564c.138-.464.278-.927.41-1.394A.871.871,0,0,0,1340.4-544.63Z" transform="translate(-1150.664 668.861)" fill="#8e71ff"/>
    </g>
    <g id="Group_44" data-name="Group 44">
      <path id="Path_297" data-name="Path 297" d="M1285.664-518.861h-6v2h5a1,1,0,0,1,1,1v30a1,1,0,0,1-1,1h-46a1,1,0,0,1-1-1v-30a1,1,0,0,1,1-1h5v-2h-6a2,2,0,0,0-2,2v36h17a1,1,0,0,1,.707.292l1.707,1.708h13.172l1.707-1.708a1,1,0,0,1,.707-.292h10.652q3.229-1.194,6.348-2.606v-33.394A2,2,0,0,0,1285.664-518.861Zm-23,38h-2v-2h2Z" transform="translate(-1150.664 668.861)" fill="none"/>
      <path id="Path_298" data-name="Path 298" d="M1247.664-668.861a97,97,0,0,0-97,97,97.021,97.021,0,0,0,81.07,95.691,3.924,3.924,0,0,1-.07-.691v-3a1,1,0,0,1,1-1h1v-36a4,4,0,0,1,4-4h6v-8a4,4,0,0,1,4-4h28a4,4,0,0,1,4,4v8h6a4,4,0,0,1,4,4v32.46a97.007,97.007,0,0,0,55-87.46A97,97,0,0,0,1247.664-668.861Z" transform="translate(-1150.664 668.861)" fill="none"/>
      <path id="Path_299" data-name="Path 299" d="M1253.957-477.154l-1.707-1.707h-18.586v2a1.984,1.984,0,0,0,.294,1.032,97.812,97.812,0,0,0,13.7.968h.01a97.4,97.4,0,0,0,19.679-2h-12.684A1,1,0,0,1,1253.957-477.154Z" transform="translate(-1150.664 668.861)" fill="none"/>
      <path id="Path_300" data-name="Path 300" d="M1269.559-477.342c1.936-.447,3.847-.958,5.737-1.519h-4.218Z" transform="translate(-1150.664 668.861)" fill="none"/>
      <path id="Path_301" data-name="Path 301" d="M1277.664-528.861a2,2,0,0,0-2-2h-28a2,2,0,0,0-2,2v4h32Zm-28,2h-2v-2h2Zm4,0h-2v-2h2Zm4,0h-2v-2h2Z" transform="translate(-1150.664 668.861)" fill="none"/>
      <path id="Path_302" data-name="Path 302" d="M1279.664-493.861a4,4,0,0,1-4,4h-28a4,4,0,0,1-4-4v-21h-4v28h44v-28h-4Z" transform="translate(-1150.664 668.861)" fill="none"/>
      <path id="Path_303" data-name="Path 303" d="M1247.664-491.861h28a2,2,0,0,0,2-2v-29h-32v29A2,2,0,0,0,1247.664-491.861Zm27-11h-20v-2h20Zm-9.6-13.2,1.2-1.6,4,3a1.026,1.026,0,0,1,.2.2,1,1,0,0,1-.2,1.4l-4,3-1.2-1.6,2.933-2.2Zm-2.327-3.169,1.856.743-4,10-1.857-.743Zm-9.673,4.569,4-3,1.2,1.6-2.933,2.2,2.933,2.2-1.2,1.6-4-3a.975.975,0,0,1-.2-.2A1,1,0,0,1,1253.064-514.661Zm-2.4,9.8h2v2h-2Zm-2,4h26v2h-26Zm0,4h24v2h-24Z" transform="translate(-1150.664 668.861)" fill="none"/>
      <rect id="Rectangle_27" data-name="Rectangle 27" width="2" height="2" transform="translate(110 186)" fill="#8e71ff"/>
      <path id="Path_304" data-name="Path 304" d="M1247.664-474.861h0Z" transform="translate(-1150.664 668.861)" fill="#8e71ff"/>
      <path id="Path_305" data-name="Path 305" d="M1285.664-520.861h-6v-8a4,4,0,0,0-4-4h-28a4,4,0,0,0-4,4v8h-6a4,4,0,0,0-4,4v36h-1a1,1,0,0,0-1,1v3a3.924,3.924,0,0,0,.07.691q1.107.183,2.224.341a1.984,1.984,0,0,1-.294-1.032v-2h18.586l1.707,1.707a1,1,0,0,0,.707.293h12.684q1.11-.228,2.211-.481l1.519-1.519h4.218q3.053-.9,6.02-2h-10.652a1,1,0,0,0-.707.292l-1.707,1.708h-13.172l-1.707-1.708a1,1,0,0,0-.707-.292h-17v-36a2,2,0,0,1,2-2h6v2h-5a1,1,0,0,0-1,1v30a1,1,0,0,0,1,1h46a1,1,0,0,0,1-1v-30a1,1,0,0,0-1-1h-5v-2h6a2,2,0,0,1,2,2v33.394q1.007-.456,2-.934v-32.46A4,4,0,0,0,1285.664-520.861Zm-40-8a2,2,0,0,1,2-2h28a2,2,0,0,1,2,2v4h-32Zm0,6h32v29a2,2,0,0,1-2,2h-28a2,2,0,0,1-2-2Zm38,8v28h-44v-28h4v21a4,4,0,0,0,4,4h28a4,4,0,0,0,4-4v-21Z" transform="translate(-1150.664 668.861)" fill="#8e71ff"/>
      <rect id="Rectangle_28" data-name="Rectangle 28" width="26" height="2" transform="translate(98 168)" fill="#8e71ff"/>
      <rect id="Rectangle_29" data-name="Rectangle 29" width="24" height="2" transform="translate(98 172)" fill="#8e71ff"/>
      <rect id="Rectangle_30" data-name="Rectangle 30" width="20" height="2" transform="translate(104 164)" fill="#8e71ff"/>
      <rect id="Rectangle_31" data-name="Rectangle 31" width="2" height="2" transform="translate(97 140)" fill="#8e71ff"/>
      <rect id="Rectangle_32" data-name="Rectangle 32" width="2" height="2" transform="translate(101 140)" fill="#8e71ff"/>
      <rect id="Rectangle_33" data-name="Rectangle 33" width="2" height="2" transform="translate(105 140)" fill="#8e71ff"/>
      <rect id="Rectangle_34" data-name="Rectangle 34" width="2" height="2" transform="translate(100 164)" fill="#8e71ff"/>
      <path id="Path_306" data-name="Path 306" d="M1253.064-513.061l4,3,1.2-1.6-2.933-2.2,2.933-2.2-1.2-1.6-4,3a1,1,0,0,0-.2,1.4A.975.975,0,0,0,1253.064-513.061Z" transform="translate(-1150.664 668.861)" fill="#8e71ff"/>
      <path id="Path_307" data-name="Path 307" d="M1266.264-510.061l4-3a1,1,0,0,0,.2-1.4,1.026,1.026,0,0,0-.2-.2l-4-3-1.2,1.6,2.933,2.2-2.933,2.2Z" transform="translate(-1150.664 668.861)" fill="#8e71ff"/>
      <rect id="Rectangle_35" data-name="Rectangle 35" width="10.77" height="2" transform="matrix(0.371, -0.928, 0.928, 0.371, 108.072, 159.63)" fill="#8e71ff"/>
    </g>
    <g id="Group_45" data-name="Group 45">
      <path id="Path_308" data-name="Path 308" d="M1247.664-668.861a97,97,0,0,0-97,97,96.558,96.558,0,0,0,17.862,56.1l2.377-4.425,2.791.968,2.518.967,3.871-1.935,3.871,1.935,2.9-1.935h2.463l2.4,3.871-2.958,5.806h1.768l2.883,1.936,3.349-1.936,4.744,1.936,3.738-1.936.821.968-1.088,4.839-5.145,3.838h-18.25a96.649,96.649,0,0,0,66.081,26,97,97,0,0,0,97-97A97,97,0,0,0,1247.664-668.861Z" transform="translate(-1150.664 668.861)" fill="none"/>
      <path id="Path_309" data-name="Path 309" d="M1199.833-500.861l5.145-3.838,1.088-4.839-.821-.968-3.738,1.936-4.744-1.936-3.349,1.936-2.883-1.936h-1.768l2.958-5.806-2.4-3.871h-2.463l-2.9,1.935-3.871-1.935-3.871,1.935-2.518-.967-2.791-.968-2.377,4.425a97.432,97.432,0,0,0,13.057,14.9h18.25Z" transform="translate(-1150.664 668.861)" fill="#0019b7"/>
    </g>
    <g id="Group_46" data-name="Group 46">
      <rect id="Rectangle_36" data-name="Rectangle 36" width="3.871" height="1.935" transform="translate(44.903 143.839)" fill="none"/>
      <path id="Path_310" data-name="Path 310" d="M1211.051-505.667a3.875,3.875,0,0,0,3.871,3.871,3.875,3.875,0,0,0,3.871-3.871v-21.29h-7.742Zm5.807-2.9h-1.936v-1.936h1.936Zm0-7.742h-1.936v-1.936h1.936Zm-3.871-5.807h1.935v1.936h-1.935Zm0,7.742h1.935v1.936h-1.935Zm0,7.742h1.935v1.936h-1.935Z" transform="translate(-1150.664 668.861)" fill="none"/>
      <path id="Path_311" data-name="Path 311" d="M1183.954-513.409a.969.969,0,0,0-.967.968.969.969,0,0,0,.967.968.969.969,0,0,0,.968-.968A.969.969,0,0,0,1183.954-513.409Z" transform="translate(-1150.664 668.861)" fill="none"/>
      <path id="Path_312" data-name="Path 312" d="M1167.5-552.119a2.907,2.907,0,0,0,2.9-2.9,2.907,2.907,0,0,0-2.9-2.9,2.907,2.907,0,0,0-2.9,2.9A2.906,2.906,0,0,0,1167.5-552.119Z" transform="translate(-1150.664 668.861)" fill="none"/>
      <path id="Path_313" data-name="Path 313" d="M1205.245-509.538h-.167a.977.977,0,0,0-.684.284l-.8.8a2.881,2.881,0,0,1-2.053.851h-.333a2.879,2.879,0,0,1-2.052-.851l-.8-.8a.974.974,0,0,0-.684-.284h-.332a.979.979,0,0,0-.685.284l-.8.8a2.881,2.881,0,0,1-2.053.851h-.332a2.881,2.881,0,0,1-2.053-.851l-.8-.8a.974.974,0,0,0-.684-.284h-.166a7.751,7.751,0,0,0,7.742,7.742A7.751,7.751,0,0,0,1205.245-509.538Z" transform="translate(-1150.664 668.861)" fill="none"/>
      <path id="Path_314" data-name="Path 314" d="M1187.825-509.538a9.667,9.667,0,0,1,2.5-6.467l-1.751-3.21h-.912a.975.975,0,0,0-.684.283l-.8.8a2.882,2.882,0,0,1-2.052.85h-.333a2.886,2.886,0,0,1-2.053-.85l-.8-.8a.975.975,0,0,0-.684-.283h-.333a.975.975,0,0,0-.684.283l-.8.8a2.882,2.882,0,0,1-2.052.85h-.333a2.882,2.882,0,0,1-2.052-.85l-.8-.8a.973.973,0,0,0-.684-.283h-.912l-2.393,4.388q2.414,3.315,5.09,6.417c0-.054-.016-.105-.016-.16a2.907,2.907,0,0,1,2.9-2.9,2.906,2.906,0,0,1,2.9,2.9,2.907,2.907,0,0,1-2.9,2.9,2.839,2.839,0,0,1-.454-.046q1.877,2.012,3.859,3.917h11.136A9.66,9.66,0,0,1,1187.825-509.538Zm-12.58-2.9h-1.936v-1.936h1.936Zm11.613,8.709h-1.936v-1.935h-1.935v1.935h-1.936v-1.935h1.936V-507.6h1.935v1.935h1.936Zm-2.9-5.806a2.907,2.907,0,0,1-2.9-2.9,2.907,2.907,0,0,1,2.9-2.9,2.907,2.907,0,0,1,2.9,2.9A2.907,2.907,0,0,1,1183.954-509.538Z" transform="translate(-1150.664 668.861)" fill="none"/>
      <rect id="Rectangle_37" data-name="Rectangle 37" width="3.871" height="1.936" transform="translate(27.484 128.355)" fill="none"/>
      <path id="Path_315" data-name="Path 315" d="M1183.954-527.925v-4.839h-7.742v4.839a.96.96,0,0,1-.118.463l-3.45,6.325a2.868,2.868,0,0,1,1.916.837l.8.8a.974.974,0,0,0,.684.284h.333a.976.976,0,0,0,.684-.284l.8-.8a2.882,2.882,0,0,1,2.053-.851h.333a2.882,2.882,0,0,1,2.053.851l.8.8a.974.974,0,0,0,.684.284h.333a.978.978,0,0,0,.684-.284l.8-.8a2.874,2.874,0,0,1,1.916-.837l-3.45-6.325A.971.971,0,0,1,1183.954-527.925Z" transform="translate(-1150.664 668.861)" fill="none"/>
      <rect id="Rectangle_38" data-name="Rectangle 38" width="7.742" height="1.935" transform="translate(25.548 132.226)" fill="none"/>
      <path id="Path_316" data-name="Path 316" d="M1192.781-509.821a.976.976,0,0,0,.685.283h.332a.975.975,0,0,0,.684-.283l.8-.8a2.878,2.878,0,0,1,2.053-.85h.332a2.88,2.88,0,0,1,2.053.85l.8.8a.975.975,0,0,0,.684.283h.333a.975.975,0,0,0,.684-.283l.8-.8a2.882,2.882,0,0,1,1.952-.841,7.745,7.745,0,0,0-4.9-5.365.969.969,0,0,1-.645-.913v-3.409h-3.871v3.409a.968.968,0,0,1-.644.913,7.744,7.744,0,0,0-4.9,5.365,2.881,2.881,0,0,1,1.952.841Z" transform="translate(-1150.664 668.861)" fill="none"/>
      <path id="Path_317" data-name="Path 317" d="M1247.664-668.861a97,97,0,0,0-97,97,96.541,96.541,0,0,0,17.291,55.279l6.322-11.59v-4.592h-1.935V-534.7h1.935v-2.9a.968.968,0,0,1,.968-.968h.967v-2.9a.968.968,0,0,1,.968-.968h5.807a.967.967,0,0,1,.967.968v2.9h.968a.968.968,0,0,1,.968.968v2.9h1.935v1.935h-1.935v4.592l5.919,10.851a9.559,9.559,0,0,1,1.823-1.079v-6.622H1191.7v-1.935h11.613v1.935h-1.935v6.622a9.694,9.694,0,0,1,5.806,8.862,9.688,9.688,0,0,1-9.677,9.677,9.68,9.68,0,0,1-2.859-.431,4.849,4.849,0,0,1-1.98.431h-10a96.638,96.638,0,0,0,65,25,97,97,0,0,0,97-97A97,97,0,0,0,1247.664-668.861Zm-80.161,109a4.845,4.845,0,0,1,4.839,4.839,4.845,4.845,0,0,1-4.839,4.839,4.845,4.845,0,0,1-4.839-4.839A4.845,4.845,0,0,1,1167.5-559.861Zm-.968,27.1a3.875,3.875,0,0,1-3.871-3.871,3.875,3.875,0,0,1,3.871-3.871,3.875,3.875,0,0,1,3.871,3.871A3.875,3.875,0,0,1,1166.535-532.764Zm4.839-9.677a2.907,2.907,0,0,1-2.9-2.9,2.907,2.907,0,0,1,2.9-2.9,2.907,2.907,0,0,1,2.9,2.9A2.907,2.907,0,0,1,1171.374-542.441Zm25.161-11.613a.969.969,0,0,0-.968.968v.967h2.9a2.907,2.907,0,0,1,2.9,2.9v20.322h-1.936v-20.322a.969.969,0,0,0-.967-.968h-2.9v21.29h-1.935v-21.29h-9.678v5.806h-1.935v-5.806h-2.9a.969.969,0,0,0-.968.968v4.838h-1.936v-4.838a2.908,2.908,0,0,1,2.9-2.9h2.9v-4.838a2.907,2.907,0,0,1,2.9-2.9h32.9a2.908,2.908,0,0,1,2.9,2.9v8.709h-1.936v-8.709a.969.969,0,0,0-.968-.968h-32.9a.969.969,0,0,0-.968.968v4.838h9.678v-.967a2.907,2.907,0,0,1,2.9-2.9h11.613a2.907,2.907,0,0,1,2.9,2.9v4.838h-1.935v-4.838a.969.969,0,0,0-.968-.968Zm26.129,12.581a.967.967,0,0,1-.968.967h-.967v34.839a5.812,5.812,0,0,1-5.807,5.806,5.812,5.812,0,0,1-5.806-5.806v-34.839h-.968a.967.967,0,0,1-.968-.967v-3.871a.968.968,0,0,1,.968-.968H1221.7a.967.967,0,0,1,.968.968Z" transform="translate(-1150.664 668.861)" fill="none"/>
      <rect id="Rectangle_39" data-name="Rectangle 39" width="7.742" height="11.613" transform="translate(60.387 128.355)" fill="none"/>
      <path id="Path_318" data-name="Path 318" d="M1178.148-508.57a.969.969,0,0,0-.968-.968.969.969,0,0,0-.968.968.969.969,0,0,0,.968.968A.969.969,0,0,0,1178.148-508.57Z" transform="translate(-1150.664 668.861)" fill="none"/>
      <rect id="Rectangle_40" data-name="Rectangle 40" width="11.613" height="1.935" transform="translate(58.452 124.484)" fill="none"/>
      <path id="Path_319" data-name="Path 319" d="M1166.535-538.57a1.937,1.937,0,0,0-1.935,1.935,1.937,1.937,0,0,0,1.935,1.936,1.938,1.938,0,0,0,1.936-1.936A1.938,1.938,0,0,0,1166.535-538.57Z" transform="translate(-1150.664 668.861)" fill="none"/>
      <path id="Path_320" data-name="Path 320" d="M1171.374-546.312a.969.969,0,0,0-.968.968.969.969,0,0,0,.968.967.969.969,0,0,0,.968-.967A.969.969,0,0,0,1171.374-546.312Z" transform="translate(-1150.664 668.861)" fill="none"/>
      <path id="Path_321" data-name="Path 321" d="M1194.644-500.292a9.68,9.68,0,0,0,2.859.431,9.688,9.688,0,0,0,9.677-9.677,9.694,9.694,0,0,0-5.806-8.862v-6.622h1.935v-1.935H1191.7v1.935h1.936v6.622a9.559,9.559,0,0,0-1.823,1.079l-5.919-10.851v-4.592h1.935V-534.7h-1.935v-2.9a.968.968,0,0,0-.968-.968h-.968v-2.9a.967.967,0,0,0-.967-.968h-5.807a.968.968,0,0,0-.968.968v2.9h-.967a.968.968,0,0,0-.968.968v2.9h-1.935v1.935h1.935v4.592l-6.322,11.59q.614.885,1.248,1.755l2.393-4.388h.912a.973.973,0,0,1,.684.283l.8.8a2.882,2.882,0,0,0,2.052.85h.333a2.882,2.882,0,0,0,2.052-.85l.8-.8a.975.975,0,0,1,.684-.283h.333a.975.975,0,0,1,.684.283l.8.8a2.886,2.886,0,0,0,2.053.85h.333a2.882,2.882,0,0,0,2.052-.85l.8-.8a.975.975,0,0,1,.684-.283h.912l1.751,3.21a9.667,9.667,0,0,0-2.5,6.467,9.66,9.66,0,0,0,3.9,7.742h-11.136q1.028.982,2.083,1.935h10A4.849,4.849,0,0,0,1194.644-500.292Zm-16.5-40.214h3.871v1.936h-3.871Zm-1.936,3.871h7.742v1.936h-7.742Zm9.394,16.335-.8.8a.978.978,0,0,1-.684.284h-.333a.974.974,0,0,1-.684-.284l-.8-.8a2.882,2.882,0,0,0-2.053-.851h-.333a2.882,2.882,0,0,0-2.053.851l-.8.8a.976.976,0,0,1-.684.284h-.333a.974.974,0,0,1-.684-.284l-.8-.8a2.868,2.868,0,0,0-1.916-.837l3.45-6.325a.96.96,0,0,0,.118-.463v-4.839h7.742v4.839a.971.971,0,0,0,.118.463l3.45,6.325A2.874,2.874,0,0,0,1185.606-520.3Zm9.961-4.722h3.871v1.936h-3.871Zm-.644,8.193a.968.968,0,0,0,.644-.913v-3.409h3.871v3.409a.969.969,0,0,0,.645.913,7.745,7.745,0,0,1,4.9,5.365,2.882,2.882,0,0,0-1.952.841l-.8.8a.975.975,0,0,1-.684.283h-.333a.975.975,0,0,1-.684-.283l-.8-.8a2.88,2.88,0,0,0-2.053-.85h-.332a2.878,2.878,0,0,0-2.053.85l-.8.8a.975.975,0,0,1-.684.283h-.332a.976.976,0,0,1-.685-.283l-.8-.8a2.881,2.881,0,0,0-1.952-.841A7.744,7.744,0,0,1,1194.923-516.829Zm-5.162,7.291h.166a.974.974,0,0,1,.684.284l.8.8a2.881,2.881,0,0,0,2.053.851h.332a2.881,2.881,0,0,0,2.053-.851l.8-.8a.979.979,0,0,1,.685-.284h.332a.974.974,0,0,1,.684.284l.8.8a2.879,2.879,0,0,0,2.052.851h.333a2.881,2.881,0,0,0,2.053-.851l.8-.8a.977.977,0,0,1,.684-.284h.167a7.751,7.751,0,0,1-7.742,7.742A7.751,7.751,0,0,1,1189.761-509.538Z" transform="translate(-1150.664 668.861)" fill="#8e71ff"/>
      <path id="Path_322" data-name="Path 322" d="M1180.083-508.57a2.906,2.906,0,0,0-2.9-2.9,2.907,2.907,0,0,0-2.9,2.9c0,.055.013.106.016.16.793.915,1.607,1.812,2.433,2.7a2.839,2.839,0,0,0,.454.046A2.907,2.907,0,0,0,1180.083-508.57Zm-3.871,0a.969.969,0,0,1,.968-.968.969.969,0,0,1,.968.968.969.969,0,0,1-.968.968A.969.969,0,0,1,1176.212-508.57Z" transform="translate(-1150.664 668.861)" fill="#8e71ff"/>
      <path id="Path_323" data-name="Path 323" d="M1183.954-515.344a2.907,2.907,0,0,0-2.9,2.9,2.907,2.907,0,0,0,2.9,2.9,2.907,2.907,0,0,0,2.9-2.9A2.907,2.907,0,0,0,1183.954-515.344Zm0,3.871a.969.969,0,0,1-.967-.968.969.969,0,0,1,.967-.968.969.969,0,0,1,.968.968A.969.969,0,0,1,1183.954-511.473Z" transform="translate(-1150.664 668.861)" fill="#8e71ff"/>
      <rect id="Rectangle_41" data-name="Rectangle 41" width="1.936" height="1.935" transform="translate(34.258 163.194)" fill="#8e71ff"/>
      <rect id="Rectangle_42" data-name="Rectangle 42" width="1.935" height="1.935" transform="translate(32.323 161.259)" fill="#8e71ff"/>
      <rect id="Rectangle_43" data-name="Rectangle 43" width="1.935" height="1.935" transform="translate(30.387 163.194)" fill="#8e71ff"/>
      <rect id="Rectangle_44" data-name="Rectangle 44" width="1.935" height="1.935" transform="translate(22.645 154.484)" fill="#8e71ff"/>
      <path id="Path_324" data-name="Path 324" d="M1221.7-546.312h-13.548a.968.968,0,0,0-.968.968v3.871a.967.967,0,0,0,.968.967h.968v34.839a5.812,5.812,0,0,0,5.806,5.806,5.812,5.812,0,0,0,5.807-5.806v-34.839h.967a.967.967,0,0,0,.968-.967v-3.871A.967.967,0,0,0,1221.7-546.312Zm-2.9,40.645a3.875,3.875,0,0,1-3.871,3.871,3.875,3.875,0,0,1-3.871-3.871v-21.29h7.742Zm0-23.226h-7.742v-11.613h7.742Zm1.936-13.548h-11.613v-1.936h11.613Z" transform="translate(-1150.664 668.861)" fill="#8e71ff"/>
      <rect id="Rectangle_45" data-name="Rectangle 45" width="1.935" height="1.935" transform="translate(62.323 162.226)" fill="#8e71ff"/>
      <rect id="Rectangle_46" data-name="Rectangle 46" width="1.936" height="1.936" transform="translate(64.258 158.355)" fill="#8e71ff"/>
      <rect id="Rectangle_47" data-name="Rectangle 47" width="1.935" height="1.935" transform="translate(62.323 154.484)" fill="#8e71ff"/>
      <rect id="Rectangle_48" data-name="Rectangle 48" width="1.936" height="1.935" transform="translate(64.258 150.613)" fill="#8e71ff"/>
      <rect id="Rectangle_49" data-name="Rectangle 49" width="1.935" height="1.936" transform="translate(62.323 146.742)" fill="#8e71ff"/>
      <path id="Path_325" data-name="Path 325" d="M1209.116-553.086v4.838h1.935v-4.838a2.907,2.907,0,0,0-2.9-2.9h-11.613a2.907,2.907,0,0,0-2.9,2.9v.967h-9.678v-4.838a.969.969,0,0,1,.968-.968h32.9a.969.969,0,0,1,.968.968v8.709h1.936v-8.709a2.908,2.908,0,0,0-2.9-2.9h-32.9a2.907,2.907,0,0,0-2.9,2.9v4.838h-2.9a2.908,2.908,0,0,0-2.9,2.9v4.838h1.936v-4.838a.969.969,0,0,1,.968-.968h2.9v5.806h1.935v-5.806h9.678v21.29h1.935v-21.29h2.9a.969.969,0,0,1,.967.968v20.322h1.936v-20.322a2.907,2.907,0,0,0-2.9-2.9h-2.9v-.967a.969.969,0,0,1,.968-.968h11.613A.969.969,0,0,1,1209.116-553.086Z" transform="translate(-1150.664 668.861)" fill="#8e71ff"/>
      <path id="Path_326" data-name="Path 326" d="M1171.374-548.248a2.907,2.907,0,0,0-2.9,2.9,2.907,2.907,0,0,0,2.9,2.9,2.907,2.907,0,0,0,2.9-2.9A2.907,2.907,0,0,0,1171.374-548.248Zm0,3.871a.969.969,0,0,1-.968-.967.969.969,0,0,1,.968-.968.969.969,0,0,1,.968.968A.969.969,0,0,1,1171.374-544.377Z" transform="translate(-1150.664 668.861)" fill="#8e71ff"/>
      <path id="Path_327" data-name="Path 327" d="M1167.5-550.183a4.845,4.845,0,0,0,4.839-4.839,4.845,4.845,0,0,0-4.839-4.839,4.845,4.845,0,0,0-4.839,4.839A4.845,4.845,0,0,0,1167.5-550.183Zm0-7.742a2.907,2.907,0,0,1,2.9,2.9,2.907,2.907,0,0,1-2.9,2.9,2.906,2.906,0,0,1-2.9-2.9A2.907,2.907,0,0,1,1167.5-557.925Z" transform="translate(-1150.664 668.861)" fill="#8e71ff"/>
      <path id="Path_328" data-name="Path 328" d="M1166.535-540.506a3.875,3.875,0,0,0-3.871,3.871,3.875,3.875,0,0,0,3.871,3.871,3.875,3.875,0,0,0,3.871-3.871A3.875,3.875,0,0,0,1166.535-540.506Zm0,5.807a1.937,1.937,0,0,1-1.935-1.936,1.937,1.937,0,0,1,1.935-1.935,1.938,1.938,0,0,1,1.936,1.935A1.938,1.938,0,0,1,1166.535-534.7Z" transform="translate(-1150.664 668.861)" fill="#8e71ff"/>
    </g>
    <g id="Group_47" data-name="Group 47">
      <path id="Path_329" data-name="Path 329" d="M1246.2-633.9a6.165,6.165,0,0,0-.1,1.4,8.111,8.111,0,0,0,5.309,7.612.963.963,0,0,1,.7.9v.5a3.525,3.525,0,0,1-2,3.406l2.5,1.3a3.664,3.664,0,0,0,2.9,0l2.6-1.3a3.525,3.525,0,0,1-2-3.406v-.6a.963.963,0,0,1,.7-.9,7.886,7.886,0,0,0,5.309-7.512h-11.018A9.076,9.076,0,0,1,1246.2-633.9Z" transform="translate(-1150.664 668.861)" fill="none"/>
      <path id="Path_330" data-name="Path 330" d="M1284.044-661.8c0,.087.02.169.016.257v23.137c0,11.018-10.517,11.018-14.022,11.018a.947.947,0,0,1-1-1,.946.946,0,0,1,1-1h.4a4.041,4.041,0,0,0,3.606-4.407,4.213,4.213,0,0,0-4.207-3.606h-6.711a7.927,7.927,0,0,1,1,4.006v.7a9.969,9.969,0,0,1-6.01,9.515c0,.6.3,1.8,3.005,1.8a4.959,4.959,0,0,1,5.008,5.008v5.008h-2v-5.008a2.975,2.975,0,0,0-2.8-3.005l-4.908,2.4a4.979,4.979,0,0,1-1.3.4v5.108h-2v-5.108a6.988,6.988,0,0,1-1.3-.5l-4.907-2.4a2.975,2.975,0,0,0-2.805,3v5.008h-2v-5.008a4.959,4.959,0,0,1,5.008-5.008c2.7,0,3.005-1.2,3.005-1.8a10.123,10.123,0,0,1-6.01-9.215,9.672,9.672,0,0,1,.4-2.905,8.989,8.989,0,0,1-2.4-6.11.945.945,0,0,1,1-1h9.015v-2h-13.822a4.212,4.212,0,0,0-4.207,3.605v.4a4.018,4.018,0,0,0,4.006,4.006.947.947,0,0,1,1,1,.947.947,0,0,1-1,1c-3.505,0-14.022,0-14.022-11.018v-20.446a97.035,97.035,0,0,0-73.4,94.1,97,97,0,0,0,97,97,97,97,0,0,0,97-97A97.026,97.026,0,0,0,1284.044-661.8Z" transform="translate(-1150.664 668.861)" fill="none"/>
      <path id="Path_331" data-name="Path 331" d="M1233.279-636.9a6.3,6.3,0,0,1-1.2-4.207,6.262,6.262,0,0,1,6.21-5.409h17.828a2.008,2.008,0,0,0,2-2v-19.03a1.984,1.984,0,0,0-.153-.764,98.177,98.177,0,0,0-10.3-.545,97.324,97.324,0,0,0-21.6,2.417v20.927C1226.067-640.609,1228.371-637.905,1233.279-636.9Z" transform="translate(-1150.664 668.861)" fill="none"/>
      <path id="Path_332" data-name="Path 332" d="M1251.107-634.5h10.918a7.008,7.008,0,0,0-6.911-6.01H1244.2A7.009,7.009,0,0,0,1251.107-634.5Z" transform="translate(-1150.664 668.861)" fill="none"/>
      <path id="Path_333" data-name="Path 333" d="M1260.122-648.522a4.019,4.019,0,0,1-4.007,4.007h-2v2h1a8.953,8.953,0,0,1,6.71,3.005h8.113a6.187,6.187,0,0,1,6.21,5.408,6.3,6.3,0,0,1-1.2,4.207c4.908-1,7.212-3.706,7.212-8.614v-23.037a1.989,1.989,0,0,0-.356-1.133q-1.2-.45-2.407-.87h-19.272Z" transform="translate(-1150.664 668.861)" fill="none"/>
      <path id="Path_334" data-name="Path 334" d="M1260.122-665.549h12.736a96.388,96.388,0,0,0-12.789-2.525,3.882,3.882,0,0,1,.053.522Z" transform="translate(-1150.664 668.861)" fill="none"/>
      <path id="Path_335" data-name="Path 335" d="M1238.086-634.5a.947.947,0,0,0,1-1,.947.947,0,0,0-1-1,4.018,4.018,0,0,1-4.006-4.006v-.4a4.212,4.212,0,0,1,4.207-3.605h13.822v2h-9.015a.945.945,0,0,0-1,1,8.989,8.989,0,0,0,2.4,6.11,9.672,9.672,0,0,0-.4,2.905,10.123,10.123,0,0,0,6.01,9.215c0,.6-.3,1.8-3.005,1.8a4.959,4.959,0,0,0-5.008,5.008v5.008h2v-5.008a2.975,2.975,0,0,1,2.805-3l4.907,2.4a6.988,6.988,0,0,0,1.3.5v5.108h2v-5.108a4.979,4.979,0,0,0,1.3-.4l4.908-2.4a2.975,2.975,0,0,1,2.8,3.005v5.008h2v-5.008a4.959,4.959,0,0,0-5.008-5.008c-2.7,0-3.005-1.2-3.005-1.8a9.969,9.969,0,0,0,6.01-9.515v-.7a7.927,7.927,0,0,0-1-4.006h6.711a4.213,4.213,0,0,1,4.207,3.606,4.041,4.041,0,0,1-3.606,4.407h-.4a.946.946,0,0,0-1,1,.947.947,0,0,0,1,1c3.505,0,14.022,0,14.022-11.018v-23.137c0-.088-.014-.17-.016-.257q-1.114-.452-2.243-.876a1.989,1.989,0,0,1,.356,1.133v23.037c0,4.908-2.3,7.612-7.212,8.614a6.3,6.3,0,0,0,1.2-4.207,6.187,6.187,0,0,0-6.21-5.408h-8.113a8.953,8.953,0,0,0-6.71-3.005h-1v-2h2a4.019,4.019,0,0,0,4.007-4.007v-15.024h19.272q-3.218-1.113-6.536-2h-12.736v-2a3.882,3.882,0,0,0-.053-.522c-.7-.089-1.4-.168-2.1-.242a1.984,1.984,0,0,1,.153.764v19.03a2.008,2.008,0,0,1-2,2h-17.828a6.262,6.262,0,0,0-6.21,5.409,6.3,6.3,0,0,0,1.2,4.207c-4.908-1-7.212-3.706-7.212-8.614v-20.927q-1.007.229-2,.481v20.446C1224.064-634.5,1234.581-634.5,1238.086-634.5Zm18.73,9.515a.963.963,0,0,0-.7.9v.6a3.525,3.525,0,0,0,2,3.406l-2.6,1.3a3.664,3.664,0,0,1-2.9,0l-2.5-1.3a3.525,3.525,0,0,0,2-3.406v-.5a.963.963,0,0,0-.7-.9,8.111,8.111,0,0,1-5.309-7.612,6.165,6.165,0,0,1,.1-1.4,9.076,9.076,0,0,0,4.908,1.4h11.018A7.886,7.886,0,0,1,1256.816-624.984Zm-1.7-15.525a7.008,7.008,0,0,1,6.911,6.01h-10.918a7.009,7.009,0,0,1-6.911-6.01Z" transform="translate(-1150.664 668.861)" fill="#8e71ff"/>
    </g>
    <g id="Group_48" data-name="Group 48">
      <path id="Path_336" data-name="Path 336" d="M1168.212-617.6v-4.839h-3.328q-.59.96-1.154,1.935h.612v1.936h-1.706q-.528.96-1.036,1.935h5.645A.968.968,0,0,0,1168.212-617.6Z" transform="translate(-1150.664 668.861)" fill="none"/>
      <path id="Path_337" data-name="Path 337" d="M1168.212-627.511q-1.085,1.547-2.112,3.134h2.112Z" transform="translate(-1150.664 668.861)" fill="none"/>
      <path id="Path_338" data-name="Path 338" d="M1158.535-594.377v8.71h13.548v-8.71a.967.967,0,0,0-.967-.967H1159.5A.968.968,0,0,0,1158.535-594.377Z" transform="translate(-1150.664 668.861)" fill="none"/>
      <path id="Path_339" data-name="Path 339" d="M1156.6-582.764a.968.968,0,0,0,.967.968h15.484a.969.969,0,0,0,.968-.968v-.968H1156.6Z" transform="translate(-1150.664 668.861)" fill="none"/>
      <rect id="Rectangle_50" data-name="Rectangle 50" width="3.871" height="1.935" transform="translate(52.387 44.484)" fill="none"/>
      <path id="Path_340" data-name="Path 340" d="M1247.664-668.861a96.848,96.848,0,0,0-77.516,38.686V-617.6a2.907,2.907,0,0,1-2.9,2.9h-3.871v2.9h7.174a6.738,6.738,0,0,1,2.042-.813,7.787,7.787,0,0,1,7.235-4.993,7.7,7.7,0,0,1,3.157.678,7.772,7.772,0,0,1,6.521-3.582,7.751,7.751,0,0,1,7.742,7.742c0,.095,0,.19-.007.288a6.757,6.757,0,0,1,2.787,1.648h3.994v-9.678h-4.839v-1.935h1.936v-1.936h-2.9a2.907,2.907,0,0,1-2.9-2.9v-9.677a2.908,2.908,0,0,1,2.9-2.9h13.549a2.907,2.907,0,0,1,2.9,2.9v9.677a2.907,2.907,0,0,1-2.9,2.9h-2.9v1.936h1.935v1.935h-4.839v11.613H1201.4a6.663,6.663,0,0,1,.6,1.936h5.888v9.677h6.774v17.419H1199.18V-597.28h6.774v-7.742h-3.948a6.779,6.779,0,0,1-6.7,5.807h-21.29a6.783,6.783,0,0,1-6.774-6.775h-1.936v8.71h5.807a2.907,2.907,0,0,1,2.9,2.9v8.71h1.935v2.9a2.906,2.906,0,0,1-2.9,2.9h-15.484a2.907,2.907,0,0,1-2.9-2.9v-2.9h1.936v-8.71a2.907,2.907,0,0,1,2.9-2.9h3.871v-10.645h4.174a6.768,6.768,0,0,1,.941-1.936h-7.051V-614.7h-.818a96.587,96.587,0,0,0-9.956,42.838,97,97,0,0,0,97,97,97,97,0,0,0,97-97A97,97,0,0,0,1247.664-668.861Z" transform="translate(-1150.664 668.861)" fill="none"/>
      <path id="Path_341" data-name="Path 341" d="M1212.729-627.28v-.968h-15.484v.968a.968.968,0,0,0,.967.968h13.549A.969.969,0,0,0,1212.729-627.28Z" transform="translate(-1150.664 668.861)" fill="none"/>
      <path id="Path_342" data-name="Path 342" d="M1174.019-601.151h21.29a4.845,4.845,0,0,0,4.839-4.839,4.865,4.865,0,0,0-4.1-4.776l-.957-.145.146-.958a5.906,5.906,0,0,0,.076-.895,5.812,5.812,0,0,0-5.806-5.806,5.826,5.826,0,0,0-5.256,3.355l-.461.984-.924-.57a5.789,5.789,0,0,0-3.037-.866,5.834,5.834,0,0,0-5.573,4.187l-.179.614-.635.076a4.837,4.837,0,0,0-4.258,4.8A4.845,4.845,0,0,0,1174.019-601.151Z" transform="translate(-1150.664 668.861)" fill="none"/>
      <path id="Path_343" data-name="Path 343" d="M1201.116-581.8h11.613V-587.6h-11.613Zm7.742-3.871h1.935v1.935h-1.935Zm-5.807,0h3.871v1.935h-3.871Z" transform="translate(-1150.664 668.861)" fill="none"/>
      <path id="Path_344" data-name="Path 344" d="M1201.116-589.538h11.613v-5.806h-11.613Zm5.806-3.871h3.871v1.936h-3.871Zm-3.871,0h1.936v1.936h-1.936Z" transform="translate(-1150.664 668.861)" fill="none"/>
      <path id="Path_345" data-name="Path 345" d="M1212.729-636.957a.969.969,0,0,0-.968-.968h-13.549a.968.968,0,0,0-.967.968v6.774h15.484Z" transform="translate(-1150.664 668.861)" fill="none"/>
      <path id="Path_346" data-name="Path 346" d="M1164.342-620.506h-.612q-.558.961-1.094,1.936h1.706Z" transform="translate(-1150.664 668.861)" fill="#8e71ff"/>
      <path id="Path_347" data-name="Path 347" d="M1161.438-609.861h7.051a6.768,6.768,0,0,0-.941,1.936h-4.174v10.645H1159.5a2.907,2.907,0,0,0-2.9,2.9v8.71h-1.936v2.9a2.907,2.907,0,0,0,2.9,2.9h15.484a2.906,2.906,0,0,0,2.9-2.9v-2.9h-1.935v-8.71a2.907,2.907,0,0,0-2.9-2.9h-5.807v-8.71h1.936a6.783,6.783,0,0,0,6.774,6.775h21.29a6.779,6.779,0,0,0,6.7-5.807h3.948v7.742h-6.774v17.419h15.484V-597.28h-6.774v-9.677H1202a6.663,6.663,0,0,0-.6-1.936h4.554v-11.613h4.839v-1.935h-1.935v-1.936h2.9a2.907,2.907,0,0,0,2.9-2.9v-9.677a2.907,2.907,0,0,0-2.9-2.9h-13.549a2.908,2.908,0,0,0-2.9,2.9v9.677a2.907,2.907,0,0,0,2.9,2.9h2.9v1.936h-1.936v1.935h4.839v9.678h-3.994a6.757,6.757,0,0,0-2.787-1.648c.005-.1.007-.193.007-.288a7.751,7.751,0,0,0-7.742-7.742,7.772,7.772,0,0,0-6.521,3.582,7.7,7.7,0,0,0-3.157-.678,7.787,7.787,0,0,0-7.235,4.993,6.738,6.738,0,0,0-2.042.813h-7.174v-2.9h3.871a2.907,2.907,0,0,0,2.9-2.9v-12.573q-.99,1.314-1.936,2.664v3.134H1166.1q-.619.96-1.216,1.936h3.328v4.839a.968.968,0,0,1-.967.967H1161.6q-.5.961-.98,1.936h.818Zm12.581,26.129v.968a.969.969,0,0,1-.968.968h-15.484a.968.968,0,0,1-.967-.968v-.968Zm-2.9-11.612a.967.967,0,0,1,.967.967v8.71h-13.548v-8.71a.968.968,0,0,1,.968-.967Zm41.613,13.548h-11.613V-587.6h11.613Zm0-13.548v5.806h-11.613v-5.806Zm-15.484-41.613a.968.968,0,0,1,.967-.968h13.549a.969.969,0,0,1,.968.968v6.774h-15.484Zm.967,10.645a.968.968,0,0,1-.967-.968v-.968h15.484v.968a.969.969,0,0,1-.968.968Zm4.839,3.871v-1.936h3.871v1.936Zm-29.613,11.651.635-.076.179-.614a5.834,5.834,0,0,1,5.573-4.187,5.789,5.789,0,0,1,3.037.866l.924.57.461-.984a5.826,5.826,0,0,1,5.256-3.355,5.812,5.812,0,0,1,5.806,5.806,5.906,5.906,0,0,1-.076.895l-.146.958.957.145a4.865,4.865,0,0,1,4.1,4.776,4.845,4.845,0,0,1-4.839,4.839h-21.29a4.845,4.845,0,0,1-4.839-4.839A4.837,4.837,0,0,1,1173.438-610.79Z" transform="translate(-1150.664 668.861)" fill="#8e71ff"/>
      <rect id="Rectangle_51" data-name="Rectangle 51" width="1.935" height="1.935" transform="translate(52.387 75.452)" fill="#8e71ff"/>
      <rect id="Rectangle_52" data-name="Rectangle 52" width="1.936" height="1.935" transform="translate(58.194 83.194)" fill="#8e71ff"/>
      <rect id="Rectangle_53" data-name="Rectangle 53" width="3.871" height="1.935" transform="translate(56.258 75.452)" fill="#8e71ff"/>
      <rect id="Rectangle_54" data-name="Rectangle 54" width="3.871" height="1.935" transform="translate(52.387 83.194)" fill="#8e71ff"/>
    </g>
  </g>
</svg>
