<svg xmlns="http://www.w3.org/2000/svg" xmlns:xlink="http://www.w3.org/1999/xlink" width="239" height="239" viewBox="0 0 239 239">
  <defs>
    <filter id="Ellipse_8" x="0" y="0" width="239" height="239" filterUnits="userSpaceOnUse">
      <feOffset dy="3" input="SourceAlpha"/>
      <feGaussianBlur stdDeviation="7.5" result="blur"/>
      <feFlood flood-opacity="0.263"/>
      <feComposite operator="in" in2="blur"/>
      <feComposite in="SourceGraphic"/>
    </filter>
    <filter id="Path_11" x="138.013" y="19.294" width="98.836" height="76.101" filterUnits="userSpaceOnUse">
      <feOffset dy="3" input="SourceAlpha"/>
      <feGaussianBlur stdDeviation="3" result="blur-2"/>
      <feFlood flood-opacity="0.314"/>
      <feComposite operator="in" in2="blur-2"/>
      <feComposite in="SourceGraphic"/>
    </filter>
  </defs>
  <g id="Group_33" data-name="Group 33" transform="translate(22.5 19.5)">
    <g transform="matrix(1, 0, 0, 1, -22.5, -19.5)" filter="url(#Ellipse_8)">
      <circle id="Ellipse_8-2" data-name="Ellipse 8" cx="97" cy="97" r="97" transform="translate(22.5 19.5)" fill="#d9d9d9"/>
    </g>
    <g transform="matrix(1, 0, 0, 1, -22.5, -19.5)" filter="url(#Path_11)">
      <path id="Path_11-2" data-name="Path 11" d="M1442.658,151.493a11.365,11.365,0,0,0-16.92-13.545,18.946,18.946,0,0,0-35.367,9.45c0,.32.012.641.024.958a17.056,17.056,0,0,0,5.659,33.144h43.576a15.156,15.156,0,0,0,3.031-30Z" transform="translate(-1229.43 -100.6)" fill="#0019b7" stroke="#8e71ff" stroke-miterlimit="10" stroke-width="5"/>
    </g>
    <line id="Line_14" data-name="Line 14" x1="69" y2="36" transform="translate(57.567 64.395)" fill="none" stroke="#8e71ff" stroke-miterlimit="10" stroke-width="2"/>
    <line id="Line_15" data-name="Line 15" x1="60" y1="2" transform="translate(60.567 115.395)" fill="none" stroke="#8e71ff" stroke-miterlimit="10" stroke-width="2"/>
    <line id="Line_16" data-name="Line 16" x2="7" y2="8" transform="translate(40.067 146.895)" fill="none" stroke="#8e71ff" stroke-miterlimit="10" stroke-width="2"/>
    <line id="Line_17" data-name="Line 17" y1="8" x2="8" transform="translate(34.067 63.895)" fill="none" stroke="#8e71ff" stroke-miterlimit="10" stroke-width="2"/>
    <line id="Line_18" data-name="Line 18" y2="15" transform="translate(167.067 68.895)" fill="none" stroke="#8e71ff" stroke-miterlimit="10" stroke-width="2"/>
    <line id="Line_19" data-name="Line 19" x1="7" y2="4" transform="translate(118.067 150.895)" fill="none" stroke="#8e71ff" stroke-miterlimit="10" stroke-width="2"/>
    <line id="Line_20" data-name="Line 20" x1="40" y1="31" transform="translate(90.067 68.895)" fill="none" stroke="#8e71ff" stroke-miterlimit="10" stroke-width="2"/>
    <g id="Group_25" data-name="Group 25" transform="translate(0 0)">
      <path id="Path_227" data-name="Path 227" d="M1338.966,313.21v.388q1.389.143,2.791.242v-.63Z" transform="translate(-1251.933 -120.105)" fill="none"/>
      <path id="Path_228" data-name="Path 228" d="M1348.933,120.105a97.011,97.011,0,0,0-38.817,185.913v-5.825a1.86,1.86,0,0,1,1.86-1.86h4.652v1.86h-4.652v6.616q3.6,1.484,7.332,2.682h1.981V306.7H1318.5v-1.859h2.791v-2.79H1318.5v-1.859h2.791V297.4H1318.5v-1.859h2.791v-2.79H1318.5v-1.859h2.791a2.028,2.028,0,0,1,1.861-1.86v-2.789h1.86v2.789h2.792v-2.789h1.86v2.789h2.791v-2.789h1.861v2.789h2.791v-2.789h1.861v2.789h2.791v-2.789h1.86v2.789a2.028,2.028,0,0,1,1.861,1.86h2.791v1.859h-2.791v2.79h2.791V297.4h-2.791v2.79h2.791v1.859h-2.791v2.79h2.791V306.7h-2.791v2.79h2.791v1.859h-2.791a2.028,2.028,0,0,1-1.861,1.86v.748q2.64.143,5.316.147a97,97,0,0,0,0-194Zm7.7,181.947a1.861,1.861,0,0,1-1.861,1.86h-4.652v-1.86h4.652V279.737h-22.328v4.649h-1.861v-4.649a1.86,1.86,0,0,1,1.861-1.859h22.328a1.86,1.86,0,0,1,1.861,1.859Z" transform="translate(-1251.933 -120.105)" fill="none"/>
      <path id="Path_229" data-name="Path 229" d="M1335.753,313.21c.45.061.9.121,1.352.176v-.176Z" transform="translate(-1251.933 -120.105)" fill="none"/>
      <path id="Path_230" data-name="Path 230" d="M1343.617,311.183V291.062a.167.167,0,0,0-.167-.167h-20.133a.167.167,0,0,0-.167.167v19.572q1.375.378,2.768.716h17.532A.167.167,0,0,0,1343.617,311.183Z" transform="translate(-1251.933 -120.105)" fill="none"/>
      <path id="Path_231" data-name="Path 231" d="M1354.772,277.878h-22.328a1.86,1.86,0,0,0-1.861,1.859v4.649h1.861v-4.649h22.328v22.315h-4.652v1.86h4.652a1.861,1.861,0,0,0,1.861-1.86V279.737A1.86,1.86,0,0,0,1354.772,277.878Z" transform="translate(-1251.933 -120.105)" fill="#8e71ff"/>
      <path id="Path_232" data-name="Path 232" d="M1316.628,300.193v-1.86h-4.652a1.86,1.86,0,0,0-1.86,1.86v5.825q.926.4,1.86.791v-6.616Z" transform="translate(-1251.933 -120.105)" fill="#8e71ff"/>
      <path id="Path_233" data-name="Path 233" d="M1345.478,311.35h2.791v-1.859h-2.791V306.7h2.791v-1.859h-2.791v-2.79h2.791v-1.859h-2.791V297.4h2.791v-1.859h-2.791v-2.79h2.791v-1.859h-2.791a2.028,2.028,0,0,0-1.861-1.86v-2.789h-1.86v2.789h-2.791v-2.789H1337.1v2.789h-2.791v-2.789h-1.861v2.789h-2.791v-2.789h-1.86v2.789h-2.792v-2.789h-1.86v2.789a2.028,2.028,0,0,0-1.861,1.86H1318.5v1.859h2.791v2.79H1318.5V297.4h2.791v2.79H1318.5v1.859h2.791v2.79H1318.5V306.7h2.791v2.79h-1.981q1.905.609,3.842,1.143V291.062a.167.167,0,0,1,.167-.167h20.133a.167.167,0,0,1,.167.167v20.121a.167.167,0,0,1-.167.167h-17.532a96.311,96.311,0,0,0,9.835,1.86h1.352v.176c.619.075,1.238.149,1.861.212v-.388h2.791v.63q.927.068,1.86.118v-.748A2.028,2.028,0,0,0,1345.478,311.35Z" transform="translate(-1251.933 -120.105)" fill="#8e71ff"/>
    </g>
    <g id="Group_26" data-name="Group 26" transform="translate(0 0)">
      <path id="Path_234" data-name="Path 234" d="M1338.25,151.747a9,9,0,1,0,9,9A9,9,0,0,0,1338.25,151.747Zm5,9.8h-4v4h-2v-4h-4v-2h4v-4h2v4h4Z" transform="translate(-1251.933 -120.105)" fill="none"/>
      <path id="Path_235" data-name="Path 235" d="M1348.933,120.105a97.194,97.194,0,0,0-23,2.751l12.629,4.061a1,1,0,0,1,.69.94V147.8a9.975,9.975,0,0,0-2,0v-19.21l-14.916-4.789a96.36,96.36,0,0,0-21.084,8.823v17.416a29.363,29.363,0,0,0,2.3,10.45c3,6.81,8.25,10.26,15.7,10.26a18.385,18.385,0,0,0,8.76-2l1.32,1.5v.1a20.165,20.165,0,0,1-10.08,2.4c-10.36,0-15.25-6.23-17.5-11.5a31.1,31.1,0,0,1-2.5-11.21V133.784a97.014,97.014,0,1,0,49.683-13.679Zm-29.7,47.382c-4.96,0-9.13-2.68-12.07-7.74a26.975,26.975,0,0,1-2.91-7.55,1.2,1.2,0,0,1,0-.19v-19.74a1,1,0,0,1,.65-.94l14-5.26a1.051,1.051,0,0,1,.7,0l14,5.26a1,1,0,0,1,.67.92v16.17a12.254,12.254,0,0,0-2,.83v-16.27l-12-4.5v37a10.151,10.151,0,0,0,5-1.82l.24-.17a13.528,13.528,0,0,0,.6,2A12.184,12.184,0,0,1,1319.23,167.487Zm19.02,4.26a11,11,0,1,1,11-11A11,11,0,0,1,1338.25,171.747Z" transform="translate(-1251.933 -120.105)" fill="none"/>
      <path id="Path_236" data-name="Path 236" d="M1306.25,151.907c.24,1.13,3,12.73,12,13.55v-37l-12,4.5Z" transform="translate(-1251.933 -120.105)" fill="none"/>
      <path id="Path_237" data-name="Path 237" d="M1301.75,161.247c2.25,5.27,7.14,11.5,17.5,11.5a20.165,20.165,0,0,0,10.08-2.4v-.1l-1.32-1.5a18.385,18.385,0,0,1-8.76,2c-7.45,0-12.7-3.45-15.7-10.26a29.363,29.363,0,0,1-2.3-10.45V132.621q-1.008.57-2,1.163v16.253A31.1,31.1,0,0,0,1301.75,161.247Z" transform="translate(-1251.933 -120.105)" fill="#8e71ff"/>
      <path id="Path_238" data-name="Path 238" d="M1337.25,147.8a9.975,9.975,0,0,1,2,0v-19.94a1,1,0,0,0-.69-.94l-12.629-4.061c-1.207.294-2.408.6-3.6.942l14.916,4.789Z" transform="translate(-1251.933 -120.105)" fill="#8e71ff"/>
      <path id="Path_239" data-name="Path 239" d="M1325.27,163.657a10.151,10.151,0,0,1-5,1.82v-37l12,4.5v16.27a12.254,12.254,0,0,1,2-.83v-16.17a1,1,0,0,0-.67-.92l-14-5.26a1.051,1.051,0,0,0-.7,0l-14,5.26a1,1,0,0,0-.65.94v19.74a1.2,1.2,0,0,0,0,.19,26.975,26.975,0,0,0,2.91,7.55c2.94,5.06,7.11,7.74,12.07,7.74a12.184,12.184,0,0,0,6.88-2,13.528,13.528,0,0,1-.6-2Zm-7.02,1.8c-9-.82-11.76-12.42-12-13.55v-18.95l12-4.5Z" transform="translate(-1251.933 -120.105)" fill="#8e71ff"/>
      <path id="Path_240" data-name="Path 240" d="M1339.25,155.547h-2v4h-4v2h4v4h2v-4h4v-2h-4Z" transform="translate(-1251.933 -120.105)" fill="#8e71ff"/>
      <path id="Path_241" data-name="Path 241" d="M1338.25,149.747a11,11,0,1,0,11,11A11,11,0,0,0,1338.25,149.747Zm0,20a9,9,0,1,1,9-9A9,9,0,0,1,1338.25,169.747Z" transform="translate(-1251.933 -120.105)" fill="#8e71ff"/>
    </g>
    <g id="Group_27" data-name="Group 27" transform="translate(0 0)">
      <path id="Path_242" data-name="Path 242" d="M1264.589,227.292c.083.141.4.166.4-.058C1264.988,226.918,1264.506,227.151,1264.589,227.292Z" transform="translate(-1251.933 -120.105)" fill="none"/>
      <path id="Path_243" data-name="Path 243" d="M1348.933,120.105a97,97,0,0,0-96.875,92.039,33.237,33.237,0,0,1,8.287-1.7,46.379,46.379,0,0,1,11.943.391c3.147.515,6.635,1.262,9.31,3.114a3.57,3.57,0,0,1,1.868,3.6c-.241,1.752-.473,3.5-.714,5.257l-.831,5.972a1.961,1.961,0,0,0-.083.614c.075.291.964.623,1.288.831,1.013.656,2.491,1.578,2.732,2.881.473,2.625-3.389,1.935-4.742,1.612l-.183,1.129c-.5,3.7-1.021,7.4-1.495,11.1-.382,2.99-4.833,3.712-7.225,4.152a42.742,42.742,0,0,1-11.444.507c-.857-.079-1.742-.175-2.629-.3a97.008,97.008,0,1,0,90.793-131.2Z" transform="translate(-1251.933 -120.105)" fill="none"/>
      <path id="Path_244" data-name="Path 244" d="M1284.214,233.347c-.374-.947-1.786-1.661-2.616-2.135l-.25,1.836C1282.112,233.239,1283.4,233.679,1284.214,233.347Z" transform="translate(-1251.933 -120.105)" fill="none"/>
      <path id="Path_245" data-name="Path 245" d="M1274.846,220.15a25.612,25.612,0,0,0,4.011-1.121c.914-.366,2.408-.872,2.89-1.886s-1.121-1.868-1.81-2.25c-4.468-2.458-10.174-3.023-15.157-3.023a41.812,41.812,0,0,0-10.016,1.154,17.317,17.317,0,0,0-2.77.811c-.036,1.086-.061,2.175-.061,3.27q0,1.164.029,2.323a22.3,22.3,0,0,0,4.9,1.1A51.746,51.746,0,0,0,1274.846,220.15Z" transform="translate(-1251.933 -120.105)" fill="none"/>
      <path id="Path_246" data-name="Path 246" d="M1270.427,249.7a24.617,24.617,0,0,0,4.884-1.1c.764-.274,2.366-.756,2.491-1.728l.964-7.1.531-3.962a9.553,9.553,0,0,0,.158-1.2c0-.532.008-.324-.631-.532a105.035,105.035,0,0,1-12.458-5.116c-.34-.157-.34-.174-.664-.074a3.446,3.446,0,0,1-.831.249,1.869,1.869,0,1,1,1.03-3.322,2.757,2.757,0,0,1,.7,1.221c.108.257.049.174.274.34a3.5,3.5,0,0,0,.506.241,99.945,99.945,0,0,0,12.308,4.983l1.761-13.039a20.162,20.162,0,0,1-6.818,2.276,53.82,53.82,0,0,1-13.612.756,49.5,49.5,0,0,1-6.9-.906,19.133,19.133,0,0,1-2.091-.5,96.652,96.652,0,0,0,5.44,28.263,18.13,18.13,0,0,0,1.858.246A42.123,42.123,0,0,0,1270.427,249.7Z" transform="translate(-1251.933 -120.105)" fill="none"/>
      <path id="Path_247" data-name="Path 247" d="M1272.213,251.094c2.392-.44,6.843-1.162,7.225-4.152.474-3.7,1-7.408,1.495-11.1l.183-1.129c1.353.323,5.215,1.013,4.742-1.612-.241-1.3-1.719-2.225-2.732-2.881-.324-.208-1.213-.54-1.288-.831a1.961,1.961,0,0,1,.083-.614l.831-5.972c.241-1.752.473-3.5.714-5.257a3.57,3.57,0,0,0-1.868-3.6c-2.675-1.852-6.163-2.6-9.31-3.114a46.379,46.379,0,0,0-11.943-.391,33.237,33.237,0,0,0-8.287,1.7c-.028.562-.046,1.127-.064,1.691a17.317,17.317,0,0,1,2.77-.811,41.812,41.812,0,0,1,10.016-1.154c4.983,0,10.689.565,15.157,3.023.689.382,2.292,1.237,1.81,2.25s-1.976,1.52-2.89,1.886a25.612,25.612,0,0,1-4.011,1.121,51.746,51.746,0,0,1-17.989.374,22.3,22.3,0,0,1-4.9-1.1c.014.589.038,1.176.063,1.762a19.133,19.133,0,0,0,2.091.5,49.5,49.5,0,0,0,6.9.906,53.82,53.82,0,0,0,13.612-.756,20.162,20.162,0,0,0,6.818-2.276l-1.761,13.039a99.945,99.945,0,0,1-12.308-4.983,3.5,3.5,0,0,1-.506-.241c-.225-.166-.166-.083-.274-.34a2.757,2.757,0,0,0-.7-1.221,1.869,1.869,0,1,0-1.03,3.322,3.446,3.446,0,0,0,.831-.249c.324-.1.324-.083.664.074a105.035,105.035,0,0,0,12.458,5.116c.639.208.631,0,.631.532a9.553,9.553,0,0,1-.158,1.2l-.531,3.962-.964,7.1c-.125.972-1.727,1.454-2.491,1.728a24.617,24.617,0,0,1-4.884,1.1,42.123,42.123,0,0,1-11.1,0,18.13,18.13,0,0,1-1.858-.246q.328.929.675,1.848c.887.125,1.772.221,2.629.3A42.742,42.742,0,0,0,1272.213,251.094Zm9.385-19.882c.83.474,2.242,1.188,2.616,2.135-.814.332-2.1-.108-2.866-.3Zm-17.009-3.92c-.083-.141.4-.374.4-.058C1264.988,227.458,1264.672,227.433,1264.589,227.292Z" transform="translate(-1251.933 -120.105)" fill="#8e71ff"/>
    </g>
    <g id="Group_28" data-name="Group 28" transform="translate(0 0)">
      <path id="Path_248" data-name="Path 248" d="M1321.25,183.753a36.974,36.974,0,0,0,25.656-63.623,96.616,96.616,0,0,0-62.6,24.649q-.052.981-.054,1.974A37.042,37.042,0,0,0,1321.25,183.753Z" transform="translate(-1251.933 -120.105)" fill="none"/>
      <path id="Path_249" data-name="Path 249" d="M1352.43,120.174a40.986,40.986,0,1,1-72.134,28.39,97,97,0,1,0,72.134-28.39Z" transform="translate(-1251.933 -120.105)" fill="none"/>
      <path id="Path_250" data-name="Path 250" d="M1321.25,187.753a40.968,40.968,0,0,0,31.18-67.579c-1.161-.041-2.326-.069-3.5-.069-.678,0-1.353.012-2.027.025a36.989,36.989,0,1,1-62.656,26.623q0-.993.054-1.974-2.056,1.837-4.008,3.785A41.047,41.047,0,0,0,1321.25,187.753Z" transform="translate(-1251.933 -120.105)" fill="#0019b7"/>
    </g>
    <g id="Group_29" data-name="Group 29" transform="translate(0 0)">
      <path id="Path_251" data-name="Path 251" d="M1348.933,120.105a97.037,97.037,0,0,0-93.551,71.3,40.994,40.994,0,1,1,13.5,80.486,97,97,0,1,0,80.053-151.783Z" transform="translate(-1251.933 -120.105)" fill="none"/>
      <path id="Path_252" data-name="Path 252" d="M1303,231a36.979,36.979,0,0,0-48.74-35.08,97.2,97.2,0,0,0,12.083,72.071A37.038,37.038,0,0,0,1303,231Z" transform="translate(-1251.933 -120.105)" fill="none"/>
      <path id="Path_253" data-name="Path 253" d="M1307,231a40.989,40.989,0,0,0-51.618-39.6q-.613,2.238-1.122,4.518a36.993,36.993,0,1,1,12.083,72.071q1.222,1.98,2.537,3.9A41.047,41.047,0,0,0,1307,231Z" transform="translate(-1251.933 -120.105)" fill="#0019b7"/>
    </g>
    <g id="Group_30" data-name="Group 30" transform="translate(0 0)">
      <path id="Path_254" data-name="Path 254" d="M1348.933,120.105a97,97,0,0,0-56.245,176.036,40.994,40.994,0,1,1,80.462,14.916,97.013,97.013,0,0,0-24.217-190.952Z" transform="translate(-1251.933 -120.105)" fill="none"/>
      <path id="Path_255" data-name="Path 255" d="M1333.374,264.123a37.042,37.042,0,0,0-36.912,34.576,97.246,97.246,0,0,0,72.254,13.384,37.007,37.007,0,0,0-35.342-47.96Z" transform="translate(-1251.933 -120.105)" fill="none"/>
      <path id="Path_256" data-name="Path 256" d="M1333.374,260.123a41.051,41.051,0,0,0-40.686,36.018q1.854,1.322,3.774,2.558a37,37,0,1,1,72.254,13.384q2.237-.464,4.434-1.026a40.992,40.992,0,0,0-39.776-50.934Z" transform="translate(-1251.933 -120.105)" fill="#0019b7"/>
    </g>
    <g id="Group_31" data-name="Group 31" transform="translate(0 0)">
      <path id="Path_257" data-name="Path 257" d="M1415.685,265.605c-7,0-12.73-1.55-15.63-3.92v7.8c0,2.59,6.42,5.48,15.63,5.48,5.616,0,10.185-1.077,12.9-2.5q1.414-2.031,2.727-4.138v-6.639C1428.415,264.055,1422.685,265.605,1415.685,265.605Z" transform="translate(-1251.933 -120.105)" fill="none"/>
      <path id="Path_258" data-name="Path 258" d="M1415.685,276.965c-10,0-17.63-3.21-17.63-7.52v-37c0-4.27,7.63-7.48,17.63-7.48,10.05,0,17.63,3.21,17.63,7.52v32.484a97.151,97.151,0,1,0-6.924,10.526A36.231,36.231,0,0,1,1415.685,276.965Z" transform="translate(-1251.933 -120.105)" fill="none"/>
      <path id="Path_259" data-name="Path 259" d="M1415.685,226.965c-9.21,0-15.63,2.94-15.63,5.53s6.42,5.47,15.63,5.47,15.63-2.93,15.63-5.52S1424.9,226.965,1415.685,226.965Z" transform="translate(-1251.933 -120.105)" fill="none"/>
      <path id="Path_260" data-name="Path 260" d="M1400.055,235.965v9.43c0,2.59,6.42,5.48,15.63,5.48s15.63-2.91,15.63-5.52v-9.39c-2.9,2.41-8.63,4-15.63,4S1402.955,238.375,1400.055,235.965Z" transform="translate(-1251.933 -120.105)" fill="none"/>
      <path id="Path_261" data-name="Path 261" d="M1400.055,248.965v9.16c0,2.59,6.42,5.48,15.63,5.48s15.63-2.89,15.63-5.48v-9.16c-2.9,2.36-8.63,3.91-15.63,3.91S1402.955,251.325,1400.055,248.965Z" transform="translate(-1251.933 -120.105)" fill="none"/>
      <path id="Path_262" data-name="Path 262" d="M1415.685,224.965c-10,0-17.63,3.21-17.63,7.48v37c0,4.31,7.63,7.52,17.63,7.52a36.231,36.231,0,0,0,10.706-1.47q1.128-1.494,2.2-3.033c-2.718,1.426-7.287,2.5-12.9,2.5-9.21,0-15.63-2.89-15.63-5.48v-7.8c2.9,2.37,8.63,3.92,15.63,3.92s12.73-1.55,15.63-3.92v6.639q1.032-1.656,2-3.355V232.485C1433.315,228.175,1425.735,224.965,1415.685,224.965Zm15.63,33.16c0,2.59-6.42,5.48-15.63,5.48s-15.63-2.89-15.63-5.48v-9.16c2.9,2.36,8.63,3.91,15.63,3.91s12.73-1.55,15.63-3.91Zm0-12.77c0,2.61-6.42,5.52-15.63,5.52s-15.63-2.89-15.63-5.48v-9.43c2.9,2.41,8.63,4,15.63,4s12.73-1.59,15.63-4Zm-15.63-7.39c-9.21,0-15.63-2.88-15.63-5.47s6.42-5.53,15.63-5.53,15.63,2.89,15.63,5.48S1424.9,237.965,1415.685,237.965Z" transform="translate(-1251.933 -120.105)" fill="#8e71ff"/>
    </g>
    <g id="Group_32" data-name="Group 32" transform="translate(0 0)">
      <path id="Path_263" data-name="Path 263" d="M1415.685,213.965a37,37,0,0,0-.507,73.987,96.754,96.754,0,0,0,30.059-59.222A36.965,36.965,0,0,0,1415.685,213.965Z" transform="translate(-1251.933 -120.105)" fill="none"/>
      <path id="Path_264" data-name="Path 264" d="M1374.685,250.965a40.974,40.974,0,0,1,71.057-27.845c.122-1.99.191-3.995.191-6.015a97,97,0,1,0-34.979,74.579A41.053,41.053,0,0,1,1374.685,250.965Z" transform="translate(-1251.933 -120.105)" fill="none"/>
      <path id="Path_265" data-name="Path 265" d="M1415.685,209.965a41,41,0,0,0-4.731,81.719q2.168-1.8,4.224-3.732a37,37,0,1,1,30.059-59.222q.331-2.781.5-5.61A40.89,40.89,0,0,0,1415.685,209.965Z" transform="translate(-1251.933 -120.105)" fill="#0019b7"/>
    </g>
  </g>
</svg>
