<svg xmlns="http://www.w3.org/2000/svg" xmlns:xlink="http://www.w3.org/1999/xlink" width="239" height="239" viewBox="0 0 239 239">
  <defs>
    <filter id="Ellipse_3" x="0" y="0" width="239" height="239" filterUnits="userSpaceOnUse">
      <feOffset dy="3" input="SourceAlpha"/>
      <feGaussianBlur stdDeviation="7.5" result="blur"/>
      <feFlood flood-opacity="0.243"/>
      <feComposite operator="in" in2="blur"/>
      <feComposite in="SourceGraphic"/>
    </filter>
    <filter id="Ellipse_4" x="142.429" y="22.722" width="64.778" height="64.778" filterUnits="userSpaceOnUse">
      <feOffset dy="3" input="SourceAlpha"/>
      <feGaussianBlur stdDeviation="3" result="blur-2"/>
      <feFlood flood-opacity="0.396"/>
      <feComposite operator="in" in2="blur-2"/>
      <feComposite in="SourceGraphic"/>
    </filter>
    <filter id="Path_218" x="152.346" y="11.3" width="67.17" height="63.888" filterUnits="userSpaceOnUse">
      <feOffset dy="3" input="SourceAlpha"/>
      <feGaussianBlur stdDeviation="3" result="blur-3"/>
      <feFlood flood-opacity="0.161"/>
      <feComposite operator="in" in2="blur-3"/>
      <feComposite in="SourceGraphic"/>
    </filter>
  </defs>
  <g id="Checklist_Icon" data-name="Checklist Icon" transform="translate(22.5 -1.5)">
    <g transform="matrix(1, 0, 0, 1, -22.5, 1.5)" filter="url(#Ellipse_3)">
      <circle id="Ellipse_3-2" data-name="Ellipse 3" cx="97" cy="97" r="97" transform="translate(22.5 19.5)" fill="#d9d9d9"/>
    </g>
    <g transform="matrix(1, 0, 0, 1, -22.5, 1.5)" filter="url(#Ellipse_4)">
      <circle id="Ellipse_4-2" data-name="Ellipse 4" cx="21.389" cy="21.389" r="21.389" transform="translate(153.43 30.72)" fill="#0019b7" stroke="#8e71ff" stroke-miterlimit="10" stroke-width="4"/>
    </g>
    <g transform="matrix(1, 0, 0, 1, -22.5, 1.5)" filter="url(#Path_218)">
      <path id="Path_218-2" data-name="Path 218" d="M1465.1,697.884l14.942,11.954L1511.416,668" transform="translate(-1302.5 -649.5)" fill="none" stroke="#8e71ff" stroke-miterlimit="10" stroke-width="4"/>
    </g>
    <circle id="Ellipse_5" data-name="Ellipse 5" cx="13" cy="13" r="13" transform="translate(24 80)" fill="none" stroke="#8e71ff" stroke-miterlimit="10" stroke-width="4"/>
    <path id="Path_219" data-name="Path 219" d="M1356,753l10,8,21-28" transform="translate(-1329 -663)" fill="none" stroke="#0019b7" stroke-miterlimit="10" stroke-width="4"/>
    <circle id="Ellipse_6" data-name="Ellipse 6" cx="13" cy="13" r="13" transform="translate(24 124)" fill="none" stroke="#8e71ff" stroke-miterlimit="10" stroke-width="4"/>
    <path id="Path_220" data-name="Path 220" d="M1356,800l10,8,21-28" transform="translate(-1329 -666)" fill="none" stroke="#0019b7" stroke-miterlimit="10" stroke-width="4"/>
    <line id="Line_1" data-name="Line 1" x2="48" transform="translate(71 84)" fill="none" stroke="#8e71ff" stroke-miterlimit="10" stroke-width="4"/>
    <line id="Line_2" data-name="Line 2" x2="27" transform="translate(126 84)" fill="none" stroke="#8e71ff" stroke-miterlimit="10" stroke-width="4"/>
    <line id="Line_3" data-name="Line 3" x2="26" transform="translate(71 93)" fill="none" stroke="#8e71ff" stroke-miterlimit="10" stroke-width="4"/>
    <line id="Line_4" data-name="Line 4" x2="29" transform="translate(104 93)" fill="none" stroke="#8e71ff" stroke-miterlimit="10" stroke-width="4"/>
    <line id="Line_5" data-name="Line 5" x2="48" transform="translate(71 132)" fill="none" stroke="#8e71ff" stroke-miterlimit="10" stroke-width="4"/>
    <line id="Line_6" data-name="Line 6" x2="48" transform="translate(106.5 178)" fill="none" stroke="#8e71ff" stroke-miterlimit="10" stroke-width="4"/>
    <line id="Line_7" data-name="Line 7" x2="27" transform="translate(126 132)" fill="none" stroke="#8e71ff" stroke-miterlimit="10" stroke-width="4"/>
    <line id="Line_8" data-name="Line 8" x2="26" transform="translate(71 141)" fill="none" stroke="#8e71ff" stroke-miterlimit="10" stroke-width="4"/>
    <line id="Line_9" data-name="Line 9" x2="29" transform="translate(151 141)" fill="none" stroke="#8e71ff" stroke-miterlimit="10" stroke-width="4"/>
    <line id="Line_10" data-name="Line 10" x2="29" transform="translate(71 178)" fill="none" stroke="#8e71ff" stroke-miterlimit="10" stroke-width="4"/>
    <line id="Line_11" data-name="Line 11" x2="41" transform="translate(103 141)" fill="none" stroke="#8e71ff" stroke-miterlimit="10" stroke-width="4"/>
    <line id="Line_12" data-name="Line 12" x2="29" transform="translate(119 187)" fill="none" stroke="#8e71ff" stroke-miterlimit="10" stroke-width="4"/>
    <line id="Line_13" data-name="Line 13" x2="41" transform="translate(71 187)" fill="none" stroke="#8e71ff" stroke-miterlimit="10" stroke-width="4"/>
    <path id="Path_221" data-name="Path 221" d="M1366,835a15.01,15.01,0,0,0-14.812,12.746q1.962,2.375,4.074,4.617a11.107,11.107,0,1,1,9.044,8.493q2.391,1.973,4.911,3.788A15,15,0,0,0,1366,835Z" transform="translate(-1329 -668)" fill="#8e71ff"/>
    <path id="Path_222" data-name="Path 222" d="M1356,847l10,8,21-28" transform="translate(-1329 -668)" fill="none" stroke="#0019b7" stroke-miterlimit="10" stroke-width="4"/>
    <g id="Group_23" data-name="Group 23" transform="translate(0 26)">
      <path id="Path_223" data-name="Path 223" d="M1489,749v-4h24.927a96.48,96.48,0,1,0,1.76,4Z" transform="translate(-1329 -689)" fill="none"/>
      <path id="Path_224" data-name="Path 224" d="M1489,749h26.687q-.837-2.023-1.76-4H1489Z" transform="translate(-1329 -689)" fill="#8e71ff"/>
    </g>
    <g id="Group_24" data-name="Group 24" transform="translate(0 21)">
      <path id="Path_225" data-name="Path 225" d="M1490,848v-4h13.756a97.255,97.255,0,1,0-3.159,4Z" transform="translate(-1329 -689)" fill="none"/>
      <path id="Path_226" data-name="Path 226" d="M1490,848h10.6q1.629-1.959,3.159-4H1490Z" transform="translate(-1329 -689)" fill="#8e71ff"/>
    </g>
  </g>
</svg>
