<svg xmlns="http://www.w3.org/2000/svg" xmlns:xlink="http://www.w3.org/1999/xlink" width="239" height="239" viewBox="0 0 239 239">
  <defs>
    <filter id="Ellipse_17" x="0" y="0" width="239" height="239" filterUnits="userSpaceOnUse">
      <feOffset dy="3" input="SourceAlpha"/>
      <feGaussianBlur stdDeviation="7.5" result="blur"/>
      <feFlood flood-opacity="0.263"/>
      <feComposite operator="in" in2="blur"/>
      <feComposite in="SourceGraphic"/>
    </filter>
    <filter id="Path_541" x="153.413" y="34.854" width="67.29" height="52.085" filterUnits="userSpaceOnUse">
      <feOffset dy="3" input="SourceAlpha"/>
      <feGaussianBlur stdDeviation="3" result="blur-2"/>
      <feFlood flood-opacity="0.314"/>
      <feComposite operator="in" in2="blur-2"/>
      <feComposite in="SourceGraphic"/>
    </filter>
    <filter id="Path_542" x="136.202" y="13.399" width="101.713" height="56.508" filterUnits="userSpaceOnUse">
      <feOffset dy="3" input="SourceAlpha"/>
      <feGaussianBlur stdDeviation="3" result="blur-3"/>
      <feFlood flood-opacity="0.314"/>
      <feComposite operator="in" in2="blur-3"/>
      <feComposite in="SourceGraphic"/>
    </filter>
    <filter id="Ellipse_18" x="0" y="0" width="239" height="239" filterUnits="userSpaceOnUse">
      <feOffset dy="3" input="SourceAlpha"/>
      <feGaussianBlur stdDeviation="7.5" result="blur-4"/>
      <feFlood flood-opacity="0.333"/>
      <feComposite operator="in" in2="blur-4"/>
      <feComposite in="SourceGraphic"/>
    </filter>
  </defs>
  <g id="Group_88" data-name="Group 88" transform="translate(22.5 19.5)">
    <g transform="matrix(1, 0, 0, 1, -22.5, -19.5)" filter="url(#Ellipse_17)">
      <circle id="Ellipse_17-2" data-name="Ellipse 17" cx="97" cy="97" r="97" transform="translate(22.5 19.5)" fill="#d9d9d9"/>
    </g>
    <g id="Group_84" data-name="Group 84" transform="translate(28.526 37.665)">
      <path id="Path_518" data-name="Path 518" d="M1469.96-607.872l27.5-12.238v4.566l-22.592,9.636,22.592,9.611v4.566l-27.5-12.212Z" transform="translate(-1469.96 625.592)" fill="#0319bf"/>
      <path id="Path_519" data-name="Path 519" d="M1517.444-625.592h4.248l-13.008,39.343h-4.248Z" transform="translate(-1469.96 625.592)" fill="#0319bf"/>
      <path id="Path_520" data-name="Path 520" d="M1528.638-596.3l22.619-9.611-22.619-9.636v-4.566l27.5,12.238v3.929l-27.5,12.212Z" transform="translate(-1469.96 625.592)" fill="#0319bf"/>
    </g>
    <path id="Path_521" data-name="Path 521" d="M1477.694-572.247h22.5V-577.4H1469.96v5.156h7.734Z" transform="translate(-1441.434 663.257)" fill="#5344eb"/>
    <path id="Path_522" data-name="Path 522" d="M1522.741-572.247h7.5V-577.4h-15.234v5.156h7.734Z" transform="translate(-1441.434 663.257)" fill="#0319bf"/>
    <path id="Path_523" data-name="Path 523" d="M1552.788-572.247h22.5V-577.4h-30.234v5.156h7.734Z" transform="translate(-1441.434 663.257)" fill="#5344eb"/>
    <rect id="Rectangle_79" data-name="Rectangle 79" width="7.734" height="5.156" transform="translate(28.526 100.254)" fill="#5344eb"/>
    <path id="Path_524" data-name="Path 524" d="M1492.507-563v5.156h30.234V-563h-30.234Z" transform="translate(-1441.434 663.257)" fill="#8e71ff"/>
    <path id="Path_525" data-name="Path 525" d="M1545.288-557.847h7.5V-563h-15.234v5.156h7.734Z" transform="translate(-1441.434 663.257)" fill="#5344eb"/>
    <path id="Path_526" data-name="Path 526" d="M1590.335-557.847h7.5V-563H1567.6v5.156h22.734Z" transform="translate(-1441.434 663.257)" fill="#8e71ff"/>
    <path id="Path_527" data-name="Path 527" d="M1477.694-543.448h7.5V-548.6H1469.96v5.156h7.734Z" transform="translate(-1441.434 663.257)" fill="#5344eb"/>
    <path id="Path_528" data-name="Path 528" d="M1507.741-543.448h15V-548.6h-22.734v5.156h7.734Z" transform="translate(-1441.434 663.257)" fill="#5344eb"/>
    <path id="Path_529" data-name="Path 529" d="M1552.788-543.448h22.5V-548.6h-37.734v5.156h15.234Z" transform="translate(-1441.434 663.257)" fill="#5344eb"/>
    <path id="Path_530" data-name="Path 530" d="M1477.694-529.047h15V-534.2H1469.96v5.156h7.734Z" transform="translate(-1441.434 663.257)" fill="#0319bf"/>
    <path id="Path_531" data-name="Path 531" d="M1515.241-529.047h15V-534.2h-22.734v5.156h7.734Z" transform="translate(-1441.434 663.257)" fill="#5344eb"/>
    <path id="Path_532" data-name="Path 532" d="M1477.694-514.648h22.5V-519.8H1469.96v5.156h7.734Z" transform="translate(-1441.434 663.257)" fill="#5344eb"/>
    <path id="Path_533" data-name="Path 533" d="M1537.507-519.8h-22.5v5.156h30.234V-519.8h-7.734Z" transform="translate(-1441.434 663.257)" fill="#5344eb"/>
    <path id="Path_534" data-name="Path 534" d="M1567.788-514.648h7.5V-519.8h-15.234v5.156h7.734Z" transform="translate(-1441.434 663.257)" fill="#0319bf"/>
    <path id="Path_535" data-name="Path 535" d="M1612.835-519.8H1590.1v5.156h30.234V-519.8Z" transform="translate(-1441.434 663.257)" fill="#5344eb"/>
    <path id="Path_536" data-name="Path 536" d="M1477.694-500.247h7.5V-505.4H1469.96v5.156h7.734Z" transform="translate(-1441.434 663.257)" fill="#8e71ff"/>
    <path id="Path_537" data-name="Path 537" d="M1500.007-505.4v5.156h15.234V-505.4h-15.234Z" transform="translate(-1441.434 663.257)" fill="#5344eb"/>
    <rect id="Rectangle_80" data-name="Rectangle 80" width="7.734" height="5.156" transform="translate(88.62 157.853)" fill="#5344eb"/>
    <path id="Path_538" data-name="Path 538" d="M1567.6-505.4h-15v5.156h22.734V-505.4H1567.6Z" transform="translate(-1441.434 663.257)" fill="#5344eb"/>
    <path id="Path_539" data-name="Path 539" d="M1597.647-505.4h-7.5v5.156h15.234V-505.4h-7.734Z" transform="translate(-1441.434 663.257)" fill="#5344eb"/>
    <path id="Path_540" data-name="Path 540" d="M1575.007-491h-15v5.156h22.734V-491h-7.734Z" transform="translate(-1441.434 663.257)" fill="#8e71ff"/>
    <g transform="matrix(1, 0, 0, 1, -22.5, -19.5)" filter="url(#Path_541)">
      <path id="Path_541-2" data-name="Path 541" d="M1605.992-627.814,1583.847-638v18.721s4.529,8.962,21.9,8.962,22.387-8.962,22.387-8.962V-638Z" transform="translate(-1418.93 682.76)" fill="#0019b7" stroke="#8e71ff" stroke-miterlimit="10" stroke-width="5"/>
    </g>
    <g transform="matrix(1, 0, 0, 1, -22.5, -19.5)" filter="url(#Path_542)">
      <path id="Path_542-2" data-name="Path 542" d="M1605.992-664.606l-35.874,16.5,35.874,16.5,35.874-16.5Z" transform="translate(-1418.93 686.76)" fill="#0019b7" stroke="#8e71ff" stroke-miterlimit="10" stroke-width="5"/>
    </g>
    <g id="Group_85" data-name="Group 85" transform="translate(0)">
      <path id="Path_543" data-name="Path 543" d="M1538.434-663.257a97,97,0,0,0-97,97,97.034,97.034,0,0,0,73.573,94.145V-476.6h22.734v5.156h-19.868a97.329,97.329,0,0,0,20.561,2.191,97,97,0,0,0,97-97A97,97,0,0,0,1538.434-663.257Z" transform="translate(-1441.434 663.257)" fill="none"/>
      <path id="Path_544" data-name="Path 544" d="M1522.741-471.448h15V-476.6h-22.734v4.492q1.425.354,2.866.664h4.868Z" transform="translate(-1441.434 663.257)" fill="#0319bf"/>
    </g>
    <g id="Group_86" data-name="Group 86" transform="translate(0)">
      <path id="Path_545" data-name="Path 545" d="M1538.434-663.257a97,97,0,0,0-97,97,97,97,0,0,0,97,97,97.314,97.314,0,0,0,20.56-2.191h-6.44V-476.6h22.962a97.024,97.024,0,0,0,59.918-89.653A97,97,0,0,0,1538.434-663.257Z" transform="translate(-1441.434 663.257)" fill="none"/>
      <path id="Path_546" data-name="Path 546" d="M1575.054-476.6h-22.5v5.156h6.44a96.158,96.158,0,0,0,16.522-5.156h-.462Z" transform="translate(-1441.434 663.257)" fill="#5344eb"/>
    </g>
    <g transform="matrix(1, 0, 0, 1, -22.5, -19.5)" filter="url(#Ellipse_18)">
      <circle id="Ellipse_18-2" data-name="Ellipse 18" cx="97" cy="97" r="97" transform="translate(22.5 19.5)" fill="none"/>
    </g>
    <g id="Group_87" data-name="Group 87" transform="translate(0)">
      <path id="Path_547" data-name="Path 547" d="M1538.434-663.257a97,97,0,0,0-97,97,96.806,96.806,0,0,0,35.8,75.254h67.96v5.156h-61.029a96.544,96.544,0,0,0,54.269,16.59,97,97,0,0,0,97-97A97,97,0,0,0,1538.434-663.257Z" transform="translate(-1441.434 663.257)" fill="none"/>
      <path id="Path_548" data-name="Path 548" d="M1485.194-485.847h60V-491h-67.96q3.346,2.725,6.931,5.156h1.029Z" transform="translate(-1441.434 663.257)" fill="#5344eb"/>
    </g>
  </g>
</svg>
